<?xml version="1.0" encoding="UTF-8"?>
<svg width="100" height="99.999" enable-background="new 0 0 480 480" version="1.1" viewBox="0 0 100 99.999" xml:space="preserve" xmlns="http://www.w3.org/2000/svg" xmlns:cc="http://creativecommons.org/ns#" xmlns:dc="http://purl.org/dc/elements/1.1/" xmlns:rdf="http://www.w3.org/1999/02/22-rdf-syntax-ns#"><metadata><rdf:RDF><cc:Work rdf:about=""><dc:format>image/svg+xml</dc:format><dc:type rdf:resource="http://purl.org/dc/dcmitype/StillImage"/><dc:title/></cc:Work></rdf:RDF></metadata>


<g transform="matrix(1.2129 0 0 1.2129 -306.09 -437.3)">
		
			
				
					<path d="m284.66 414.22c-0.387 0-0.7-0.313-0.7-0.7v-4.297c0-3.423 2.784-6.207 6.206-6.207 1.483 0 2.972 0.346 4.303 0.998l4.891 2.4c0.347 0.17 0.49 0.59 0.32 0.936-0.171 0.348-0.592 0.491-0.937 0.32l-4.891-2.399c-1.141-0.56-2.415-0.854-3.687-0.854-2.65 0-4.806 2.156-4.806 4.807v4.297c1e-3 0.385-0.312 0.699-0.699 0.699z" fill="#3E4651"/>
				
				
					<path d="m286.36 420.6c-2.145 0-3.889-1.744-3.889-3.889s1.744-3.89 3.889-3.89 3.89 1.745 3.89 3.89-1.745 3.889-3.89 3.889zm0-6.378c-1.372 0-2.488 1.116-2.488 2.489 0 1.372 1.116 2.488 2.488 2.488 1.373 0 2.489-1.116 2.489-2.488 1e-3 -1.373-1.116-2.489-2.489-2.489z" fill="#3E4651"/>
				
				
					<path d="m292.85 420.6c-2.177 0-3.947-1.771-3.947-3.947s1.771-3.947 3.947-3.947 3.946 1.771 3.946 3.947-1.771 3.947-3.946 3.947zm0-6.495c-1.404 0-2.547 1.143-2.547 2.547s1.143 2.547 2.547 2.547 2.546-1.143 2.546-2.547-1.142-2.547-2.546-2.547z" fill="#3E4651"/>
				
				
					<path d="m299.61 420.49c-2.292 0-4.156-1.865-4.156-4.156 0-2.292 1.864-4.156 4.156-4.156 2.291 0 4.156 1.864 4.156 4.156 1e-3 2.291-1.865 4.156-4.156 4.156zm0-6.912c-1.52 0-2.756 1.236-2.756 2.756 0 1.519 1.236 2.756 2.756 2.756s2.756-1.237 2.756-2.756-1.236-2.756-2.756-2.756z" fill="#3E4651"/>
				
				
					<path d="m307.3 420.49c-2.504 0-4.542-2.038-4.542-4.543 0-2.504 2.038-4.541 4.542-4.541 2.505 0 4.542 2.037 4.542 4.541 0 2.505-2.037 4.543-4.542 4.543zm0-7.683c-1.732 0-3.142 1.408-3.142 3.141s1.409 3.143 3.142 3.143 3.142-1.41 3.142-3.143-1.41-3.141-3.142-3.141z" fill="#3E4651"/>
				
				
					<path d="m315.83 420.6c-2.759 0-5.003-2.244-5.003-5.002s2.244-5.002 5.003-5.002c2.758 0 5.002 2.244 5.002 5.002s-2.244 5.002-5.002 5.002zm0-8.604c-1.986 0-3.603 1.615-3.603 3.602s1.616 3.602 3.603 3.602c1.985 0 3.602-1.615 3.602-3.602s-1.617-3.602-3.602-3.602z" fill="#3E4651"/>
				
				
					<path d="m295.28 410.22h-10.125c-0.387 0-0.7-0.313-0.7-0.7s0.313-0.7 0.7-0.7h10.125c0.387 0 0.7 0.313 0.7 0.7s-0.313 0.7-0.7 0.7z" fill="#3E4651"/>
				
				
					<path d="m320.13 414.75c-0.062 0-0.123-9e-3 -0.186-0.025-0.373-0.103-0.592-0.487-0.49-0.86l0.259-0.943c0.95-3.467-0.852-7.081-4.192-8.408l-1.656-0.658c-0.359-0.143-0.535-0.549-0.393-0.908 0.143-0.36 0.553-0.533 0.909-0.393l1.656 0.658c4.005 1.59 6.165 5.924 5.026 10.079l-0.259 0.944c-0.084 0.31-0.366 0.514-0.674 0.514z" fill="#3E4651"/>
				
				
					<path d="m311.14 407.74h-12.091c-0.387 0-0.7-0.313-0.7-0.7 0-3.202 0.704-6.427 2.035-9.327 1.618-3.504 5.155-5.768 9.012-5.768h2.862c1.414 0 2.564 1.15 2.564 2.563v8.696c0 0.387-0.313 0.7-0.7 0.7h-2.933c-0.387 0-0.7-0.313-0.7-0.7v-6.56c-0.531 1e-3 -1.181 1e-3 -1.242 2e-3 -1.963 0.054-3.77 1.245-4.596 3.035-0.951 2.072-1.496 4.36-1.589 6.657h8.077c0.387 0 0.7 0.313 0.7 0.7s-0.313 0.702-0.699 0.702zm-11.379-1.4h1.901c0.093-2.497 0.682-4.987 1.718-7.242 1.048-2.271 3.338-3.781 5.835-3.85 0.055-2e-3 1.92-3e-3 1.975-3e-3 0.387 0 0.7 0.313 0.7 0.7v6.56h1.532v-7.996c0-0.642-0.521-1.163-1.164-1.163h-2.862c-3.313 0-6.351 1.943-7.739 4.953-1.151 2.505-1.802 5.271-1.896 8.041z" fill="#3E4651"/>
				
				
					<path d="m295.38 405.49c-0.067 0-0.137-0.01-0.205-0.031-0.369-0.113-0.577-0.505-0.464-0.875l7.254-23.685c0.056-0.183 0.073-0.378 0.05-0.565-0.065-0.529-0.429-0.971-0.925-1.126-0.717-0.229-1.459 0.146-1.701 0.847l-8.044 23.49c-0.125 0.365-0.523 0.562-0.889 0.436-0.366-0.125-0.562-0.523-0.436-0.889l8.045-23.492c0.491-1.428 2.004-2.186 3.445-1.727 1.016 0.316 1.76 1.215 1.894 2.289 0.047 0.381 0.013 0.776-0.1 1.146l-7.255 23.686c-0.092 0.302-0.369 0.496-0.669 0.496z" fill="#3E4651"/>
				
				
					<path d="m272.71 394.68c-1.169 0-2.12-0.951-2.12-2.12v-7.112c0-0.324 0.223-0.605 0.537-0.681l28.561-6.833c0.38-0.09 0.754 0.143 0.844 0.518 0.09 0.377-0.142 0.754-0.518 0.844l-28.023 6.705v6.56c0 0.39 0.33 0.72 0.72 0.72 0.397 0 0.72-0.322 0.72-0.72v-4.444c0-0.388 0.313-0.701 0.7-0.701s0.7 0.313 0.7 0.701v4.444c-1e-3 1.168-0.952 2.119-2.121 2.119z" fill="#3E4651"/>
				
				
					<path d="m274.13 388.81c-0.331 0-0.625-0.235-0.688-0.572-0.07-0.381 0.182-0.746 0.562-0.816l23.003-4.25c0.376-0.068 0.745 0.182 0.815 0.563 0.07 0.379-0.181 0.744-0.562 0.814l-23.003 4.25c-0.042 7e-3 -0.084 0.011-0.127 0.011z" fill="#3E4651"/>
				
				
					<path d="m286.36 414.22c-0.362 0-0.669-0.28-0.697-0.647-0.028-0.386 0.26-0.722 0.646-0.751l29.469-2.227c0.378-0.023 0.722 0.261 0.751 0.646 0.028 0.387-0.261 0.723-0.646 0.752l-29.469 2.226c-0.017 0-0.035 1e-3 -0.054 1e-3z" fill="#3E4651"/>
				
				
					<path d="m315.83 420.6h-29.469c-0.387 0-0.7-0.313-0.7-0.7s0.313-0.7 0.7-0.7h29.469c0.387 0 0.7 0.313 0.7 0.7s-0.313 0.7-0.7 0.7z" fill="#3E4651"/>
				
			
			
				
					
						<path d="m277.24 404.14c-0.387 0-0.7-0.313-0.7-0.7 0-0.138-8e-3 -0.274-0.022-0.41-0.129-1.165-0.946-2.246-2.133-2.822-1.078-0.523-2.342-0.515-3.397 0.013-1.053 0.528-1.784 1.405-2.009 2.406-0.06 0.266-0.089 0.539-0.089 0.813 0 0.387-0.313 0.7-0.7 0.7s-0.7-0.313-0.7-0.7c0-0.376 0.041-0.753 0.123-1.119 0.316-1.413 1.318-2.635 2.747-3.351 1.442-0.725 3.169-0.734 4.62-0.031 1.632 0.793 2.748 2.298 2.93 3.936 0.021 0.186 0.031 0.375 0.031 0.565-1e-3 0.386-0.314 0.7-0.701 0.7z" fill="#3E4651"/>
					
					
						<path d="m273.18 410.25h-2.239c-0.387 0-0.7-0.313-0.7-0.699s0.313-0.701 0.7-0.701h2.239c0.387 0 0.7 0.314 0.7 0.701s-0.314 0.699-0.7 0.699z" fill="#3E4651"/>
					
					
						
							
								
									<path d="m277.85 408.35c-0.295 0-0.568-0.188-0.665-0.482-0.121-0.367 0.079-0.762 0.446-0.883 0.46-0.15 0.769-0.587 0.769-1.085 0-0.64-0.521-1.159-1.16-1.159-0.49 0-0.922 0.313-1.075 0.777-0.12 0.367-0.516 0.568-0.883 0.447s-0.567-0.516-0.447-0.883c0.342-1.043 1.309-1.742 2.405-1.742 1.411 0 2.561 1.148 2.561 2.56 0 1.104-0.696 2.075-1.732 2.415-0.074 0.023-0.147 0.035-0.219 0.035z" fill="#3E4651"/>
								
							
						
						
							
								
									<path d="m268.2 408.46c-1.409 0-2.557-1.147-2.557-2.557s1.147-2.557 2.557-2.557 2.557 1.147 2.557 2.557-1.148 2.557-2.557 2.557zm0-3.713c-0.638 0-1.156 0.52-1.156 1.156 0 0.638 0.519 1.156 1.156 1.156s1.156-0.519 1.156-1.156c1e-3 -0.636-0.518-1.156-1.156-1.156z" fill="#3E4651"/>
								
							
						
					
					
						<path d="m272.72 413.07h-4e-3l-2.452-0.013c-1.525 0-2.77-1.244-2.77-2.772v-2.524c0-0.387 0.313-0.7 0.7-0.7s0.7 0.313 0.7 0.7v2.524c0 0.757 0.615 1.372 1.372 1.372l2.456 0.013c0.387 2e-3 0.699 0.317 0.697 0.704-1e-3 0.385-0.314 0.696-0.699 0.696z" fill="#3E4651"/>
					
					
						<path d="m276.28 404.74c-0.159 0-0.319-0.054-0.451-0.164l-1.223-1.031c-1.095-0.926-2.683-0.925-3.777-1e-3l-1.224 1.032c-0.296 0.25-0.736 0.211-0.986-0.084-0.249-0.296-0.212-0.737 0.084-0.986l1.223-1.032c1.618-1.366 3.967-1.366 5.584 1e-3l1.222 1.031c0.296 0.249 0.333 0.69 0.084 0.986-0.139 0.164-0.337 0.248-0.536 0.248z" fill="#3E4651"/>
					
				
				
					<path d="m272.72 402.8c-0.386 0-0.699-0.313-0.7-0.698l-0.026-8.004c-1e-3 -0.387 0.312-0.701 0.698-0.702h2e-3c0.386 0 0.699 0.312 0.7 0.697l0.026 8.004c1e-3 0.387-0.312 0.701-0.698 0.703h-2e-3z" fill="#3E4651"/>
				
				
					<path d="m276.02 401.06c-0.387 0-0.7-0.313-0.7-0.699v-6.62c0-0.533-0.434-0.967-0.967-0.967-0.387 0-0.749-0.313-0.749-0.7s0.264-0.7 0.65-0.7c1.404 0 2.466 1.062 2.466 2.367v6.62c0 0.386-0.314 0.699-0.7 0.699z" fill="#3E4651"/>
				
			
		
		
			
				<path d="m278.74 414.62c-0.783 0-1.519-0.305-2.072-0.857-1.141-1.143-1.141-3 0-4.143 1.106-1.107 3.036-1.107 4.144 0 1.141 1.143 1.141 3 0 4.143-0.554 0.552-1.289 0.857-2.072 0.857zm0-4.458c-0.409 0-0.793 0.159-1.082 0.448-0.596 0.596-0.596 1.566 0 2.162 0.577 0.577 1.585 0.578 2.163 0 0.596-0.596 0.596-1.566 0-2.162-0.289-0.289-0.672-0.448-1.081-0.448z" fill="#3E4651"/>
			
			
				<path d="m263.15 399.96c-0.18 0-0.358-0.068-0.495-0.206-1.141-1.141-1.141-2.997 0-4.138 1.142-1.142 2.998-1.142 4.14-1e-3 0.273 0.273 0.273 0.717 0 0.99s-0.717 0.273-0.99 0c-0.595-0.596-1.564-0.596-2.159 0-0.596 0.596-0.596 1.564 0 2.16 0.273 0.273 0.272 0.716-1e-3 0.989-0.136 0.138-0.316 0.206-0.495 0.206z" fill="#3E4651"/>
			
			
				<path d="m280.32 410.82c-0.18 0-0.358-0.068-0.495-0.205l-4.82-4.82c-0.273-0.273-0.273-0.717 0-0.99s0.717-0.273 0.99 0l4.82 4.82c0.273 0.273 0.273 0.717 0 0.99-0.136 0.137-0.316 0.205-0.495 0.205z" fill="#3E4651"/>
			
			
				<path d="m270.12 400.62c-0.179 0-0.358-0.068-0.495-0.205l-3.807-3.807c-0.273-0.273-0.273-0.717 0-0.99s0.717-0.273 0.99 0l3.807 3.807c0.273 0.273 0.273 0.717 0 0.99-0.136 0.137-0.315 0.205-0.495 0.205z" fill="#3E4651"/>
			
			
				<path d="m267.96 404.77c-0.179 0-0.358-0.068-0.495-0.205l-4.807-4.807c-0.273-0.273-0.273-0.717 0-0.99s0.717-0.273 0.99 0l4.807 4.807c0.273 0.273 0.273 0.717 0 0.99-0.137 0.136-0.315 0.205-0.495 0.205z" fill="#3E4651"/>
			
			
				<path d="m277.16 413.97c-0.179 0-0.358-0.068-0.495-0.205l-7.13-7.13c-0.273-0.273-0.273-0.717 0-0.99s0.717-0.273 0.99 0l7.13 7.13c0.273 0.273 0.273 0.717 0 0.99-0.136 0.136-0.315 0.205-0.495 0.205z" fill="#3E4651"/>
			
		
	</g>














</svg>
