<?xml version="1.0" encoding="UTF-8"?>
<svg width="100" height="100" enable-background="new 0 0 480 480" version="1.1" viewBox="0 0 100 100" xml:space="preserve" xmlns="http://www.w3.org/2000/svg" xmlns:cc="http://creativecommons.org/ns#" xmlns:dc="http://purl.org/dc/elements/1.1/" xmlns:rdf="http://www.w3.org/1999/02/22-rdf-syntax-ns#"><metadata><rdf:RDF><cc:Work rdf:about=""><dc:format>image/svg+xml</dc:format><dc:type rdf:resource="http://purl.org/dc/dcmitype/StillImage"/><dc:title/></cc:Work></rdf:RDF></metadata>











<g transform="matrix(1.2129 0 0 1.2129 -176.11 -176.11)">
	
		<path d="m186.42 227.64c-22.73 0-41.222-18.492-41.222-41.222s18.492-41.222 41.222-41.222c22.729 0 41.222 18.492 41.222 41.222 0 22.729-18.493 41.222-41.222 41.222zm0-81.044c-21.958 0-39.822 17.864-39.822 39.822s17.864 39.821 39.822 39.821 39.821-17.864 39.821-39.821c0-21.958-17.863-39.822-39.821-39.822z" fill="#3E4651"/>
	
	
		
			<path d="m169.27 198.19h-7.237c-1.979 0-3.698-1.414-4.087-3.36-0.049-0.222-0.078-0.505-0.078-0.805 0-1.839 1.228-3.479 2.985-3.989l4.541-1.31c1.089-0.317 2.239-0.105 3.147 0.578 0.909 0.684 1.431 1.728 1.432 2.864l3e-3 5.319c0 0.292-0.179 0.543-0.434 0.648-0.084 0.035-0.176 0.055-0.272 0.055zm-2.877-8.206c-0.204 0-0.41 0.029-0.612 0.087l-4.54 1.31c-1.162 0.337-1.974 1.424-1.974 2.644 0 0.196 0.017 0.379 0.047 0.515 0.262 1.31 1.404 2.25 2.718 2.25h6.542l-3e-3 -4.621c0-0.693-0.318-1.329-0.872-1.746-0.384-0.289-0.84-0.439-1.306-0.439z" fill="#3E4651"/>
		
		
			<path d="m187.22 200.63h-25.196c-3.129 0-5.846-2.215-6.461-5.267-0.093-0.392-0.141-0.836-0.141-1.335 0-2.917 1.955-5.521 4.754-6.331l8.395-2.429v-0.988c0-3.015 2.458-5.468 5.479-5.468h12.237c2.114 0 4.076 0.954 5.382 2.617 1.303 1.659 1.764 3.786 1.265 5.835l-2.66 10.965c-0.345 1.415-1.6 2.401-3.054 2.401zm-13.171-20.417c-2.249 0-4.078 1.825-4.078 4.067v1.515c0 0.312-0.206 0.586-0.506 0.672l-8.9 2.575c-2.204 0.638-3.743 2.688-3.743 4.986 0 0.389 0.035 0.728 0.108 1.036 0.489 2.423 2.629 4.166 5.094 4.166h25.196c0.806 0 1.502-0.547 1.692-1.33l2.66-10.966c0.397-1.63 0.031-3.321-1.005-4.64-1.039-1.323-2.6-2.081-4.281-2.081z" fill="#3E4651"/>
		
		
			<path d="m186.55 198.19h-17.283c-0.387 0-0.7-0.313-0.7-0.7s0.313-0.7 0.7-0.7h17.283c0.387 0 0.7 0.313 0.7 0.7s-0.313 0.7-0.7 0.7z" fill="#3E4651"/>
		
		
			
				<path d="m192.06 188.83-0.059-0.699 0.011-0.7c0.385 0 0.717 0.311 0.72 0.696 2e-3 0.384-0.287 0.699-0.672 0.703z" fill="#3E4651"/>
			
			
				<path d="m191.18 198.78c-0.384 0-0.696-0.309-0.7-0.693-3e-3 -0.387 0.307-0.703 0.693-0.707l0.101-1e-3h7e-3c0.384 0 0.696 0.309 0.7 0.693 3e-3 0.387-0.307 0.703-0.693 0.707l-0.101 1e-3h-7e-3zm1.618-0.013c-0.384 0-0.696-0.309-0.7-0.693-3e-3 -0.387 0.307-0.703 0.693-0.707l0.101-1e-3h7e-3c0.384 0 0.696 0.309 0.7 0.693 3e-3 0.387-0.307 0.704-0.693 0.707l-0.101 1e-3h-7e-3zm1.618-0.013c-0.385 0-0.698-0.312-0.7-0.697-1e-3 -0.386 0.31-0.701 0.697-0.703h0.101 3e-3c0.385 0 0.698 0.312 0.7 0.697 1e-3 0.387-0.31 0.702-0.697 0.704h-0.101c0-1e-3 -2e-3 -1e-3 -3e-3 -1e-3zm1.618-0.013c-0.385 0-0.698-0.312-0.7-0.697-1e-3 -0.387 0.31-0.702 0.697-0.704h0.101 3e-3c0.385 0 0.698 0.312 0.7 0.697 1e-3 0.387-0.31 0.702-0.697 0.704h-0.101-3e-3zm1.618-0.013c-0.384 0-0.696-0.309-0.7-0.693-3e-3 -0.387 0.307-0.703 0.693-0.707l0.101-1e-3h7e-3c0.384 0 0.696 0.309 0.7 0.693 3e-3 0.387-0.307 0.703-0.693 0.707l-0.101 1e-3h-7e-3zm1.618-0.013c-0.384 0-0.696-0.309-0.7-0.693-3e-3 -0.387 0.307-0.703 0.693-0.707l0.101-1e-3h7e-3c0.384 0 0.696 0.309 0.7 0.693 3e-3 0.387-0.307 0.703-0.693 0.707l-0.101 1e-3h-7e-3zm1.618-0.013c-0.384 0-0.696-0.309-0.7-0.693-3e-3 -0.387 0.307-0.703 0.693-0.707l0.101-1e-3h7e-3c0.384 0 0.696 0.309 0.7 0.693 3e-3 0.387-0.307 0.703-0.693 0.707l-0.101 1e-3h-7e-3zm1.618-0.014c-0.384 0-0.696-0.309-0.7-0.693-3e-3 -0.387 0.307-0.703 0.693-0.707l0.101-1e-3h7e-3c0.384 0 0.696 0.309 0.7 0.693 3e-3 0.387-0.307 0.703-0.693 0.707l-0.101 1e-3h-7e-3zm1.618-0.013c-0.384 0-0.696-0.309-0.7-0.693-3e-3 -0.387 0.307-0.703 0.693-0.707l0.101-1e-3h7e-3c0.384 0 0.696 0.309 0.7 0.693 3e-3 0.387-0.307 0.703-0.693 0.707l-0.101 1e-3h-7e-3zm1.618-0.013c-0.385 0-0.698-0.312-0.7-0.697-1e-3 -0.387 0.31-0.702 0.697-0.704h0.101 3e-3c0.385 0 0.698 0.312 0.7 0.697 1e-3 0.387-0.31 0.702-0.697 0.704h-0.101-3e-3zm1.618-0.013c-0.385 0-0.698-0.312-0.7-0.697-1e-3 -0.387 0.31-0.702 0.697-0.704h0.101 3e-3c0.385 0 0.698 0.312 0.7 0.697 1e-3 0.387-0.31 0.702-0.697 0.704h-0.101-3e-3zm1.618-0.013c-0.384 0-0.696-0.309-0.7-0.693-3e-3 -0.387 0.307-0.703 0.693-0.707l0.101-1e-3h7e-3c0.384 0 0.696 0.309 0.7 0.693 3e-3 0.387-0.307 0.703-0.693 0.707l-0.101 1e-3h-7e-3zm1.618-0.013c-0.384 0-0.696-0.309-0.7-0.693-3e-3 -0.387 0.307-0.703 0.693-0.707l0.101-1e-3h7e-3c0.384 0 0.696 0.309 0.7 0.693 3e-3 0.387-0.307 0.703-0.693 0.707l-0.101 1e-3h-7e-3zm1.618-0.013c-0.384 0-0.696-0.309-0.7-0.693-3e-3 -0.387 0.307-0.703 0.693-0.707l0.101-1e-3h7e-3c0.384 0 0.696 0.309 0.7 0.693 3e-3 0.387-0.307 0.703-0.693 0.707l-0.101 1e-3h-7e-3zm1.619-0.014c-0.382 0-0.694-0.307-0.7-0.69-6e-3 -0.387 0.303-0.705 0.689-0.71 0.377-0.022 0.753 0.281 0.77 0.667s-0.243 0.712-0.629 0.729l-0.121 3e-3c-2e-3 1e-3 -5e-3 1e-3 -9e-3 1e-3zm1.585-0.287c-0.288 0-0.558-0.179-0.66-0.466-0.129-0.364 0.062-0.764 0.426-0.893 0.363-0.136 0.807 0.032 0.942 0.395 0.136 0.362-6e-3 0.75-0.369 0.886l-0.107 0.039c-0.076 0.026-0.155 0.039-0.232 0.039zm1.409-0.779c-0.206 0-0.41-0.09-0.548-0.264-0.241-0.302-0.191-0.743 0.111-0.983 0.3-0.245 0.777-0.228 1.021 0.071 0.244 0.3 0.235 0.711-0.064 0.956l-0.085 0.068c-0.129 0.102-0.282 0.152-0.435 0.152zm1.088-1.188c-0.132 0-0.265-0.037-0.383-0.115-0.323-0.212-0.414-0.646-0.202-0.969 0.208-0.325 0.666-0.458 0.992-0.252 0.326 0.208 0.446 0.602 0.239 0.927l-0.06 0.093c-0.134 0.204-0.358 0.316-0.586 0.316zm0.649-1.475c-0.057 0-0.115-7e-3 -0.173-0.021-0.375-0.095-0.601-0.476-0.506-0.851 0.09-0.376 0.474-0.654 0.854-0.563 0.376 0.09 0.619 0.423 0.529 0.799l-0.026 0.108c-0.081 0.317-0.366 0.528-0.678 0.528zm0.135-1.605c-0.363 0-0.67-0.281-0.697-0.649-0.033-0.385 0.248-0.77 0.633-0.804 0.38-0.029 0.721 0.205 0.754 0.591l9e-3 0.11c0.028 0.385-0.261 0.721-0.647 0.75-0.018 1e-3 -0.035 2e-3 -0.052 2e-3zm-0.374-1.565c-0.273 0-0.533-0.161-0.646-0.428-0.157-0.353-0.016-0.807 0.338-0.964 0.352-0.155 0.749-0.038 0.906 0.315l0.046 0.105c0.15 0.356-0.017 0.767-0.373 0.917-0.089 0.037-0.181 0.055-0.271 0.055zm-0.866-1.359c-0.191 0-0.382-0.078-0.52-0.231-0.262-0.284-0.275-0.762 9e-3 -1.023 0.285-0.262 0.697-0.278 0.958 5e-3l0.074 0.081c0.259 0.287 0.236 0.729-0.051 0.989-0.135 0.119-0.302 0.179-0.47 0.179zm-1.247-1.022c-0.12 0-0.241-0.031-0.352-0.096-0.339-0.186-0.499-0.632-0.313-0.971 0.187-0.338 0.576-0.482 0.915-0.296l0.103 0.059c0.334 0.195 0.447 0.623 0.252 0.957-0.129 0.222-0.364 0.347-0.605 0.347zm-22.639-0.495c-0.384 0-0.696-0.309-0.7-0.693-3e-3 -0.387 0.307-0.703 0.693-0.707l0.101-1e-3h7e-3c0.384 0 0.696 0.309 0.7 0.693 3e-3 0.387-0.307 0.703-0.693 0.707l-0.101 1e-3h-7e-3zm1.618-0.012c-0.384 0-0.696-0.309-0.7-0.693-3e-3 -0.387 0.307-0.703 0.693-0.707l0.101-1e-3h7e-3c0.384 0 0.696 0.309 0.7 0.693 3e-3 0.387-0.307 0.704-0.693 0.707l-0.101 1e-3h-7e-3zm1.618-0.012c-0.384 0-0.696-0.309-0.7-0.693-3e-3 -0.387 0.307-0.703 0.693-0.707l0.101-1e-3h7e-3c0.384 0 0.696 0.309 0.7 0.693 3e-3 0.387-0.307 0.703-0.693 0.707l-0.101 1e-3h-7e-3zm1.618-0.013c-0.385 0-0.698-0.312-0.7-0.697-1e-3 -0.387 0.31-0.702 0.697-0.704h0.101 3e-3c0.385 0 0.698 0.312 0.7 0.697 1e-3 0.387-0.31 0.702-0.697 0.704h-0.101-3e-3zm1.618-0.012c-0.385 0-0.698-0.312-0.7-0.697-1e-3 -0.387 0.31-0.702 0.697-0.704h0.101 3e-3c0.385 0 0.698 0.312 0.7 0.697 1e-3 0.387-0.31 0.702-0.697 0.704h-0.101-3e-3zm1.618-0.012c-0.384 0-0.696-0.309-0.7-0.693-3e-3 -0.387 0.307-0.703 0.693-0.707l0.101-1e-3h7e-3c0.384 0 0.696 0.309 0.7 0.693 3e-3 0.387-0.307 0.703-0.693 0.707l-0.101 1e-3h-7e-3zm13.042-5e-3c-0.044 0-0.088-4e-3 -0.132-0.013-0.381-0.067-0.68-0.438-0.613-0.819s0.385-0.643 0.766-0.576l0.109 0.02c0.38 0.073 0.629 0.439 0.556 0.819-0.064 0.336-0.357 0.569-0.686 0.569zm-11.424-7e-3c-0.384 0-0.696-0.309-0.7-0.693-3e-3 -0.387 0.307-0.704 0.693-0.707l0.101-1e-3h7e-3c0.384 0 0.696 0.309 0.7 0.693 3e-3 0.387-0.307 0.703-0.693 0.707l-0.101 1e-3h-7e-3zm1.618-0.013c-0.385 0-0.698-0.312-0.7-0.697-1e-3 -0.387 0.31-0.702 0.697-0.704h0.102 3e-3c0.385 0 0.698 0.312 0.7 0.697 1e-3 0.387-0.31 0.702-0.697 0.704h-0.102-3e-3zm1.618-0.012c-0.385 0-0.698-0.312-0.7-0.697-1e-3 -0.387 0.31-0.702 0.697-0.704h0.101 3e-3c0.385 0 0.698 0.312 0.7 0.697 1e-3 0.387-0.31 0.702-0.697 0.704h-0.101-3e-3zm1.618-0.013c-0.384 0-0.696-0.309-0.7-0.694-3e-3 -0.386 0.307-0.703 0.693-0.707l0.101-1e-3h7e-3c0.384 0 0.696 0.31 0.7 0.694 3e-3 0.386-0.307 0.703-0.693 0.707l-0.101 1e-3h-7e-3zm1.619-0.012c-0.384 0-0.696-0.31-0.7-0.693-3e-3 -0.387 0.307-0.703 0.693-0.707l0.101-1e-3h7e-3c0.384 0 0.696 0.309 0.7 0.693 3e-3 0.387-0.307 0.703-0.693 0.707l-0.101 1e-3h-7e-3zm1.618-0.012c-0.384 0-0.696-0.309-0.7-0.693-3e-3 -0.387 0.307-0.703 0.693-0.707l0.101-1e-3h7e-3c0.384 0 0.696 0.309 0.7 0.693 3e-3 0.387-0.307 0.703-0.693 0.707l-0.101 1e-3h-7e-3zm1.617-0.013c-0.385 0-0.698-0.312-0.7-0.697-1e-3 -0.387 0.31-0.702 0.697-0.704h0.101c0.409-0.044 0.701 0.311 0.704 0.697 1e-3 0.387-0.31 0.702-0.697 0.704h-0.101-4e-3z" fill="#3E4651"/>
			
			
				<path d="m189.58 198.79c-0.384 0-0.696-0.309-0.7-0.693-3e-3 -0.387 0.307-0.703 0.693-0.707h7e-3c0.384 0 0.721 0.309 0.725 0.693 4e-3 0.386-0.281 0.703-0.668 0.707h-0.05-7e-3z" fill="#3E4651"/>
			
		
		
			<path d="m189.67 198.41c-0.383 0-0.695-0.308-0.7-0.692-5e-3 -0.387 0.305-0.704 0.691-0.708l24.092-0.288c1.019-9e-3 1.971-0.41 2.683-1.131 0.717-0.726 1.102-1.677 1.086-2.679-9e-3 -2.087-1.709-3.771-3.793-3.771h-0.016l-21.795 0.062-0.012-1.4h0.01l21.792-0.062h0.022c2.853 0 5.18 2.309 5.192 5.157 0.022 1.373-0.506 2.682-1.49 3.677-0.974 0.987-2.275 1.536-3.665 1.548l-24.089 0.288c-2e-3 -1e-3 -5e-3 -1e-3 -8e-3 -1e-3z" fill="#3E4651"/>
		
		
			<path d="m191.88 189.35c-0.058 0-0.116-7e-3 -0.175-0.022-0.375-0.096-0.6-0.478-0.503-0.852l3.306-12.866h-1.003l-3.296 5.067c-0.211 0.324-0.644 0.417-0.969 0.206-0.324-0.211-0.416-0.645-0.205-0.969l3.503-5.386c0.129-0.198 0.35-0.318 0.587-0.318h2.286c0.216 0 0.42 0.1 0.553 0.271 0.132 0.171 0.179 0.394 0.125 0.604l-3.531 13.74c-0.082 0.315-0.366 0.525-0.678 0.525z" fill="#3E4651"/>
		
		
			<path d="m173.03 198.19c-0.059 0-0.119-7e-3 -0.178-0.023-0.374-0.099-0.598-0.481-0.5-0.855l5.849-22.261c0.482-1.878 2.181-3.193 4.131-3.193h1.398c1.324 0 2.551 0.599 3.367 1.644 0.814 1.043 1.097 2.375 0.777 3.656-0.094 0.375-0.475 0.602-0.849 0.509-0.375-0.094-0.603-0.474-0.509-0.849 0.215-0.859 0.024-1.754-0.522-2.454-0.548-0.702-1.374-1.105-2.263-1.105h-1.398c-1.311 0-2.452 0.882-2.776 2.144l-5.85 22.265c-0.083 0.314-0.366 0.522-0.677 0.522z" fill="#3E4651"/>
		
	
</g>





</svg>
