<?xml version="1.0" encoding="UTF-8"?>
<svg width="100" height="100" enable-background="new 0 0 480 480" version="1.1" viewBox="0 0 100 100" xml:space="preserve" xmlns="http://www.w3.org/2000/svg" xmlns:cc="http://creativecommons.org/ns#" xmlns:dc="http://purl.org/dc/elements/1.1/" xmlns:rdf="http://www.w3.org/1999/02/22-rdf-syntax-ns#"><metadata><rdf:RDF><cc:Work rdf:about=""><dc:format>image/svg+xml</dc:format><dc:type rdf:resource="http://purl.org/dc/dcmitype/StillImage"/><dc:title/></cc:Work></rdf:RDF></metadata>



<g transform="matrix(1.2129 0 0 1.2129 -176.11 -437.3)">
	
		<path d="m186.42 442.97c-22.73 0-41.222-18.491-41.222-41.222 0-22.729 18.492-41.222 41.222-41.222 22.729 0 41.222 18.492 41.222 41.222s-18.493 41.222-41.222 41.222zm0-81.043c-21.958 0-39.822 17.864-39.822 39.821 0 21.958 17.864 39.822 39.822 39.822s39.821-17.864 39.821-39.822c0-21.957-17.863-39.821-39.821-39.821z" fill="#3E4651"/>
	
	
		
			
				<path d="m186.41 419.32c-0.738 0-1.456-0.011-2.152-0.031-8.221-0.237-13.086-1.729-13.29-1.793-0.207-0.064-0.372-0.221-0.447-0.423-0.076-0.203-0.053-0.43 0.061-0.613l5.612-9.066c-2.012-0.363-3.117-0.694-3.17-0.711-0.214-0.064-0.384-0.229-0.458-0.439s-0.042-0.445 0.086-0.629l7.22-10.404c-1.186-0.223-1.843-0.425-1.877-0.436-0.203-0.063-0.367-0.215-0.444-0.413s-0.061-0.421 0.045-0.605l8.208-14.224c0.25-0.433 0.962-0.435 1.212 0l8.22 14.224c0.106 0.185 0.124 0.407 0.046 0.605s-0.241 0.351-0.445 0.413c-0.034 0.011-0.692 0.213-1.877 0.436l7.22 10.404c0.127 0.184 0.16 0.418 0.085 0.63-0.074 0.212-0.245 0.375-0.459 0.439-0.053 0.017-1.164 0.347-3.169 0.71l5.613 9.066c0.114 0.184 0.136 0.41 0.061 0.613s-0.241 0.359-0.448 0.424c-0.203 0.063-5.079 1.555-13.3 1.792-0.696 0.021-1.414 0.031-2.153 0.031zm-14.143-2.923c1.743 0.433 5.99 1.319 12.032 1.493 1.369 0.041 2.856 0.041 4.223 0 6.043-0.174 10.297-1.062 12.042-1.493l-5.665-9.149c-0.123-0.199-0.139-0.447-0.042-0.66 0.098-0.213 0.295-0.363 0.526-0.4 1.347-0.215 2.388-0.438 3.073-0.6l-7.276-10.484c-0.138-0.198-0.163-0.454-0.067-0.676 0.096-0.223 0.299-0.379 0.538-0.416 0.801-0.12 1.445-0.25 1.91-0.354l-7.151-12.374-7.141 12.374c0.465 0.104 1.109 0.234 1.91 0.354 0.239 0.037 0.442 0.193 0.538 0.416 0.096 0.222 0.07 0.478-0.067 0.676l-7.276 10.485c0.683 0.162 1.723 0.384 3.073 0.599 0.231 0.037 0.429 0.188 0.526 0.4 0.097 0.213 0.082 0.461-0.042 0.66z" fill="#3E4651"/>
			
			
				<path d="m186.42 427.04c-1.549 0-2.354-0.372-2.44-0.414-0.24-0.117-0.393-0.362-0.393-0.629v-7.417c0-0.387 0.313-0.7 0.7-0.7s0.7 0.313 0.7 0.7v6.909c0.303 0.072 0.781 0.149 1.433 0.149s1.13-0.079 1.433-0.153v-6.905c0-0.387 0.313-0.7 0.7-0.7s0.7 0.313 0.7 0.7v7.409c0 0.266-0.15 0.509-0.388 0.627-0.087 0.043-0.893 0.424-2.445 0.424z" fill="#3E4651"/>
			
		
		
			
				
					
						<path d="m200.8 415.2c-0.362 0-0.669-0.279-0.697-0.646-0.03-0.385 0.259-0.722 0.645-0.751 3.786-0.289 6.492-0.856 7.797-1.177l-5.097-8.232c-0.123-0.199-0.139-0.447-0.042-0.66 0.098-0.213 0.295-0.363 0.526-0.4 1.16-0.185 2.07-0.375 2.69-0.52l-6.554-9.452c-0.138-0.199-0.164-0.455-0.067-0.678 0.096-0.222 0.3-0.378 0.54-0.414 0.674-0.099 1.226-0.206 1.638-0.297l-6.397-11.073-4.092 7.074c-0.193 0.335-0.622 0.449-0.957 0.255-0.334-0.193-0.449-0.621-0.255-0.956l4.699-8.123c0.125-0.216 0.356-0.35 0.606-0.35 0.25 1e-3 0.481 0.134 0.606 0.351l7.468 12.927c0.107 0.184 0.124 0.407 0.045 0.605-0.078 0.198-0.242 0.351-0.445 0.413-0.031 9e-3 -0.595 0.181-1.608 0.374l6.499 9.373c0.128 0.185 0.16 0.419 0.085 0.631-0.074 0.211-0.245 0.375-0.459 0.439-0.048 0.014-1.027 0.305-2.788 0.627l5.046 8.149c0.114 0.185 0.136 0.41 0.061 0.612-0.076 0.203-0.241 0.359-0.447 0.424-0.135 0.043-3.379 1.044-8.991 1.473-0.019 2e-3 -0.037 2e-3 -0.055 2e-3z" fill="#3E4651"/>
					
					
						<path d="m196.49 425c-1.435 0-2.174-0.354-2.253-0.396-0.235-0.119-0.383-0.36-0.383-0.624v-5.819c0-0.387 0.313-0.7 0.7-0.7s0.7 0.313 0.7 0.7v5.312c0.269 0.063 0.681 0.127 1.236 0.127 0.552 0 0.964-0.063 1.236-0.128v-5.888c0-0.387 0.313-0.7 0.7-0.7s0.7 0.313 0.7 0.7v6.396c0 0.265-0.15 0.507-0.387 0.626-0.08 0.041-0.827 0.394-2.249 0.394z" fill="#3E4651"/>
					
				
			
			
				
					
						<path d="m172.04 415.2c-0.018 0-0.036 0-0.054-2e-3 -5.612-0.429-8.856-1.43-8.991-1.473-0.206-0.064-0.371-0.221-0.447-0.424-0.075-0.202-0.053-0.428 0.061-0.612l5.046-8.149c-1.761-0.322-2.74-0.613-2.788-0.627-0.214-0.064-0.385-0.229-0.459-0.439-0.074-0.212-0.042-0.446 0.085-0.631l6.5-9.373c-1.014-0.193-1.578-0.365-1.608-0.374-0.204-0.063-0.368-0.215-0.445-0.413-0.078-0.198-0.062-0.422 0.045-0.605l7.467-12.927c0.25-0.433 0.962-0.434 1.212-1e-3l4.699 8.123c0.193 0.335 0.079 0.763-0.255 0.956-0.333 0.194-0.763 0.08-0.957-0.255l-4.092-7.074-6.397 11.073c0.412 0.091 0.964 0.198 1.638 0.297 0.239 0.036 0.443 0.192 0.54 0.414 0.097 0.223 0.071 0.479-0.067 0.678l-6.554 9.452c0.62 0.145 1.53 0.335 2.69 0.52 0.231 0.037 0.429 0.188 0.526 0.4 0.097 0.213 0.082 0.461-0.042 0.66l-5.097 8.232c1.305 0.32 4.012 0.888 7.797 1.177 0.386 0.029 0.674 0.366 0.645 0.751-0.029 0.367-0.336 0.646-0.698 0.646z" fill="#3E4651"/>
					
					
						<path d="m176.35 425c-1.421 0-2.168-0.353-2.249-0.394-0.237-0.119-0.387-0.361-0.387-0.626v-6.396c0-0.387 0.313-0.7 0.7-0.7s0.7 0.313 0.7 0.7v5.889c0.271 0.063 0.683 0.127 1.236 0.127 0.555 0 0.966-0.063 1.236-0.127v-5.312c0-0.387 0.313-0.7 0.7-0.7s0.7 0.313 0.7 0.7v5.819c0 0.264-0.148 0.505-0.383 0.624-0.079 0.041-0.819 0.396-2.253 0.396z" fill="#3E4651"/>
					
				
			
		
	
</g>













</svg>
