<?xml version="1.0" encoding="UTF-8"?>
<svg width="400" height="400" enable-background="new 0 0 2000 2000" version="1.1" viewBox="0 0 400 400" xml:space="preserve" xmlns="http://www.w3.org/2000/svg" xmlns:cc="http://creativecommons.org/ns#" xmlns:dc="http://purl.org/dc/elements/1.1/" xmlns:rdf="http://www.w3.org/1999/02/22-rdf-syntax-ns#"><metadata><rdf:RDF><cc:Work rdf:about=""><dc:format>image/svg+xml</dc:format><dc:type rdf:resource="http://purl.org/dc/dcmitype/StillImage"/><dc:title/></cc:Work></rdf:RDF></metadata>


<g transform="matrix(.30521 0 0 .30646 -105.36 -40.434)">
	<g fill="#444">
		<path d="m1296.8 333.39h-112.06c-0.829 0-1.5-0.671-1.5-1.5v-36.762c0-44.76 36.414-81.174 81.174-81.174 18.688 0 33.891 15.203 33.891 33.891v84.045c-1e-3 0.829-0.673 1.5-1.501 1.5zm-110.56-3h109.06v-82.545c0-17.033-13.857-30.891-30.891-30.891-43.105 0-78.174 35.069-78.174 78.174v35.262z"/>
		<path d="m1281.5 332.5c-0.828 0-1.5-0.671-1.5-1.5v-122h-38v6c0 0.829-0.672 1.5-1.5 1.5s-1.5-0.671-1.5-1.5v-7.5c0-0.829 0.672-1.5 1.5-1.5h41c0.828 0 1.5 0.671 1.5 1.5v123.5c0 0.829-0.672 1.5-1.5 1.5z"/>
		<path d="m1228.5 332.5c-0.828 0-1.5-0.671-1.5-1.5v-20.5c0-0.829 0.672-1.5 1.5-1.5h28.5v-34.5c0-0.829 0.672-1.5 1.5-1.5h21.5c0.828 0 1.5 0.671 1.5 1.5s-0.672 1.5-1.5 1.5h-20v34.5c0 0.829-0.672 1.5-1.5 1.5h-28.5v19c0 0.829-0.672 1.5-1.5 1.5z"/>
		<path d="m1253.1 376.66h-24.653c-24.926 0-45.205-20.279-45.205-45.206 0-0.829 0.671-1.5 1.5-1.5h112.06c0.828 0 1.5 0.671 1.5 1.5 0 24.927-20.279 45.206-45.206 45.206zm-66.833-43.706c0.792 22.582 19.409 40.706 42.18 40.706h24.653c22.771 0 41.388-18.125 42.18-40.706z"/>
		<path d="m1143.7 553.55c-39.419 0-71.487-32.069-71.487-71.487s32.068-71.488 71.487-71.488 71.487 32.07 71.487 71.488-32.068 71.487-71.487 71.487zm0-139.98c-37.765 0-68.487 30.724-68.487 68.488s30.723 68.487 68.487 68.487 68.487-30.723 68.487-68.487-30.722-68.488-68.487-68.488z"/>
		<path d="m1142.9 510.84c-15.865 0-28.772-12.907-28.772-28.772s12.907-28.773 28.772-28.773 28.772 12.908 28.772 28.773-12.907 28.772-28.772 28.772zm0-54.546c-14.212 0-25.772 11.562-25.772 25.773s11.561 25.772 25.772 25.772 25.772-11.562 25.772-25.772c0-14.211-11.561-25.773-25.772-25.773z"/>
		<path d="m1142.9 501.17c-10.533 0-19.102-8.569-19.102-19.102s8.568-19.102 19.102-19.102c10.532 0 19.102 8.569 19.102 19.102s-8.57 19.102-19.102 19.102zm0-35.204c-8.879 0-16.102 7.223-16.102 16.102 0 8.878 7.223 16.102 16.102 16.102 8.878 0 16.102-7.223 16.102-16.102-1e-3 -8.878-7.224-16.102-16.102-16.102z"/>
		<path d="m1372.5 492.51c-14.253 0-25.848-11.595-25.848-25.847s11.595-25.847 25.848-25.847c14.251 0 25.847 11.595 25.847 25.847s-11.596 25.847-25.847 25.847zm0-48.694c-12.599 0-22.848 10.25-22.848 22.847 0 12.598 10.249 22.847 22.848 22.847 12.598 0 22.847-10.249 22.847-22.847s-10.249-22.847-22.847-22.847z"/>
		<path d="m1372.5 502.64c-19.842 0-35.983-16.142-35.983-35.982s16.142-35.983 35.983-35.983c19.84 0 35.982 16.142 35.982 35.983s-16.142 35.982-35.982 35.982zm0-68.966c-18.188 0-32.983 14.796-32.983 32.983s14.796 32.982 32.983 32.982 32.982-14.796 32.982-32.982c0-18.187-14.796-32.983-32.982-32.983z"/>
		<path d="m1072.5 432.58c-0.493 0-0.991-0.065-1.48-0.196-1.467-0.393-2.692-1.333-3.451-2.648-1.567-2.714-0.634-6.197 2.081-7.764 1.314-0.76 2.848-0.96 4.313-0.568 1.467 0.393 2.691 1.333 3.451 2.648 0.759 1.315 0.961 2.846 0.567 4.313-0.393 1.466-1.333 2.692-2.647 3.451-0.877 0.506-1.849 0.764-2.834 0.764zm-0.015-8.371c-0.465 0-0.923 0.122-1.336 0.36-1.282 0.74-1.723 2.385-0.982 3.667 0.357 0.621 0.937 1.065 1.629 1.25 0.691 0.185 1.415 0.09 2.037-0.268 1.281-0.74 1.722-2.385 0.982-3.666-0.359-0.621-0.938-1.065-1.631-1.25-0.23-0.062-0.465-0.093-0.699-0.093z"/>
		<path d="m1072.5 357.18c-0.493 0-0.991-0.065-1.48-0.196-1.467-0.393-2.692-1.333-3.451-2.648s-0.96-2.846-0.567-4.313c0.393-1.466 1.333-2.692 2.648-3.451 1.314-0.759 2.846-0.96 4.313-0.568s2.691 1.333 3.451 2.648c0.759 1.315 0.961 2.846 0.567 4.313-0.393 1.466-1.333 2.692-2.647 3.451-0.877 0.505-1.849 0.764-2.834 0.764zm-0.014-8.371c-0.465 0-0.924 0.121-1.337 0.36-0.621 0.358-1.065 0.938-1.251 1.63s-0.091 1.416 0.269 2.036c0.357 0.621 0.937 1.065 1.629 1.25 0.691 0.184 1.415 0.09 2.037-0.268 0.62-0.358 1.064-0.938 1.25-1.63s0.09-1.416-0.268-2.036c-0.359-0.621-0.938-1.065-1.631-1.25-0.23-0.062-0.465-0.092-0.698-0.092z"/>
		<path d="m952.52 155.67c-0.494 0-0.991-0.065-1.48-0.196-1.466-0.393-2.692-1.333-3.451-2.648s-0.961-2.846-0.568-4.313c0.393-1.466 1.333-2.692 2.648-3.451 2.715-1.566 6.198-0.633 7.764 2.08 0.759 1.315 0.961 2.847 0.568 4.313s-1.333 2.692-2.648 3.451c-0.876 0.506-1.848 0.764-2.833 0.764zm-0.014-8.369c-0.455 0-0.916 0.116-1.337 0.359-0.621 0.358-1.065 0.938-1.25 1.63s-0.09 1.416 0.268 2.036 0.938 1.065 1.63 1.25c0.691 0.185 1.415 0.09 2.036-0.268 1.282-0.74 1.723-2.385 0.983-3.666-0.497-0.859-1.401-1.341-2.33-1.341z"/>
		<path d="m1372.5 550.46c-46.209 0-83.802-37.593-83.802-83.801s37.593-83.801 83.802-83.801c46.207 0 83.801 37.593 83.801 83.801s-37.594 83.801-83.801 83.801zm0-164.6c-44.555 0-80.802 36.247-80.802 80.801s36.247 80.801 80.802 80.801c44.554 0 80.801-36.247 80.801-80.801s-36.247-80.801-80.801-80.801z"/>
		<path d="m1083 446h-20c-0.828 0-1.5-0.671-1.5-1.5s0.672-1.5 1.5-1.5h20c0.828 0 1.5 0.671 1.5 1.5s-0.672 1.5-1.5 1.5z"/>
		<path d="m1454.8 480.9c-0.522 0-1.028-0.272-1.306-0.758-0.409-0.72-0.159-1.636 0.562-2.046l44.9-25.589c4.223-2.385 6.205-7.278 4.826-11.901l-27.178-90.969-153.5-24.77-31.283 67.27c-0.246 0.529-0.777 0.868-1.36 0.868h-88.575c-0.402 0-0.788-0.162-1.07-0.45l-23.095-23.55h-35.762v28.5c0 0.829-0.672 1.5-1.5 1.5h-40.848l-0.068 29.621c0 0.827-0.674 1.379-1.5 1.379-0.828 0-1.499-0.557-1.496-1.386l0.071-31.177c0-0.827 0.673-1.438 1.5-1.438h40.841v-28.5c0-0.829 0.672-1.5 1.5-1.5h37.891c0.403 0 0.789 0.162 1.071 0.45l23.095 23.55h86.988l31.359-67.432c0.282-0.609 0.935-0.955 1.599-0.849l155.56 25.1c0.568 0.092 1.034 0.5 1.198 1.052l27.446 91.871c1.783 5.973-0.775 12.293-6.22 15.369l-44.896 25.586c-0.234 0.135-0.489 0.199-0.74 0.199z"/>
		<path d="m1493.5 446h-40.5c-0.828 0-1.5-0.671-1.5-1.5s0.672-1.5 1.5-1.5h39v-7.5c0-0.829 0.672-1.5 1.5-1.5h10.5c0.828 0 1.5 0.671 1.5 1.5s-0.672 1.5-1.5 1.5h-9v7.5c0 0.829-0.672 1.5-1.5 1.5z"/>
		<path d="m1293 446h-89c-0.828 0-1.5-0.671-1.5-1.5s0.672-1.5 1.5-1.5h89c0.828 0 1.5 0.671 1.5 1.5s-0.672 1.5-1.5 1.5z"/>
		<path d="m1304 421h-129c-0.828 0-1.5-0.671-1.5-1.5s0.672-1.5 1.5-1.5h129c0.828 0 1.5 0.671 1.5 1.5s-0.672 1.5-1.5 1.5z"/>
		<path d="m1223.5 390.5c-0.828 0-1.5-0.671-1.5-1.5v-14c0-0.829 0.672-1.5 1.5-1.5s1.5 0.671 1.5 1.5v14c0 0.829-0.672 1.5-1.5 1.5z"/>
		<path d="m1259.5 390.5c-0.828 0-1.5-0.671-1.5-1.5v-14c0-0.829 0.672-1.5 1.5-1.5s1.5 0.671 1.5 1.5v14c0 0.829-0.672 1.5-1.5 1.5z"/>
		<path d="m1410.5 338.62c-0.252 0-0.507-0.063-0.741-0.197-0.72-0.41-0.971-1.326-0.561-2.046l7.45-13.071-5.003-2.882-15.283 15.282c-0.586 0.586-1.535 0.586-2.121 0s-0.586-1.536 0-2.121l16.096-16.095c0.479-0.48 1.222-0.579 1.809-0.239l7.294 4.201c0.716 0.412 0.964 1.325 0.555 2.042l-8.189 14.369c-0.277 0.484-0.784 0.756-1.306 0.757z"/>
		<path d="m1080 414.98c-0.829 0-1.5-0.671-1.5-1.5v-50.438c0-0.829 0.671-1.5 1.5-1.5 0.828 0 1.5 0.671 1.5 1.5v50.438c0 0.829-0.672 1.5-1.5 1.5z"/>
		<path d="m1066 414.98c-0.829 0-1.5-0.671-1.5-1.5v-50.438c0-0.829 0.671-1.5 1.5-1.5 0.828 0 1.5 0.671 1.5 1.5v50.438c0 0.829-0.671 1.5-1.5 1.5z"/>
		<path d="m1092.2 436.14c-0.52 0-1.023-0.27-1.301-0.75l-17.893-30.991-17.381 30.104c-0.414 0.718-1.33 0.965-2.049 0.549-0.717-0.414-0.963-1.332-0.549-2.049l18.68-32.354c0.268-0.464 0.763-0.75 1.299-0.75s1.031 0.286 1.299 0.75l19.191 33.241c0.414 0.718 0.168 1.635-0.549 2.05-0.235 0.135-0.493 0.2-0.747 0.2z"/>
		<path d="m1078.2 340.59c-0.518 0-1.021-0.269-1.3-0.75l-109.18-189.11c-0.415-0.717-0.168-1.635 0.549-2.049 0.719-0.415 1.635-0.169 2.049 0.549l109.18 189.11c0.415 0.717 0.169 1.635-0.549 2.049-0.236 0.137-0.494 0.202-0.749 0.202z"/>
		<path d="m1059.5 351.42c-0.519 0-1.022-0.269-1.301-0.75l-105.33-182.44c-0.415-0.717-0.168-1.635 0.549-2.048 0.718-0.415 1.635-0.169 2.049 0.548l105.33 182.44c0.415 0.717 0.169 1.635-0.549 2.049-0.237 0.136-0.494 0.201-0.748 0.201z"/>
		<path d="m868.47 400.88c-0.133 0-0.269-0.018-0.403-0.056-0.798-0.222-1.265-1.049-1.042-1.847l68.143-244.64c0.222-0.798 1.05-1.264 1.847-1.042 0.798 0.222 1.265 1.049 1.042 1.847l-68.143 244.64c-0.185 0.663-0.788 1.098-1.444 1.098z"/>
		<path d="m884.24 405.27c-0.133 0-0.269-0.018-0.403-0.056-0.798-0.222-1.265-1.049-1.042-1.847l65.919-236.66c0.222-0.798 1.051-1.265 1.847-1.042 0.798 0.222 1.265 1.049 1.042 1.847l-65.919 236.66c-0.185 0.664-0.788 1.098-1.444 1.098z"/>
		<path d="m1072.5 366c-7.994 0-14.496-6.503-14.496-14.496s6.502-14.496 14.496-14.496c7.992 0 14.495 6.503 14.495 14.496s-6.503 14.496-14.495 14.496zm0-25.993c-6.34 0-11.496 5.157-11.496 11.496s5.156 11.496 11.496 11.496c6.338 0 11.495-5.157 11.495-11.496s-5.157-11.496-11.495-11.496z"/>
		<path d="m952.51 168.03c-9.95 0-18.045-8.095-18.045-18.045s8.095-18.045 18.045-18.045 18.045 8.095 18.045 18.045-8.095 18.045-18.045 18.045zm0-33.091c-8.296 0-15.045 6.749-15.045 15.045s6.749 15.045 15.045 15.045 15.045-6.75 15.045-15.045-6.749-15.045-15.045-15.045z"/>
		<path d="m1220 347h-21c-0.828 0-1.5-0.671-1.5-1.5s0.672-1.5 1.5-1.5h21c0.828 0 1.5 0.671 1.5 1.5s-0.672 1.5-1.5 1.5z"/>
		<path d="m825.12 492.59c-0.453 0-0.901-0.205-1.196-0.594-4.095-5.402-17.214-24.47-14.089-43.013 4.346-25.787 27.313-44.72 53.407-44.02 0.828 0.022 1.482 0.711 1.46 1.539-0.022 0.829-0.744 1.491-1.539 1.46-24.66-0.66-46.27 17.198-50.37 41.52-0.739 4.388-1.95 20.291 13.521 40.701 0.5 0.66 0.371 1.601-0.289 2.102-0.271 0.206-0.589 0.305-0.905 0.305z"/>
		<path d="m879.86 506.74c-0.57 0-1.115-0.327-1.366-0.879-0.343-0.754-0.01-1.644 0.744-1.987 13.698-6.235 28.839-20.353 31.786-37.837 3.722-22.085-7.854-44.074-28.153-53.474-0.751-0.348-1.079-1.24-0.731-1.992 0.349-0.75 1.24-1.077 1.992-0.731 21.521 9.967 33.796 33.28 29.85 56.695-3.13 18.569-19.081 33.505-33.5 40.069-0.203 0.093-0.414 0.136-0.622 0.136z"/>
		<path d="m825.12 492.59c-0.469 0-0.931-0.219-1.224-0.63-7.763-10.915-10.775-24.42-8.481-38.029 4.048-24.016 23.653-41.578 46.617-41.758h0.012c0.823 0 1.494 0.664 1.5 1.488 6e-3 0.829-0.66 1.505-1.488 1.512-21.506 0.168-39.877 16.679-43.683 39.257-2.161 12.818 0.669 25.529 7.968 35.791 0.48 0.675 0.322 1.612-0.353 2.092-0.264 0.186-0.568 0.277-0.868 0.277z"/>
		<path d="m879.86 506.74c-0.554 0-1.087-0.309-1.348-0.84-0.364-0.744-0.057-1.643 0.687-2.007 13.381-6.557 22.91-19.61 25.49-34.916 3.422-20.307-6.294-40.604-23.628-49.361-0.739-0.374-1.036-1.276-0.663-2.015 0.374-0.739 1.277-1.035 2.015-0.663 18.497 9.343 28.873 30.948 25.234 52.538-2.74 16.257-12.881 30.13-27.127 37.112-0.213 0.103-0.438 0.152-0.66 0.152z"/>
		</g><path d="m879.89 497.02" fill="none" stroke="#444" stroke-linecap="round" stroke-linejoin="round" stroke-miterlimit="10" stroke-width="3"/><g fill="#444">
		<path d="m1268.5 405h-55c-0.828 0-1.5-0.671-1.5-1.5v-11.5c0-0.829 0.672-1.5 1.5-1.5s1.5 0.671 1.5 1.5v10h52v-10c0-0.829 0.672-1.5 1.5-1.5s1.5 0.671 1.5 1.5v11.5c0 0.829-0.672 1.5-1.5 1.5z"/>
		<path d="m1097 415h-16c-0.828 0-1.5-0.671-1.5-1.5s0.672-1.5 1.5-1.5h16c0.828 0 1.5 0.671 1.5 1.5s-0.672 1.5-1.5 1.5z"/>
		<path d="m1064 414h-52c-0.828 0-1.5-0.671-1.5-1.5s0.672-1.5 1.5-1.5h52c0.828 0 1.5 0.671 1.5 1.5s-0.672 1.5-1.5 1.5z"/>
		<path d="m1213.7 266.53c-0.384 0-0.768-0.146-1.061-0.439-0.586-0.586-0.586-1.536 0-2.121l12.302-12.301c0.586-0.586 1.535-0.586 2.121 0s0.586 1.536 0 2.121l-12.302 12.301c-0.292 0.292-0.676 0.439-1.06 0.439z"/>
		<path d="m1202.6 278.83c-0.384 0-0.768-0.146-1.061-0.439-0.586-0.585-0.586-1.536 0-2.121l6.159-6.16c0.587-0.585 1.536-0.585 2.121 0 0.587 0.585 0.587 1.536 0 2.121l-6.159 6.16c-0.293 0.293-0.677 0.439-1.06 0.439z"/>
		<path d="m1423.7 532.6c-0.385 0-0.768-0.146-1.061-0.439l-9.993-9.992c-0.585-0.585-0.585-1.536 0-2.121 0.587-0.586 1.536-0.586 2.122 0l9.992 9.992c0.585 0.585 0.585 1.536 0 2.121-0.294 0.293-0.677 0.439-1.06 0.439z"/>
		<path d="m1429.6 526.73c-0.384 0-0.768-0.146-1.061-0.439l-9.992-9.992c-0.586-0.585-0.586-1.536 0-2.121 0.586-0.586 1.535-0.586 2.121 0l9.992 9.992c0.586 0.585 0.586 1.536 0 2.121-0.292 0.293-0.676 0.439-1.06 0.439z"/>
		<path d="m1435.4 520.87c-0.384 0-0.768-0.146-1.061-0.439l-9.992-9.992c-0.586-0.585-0.586-1.536 0-2.121 0.586-0.586 1.535-0.586 2.121 0l9.992 9.992c0.586 0.586 0.586 1.536 0 2.121-0.292 0.293-0.676 0.439-1.06 0.439z"/>
		<path d="m1190.7 534.79c-0.384 0-0.768-0.146-1.061-0.439l-9.992-9.993c-0.586-0.585-0.586-1.536 0-2.121 0.586-0.586 1.535-0.586 2.121 0l9.992 9.992c0.586 0.585 0.586 1.536 0 2.122-0.292 0.293-0.676 0.439-1.06 0.439z"/>
		<path d="m1196.6 528.93c-0.385 0-0.769-0.146-1.061-0.439l-9.992-9.992c-0.587-0.585-0.587-1.536 0-2.121 0.586-0.586 1.534-0.586 2.121 0l9.992 9.992c0.586 0.585 0.586 1.536 0 2.121-0.292 0.292-0.677 0.439-1.06 0.439z"/>
		</g><g fill="#444">
			<path d="m1003.7 553.55c-39.418 0-71.487-32.069-71.487-71.487s32.069-71.488 71.487-71.488c39.419 0 71.488 32.07 71.488 71.488 1e-3 39.418-32.069 71.487-71.488 71.487zm0-139.98c-37.764 0-68.487 30.724-68.487 68.488s30.724 68.487 68.487 68.487c37.765 0 68.488-30.723 68.488-68.487s-30.723-68.488-68.488-68.488z"/>
			<path d="m1003.7 501.17c-10.532 0-19.102-8.569-19.102-19.102s8.569-19.102 19.102-19.102 19.102 8.569 19.102 19.102-8.568 19.102-19.102 19.102zm0-35.204c-8.878 0-16.102 7.223-16.102 16.102 0 8.878 7.223 16.102 16.102 16.102s16.102-7.223 16.102-16.102c0-8.878-7.223-16.102-16.102-16.102z"/>
			<path d="m1003.7 510.84c-15.865 0-28.772-12.907-28.772-28.772s12.908-28.773 28.772-28.773c15.865 0 28.773 12.908 28.773 28.773s-12.907 28.772-28.773 28.772zm0-54.546c-14.211 0-25.772 11.562-25.772 25.773s11.562 25.772 25.772 25.772 25.773-11.562 25.773-25.772c1e-3 -14.211-11.562-25.773-25.773-25.773z"/>
			<path d="m1050.7 533.33c-0.384 0-0.768-0.146-1.061-0.439l-9.992-9.992c-0.586-0.585-0.586-1.536 0-2.121 0.586-0.586 1.535-0.586 2.121 0l9.992 9.992c0.586 0.585 0.586 1.536 0 2.121-0.292 0.293-0.676 0.439-1.06 0.439z"/>
			<path d="m1056.6 527.47c-0.384 0-0.767-0.146-1.06-0.439l-9.992-9.992c-0.586-0.585-0.586-1.535 0-2.121s1.535-0.586 2.121 0l9.992 9.992c0.586 0.585 0.586 1.535 0 2.121-0.292 0.292-0.677 0.439-1.061 0.439z"/>
		</g><g fill="#444">
		<path d="m880.98 421.01c-0.131 0-0.264-0.018-0.397-0.054l-18.498-5.062c-0.384-0.105-0.71-0.358-0.907-0.704s-0.249-0.755-0.144-1.139l4.226-15.441c0.105-0.384 0.358-0.71 0.704-0.907s0.755-0.248 1.139-0.144l18.498 5.063c0.799 0.219 1.27 1.043 1.051 1.843l-4.226 15.44c-0.182 0.667-0.786 1.105-1.446 1.105zm-16.655-7.613 15.604 4.27 3.434-12.547-15.604-4.271z"/>
		<path d="m992.45 210.55c-0.513 0-1.012-0.263-1.292-0.735l-5.527-9.327c-0.422-0.712-0.187-1.632 0.526-2.055 0.714-0.422 1.633-0.186 2.055 0.526l5.527 9.327c0.422 0.712 0.187 1.633-0.526 2.055-0.239 0.142-0.503 0.209-0.763 0.209z"/>
		<path d="m1028.4 270.29c-0.505 0-0.997-0.254-1.28-0.716l-14.855-24.253c-0.433-0.707-0.211-1.63 0.496-2.063 0.706-0.432 1.629-0.21 2.063 0.496l14.855 24.253c0.432 0.707 0.21 1.63-0.496 2.063-0.245 0.149-0.517 0.22-0.783 0.22z"/>
	</g>
	<g fill="#444">
		<path d="m716.77 1194.2c-0.384 0-0.768-0.146-1.061-0.439-0.586-0.586-0.586-1.535 0-2.121l14.38-14.38c0.586-0.586 1.535-0.586 2.121 0s0.586 1.535 0 2.121l-14.38 14.38c-0.292 0.293-0.676 0.439-1.06 0.439z"/>
		<path d="m703.89 1208.5c-0.384 0-0.768-0.146-1.061-0.439-0.586-0.586-0.586-1.535 0-2.121l7.2-7.2c0.586-0.586 1.535-0.586 2.121 0s0.586 1.535 0 2.121l-7.2 7.2c-0.293 0.293-0.677 0.439-1.06 0.439z"/>
		
			<path d="m864.51 1437.2c-27.535 0-49.937-22.401-49.937-49.937s22.401-49.937 49.937-49.937 49.937 22.401 49.937 49.937-22.402 49.937-49.937 49.937zm0-96.873c-25.881 0-46.937 21.056-46.937 46.937s21.056 46.937 46.937 46.937 46.937-21.056 46.937-46.937-21.056-46.937-46.937-46.937z"/>
			<path d="m864.51 1400.9c-7.544 0-13.682-6.138-13.682-13.682s6.138-13.682 13.682-13.682 13.682 6.138 13.682 13.682-6.138 13.682-13.682 13.682zm0-24.363c-5.89 0-10.682 4.792-10.682 10.682s4.792 10.682 10.682 10.682 10.682-4.792 10.682-10.682-4.793-10.682-10.682-10.682z"/>
			<path d="m864.51 1407.6c-11.234 0-20.375-9.14-20.375-20.374s9.14-20.375 20.375-20.375 20.375 9.141 20.375 20.375-9.141 20.374-20.375 20.374zm0-37.749c-9.581 0-17.375 7.794-17.375 17.375 0 9.58 7.794 17.374 17.375 17.374s17.375-7.794 17.375-17.374c-1e-3 -9.582-7.795-17.375-17.375-17.375z"/>
			<path d="m897.08 1423.2c-0.384 0-0.768-0.146-1.061-0.439l-6.916-6.915c-0.586-0.586-0.586-1.535 0-2.121s1.535-0.586 2.121 0l6.916 6.915c0.586 0.586 0.586 1.535 0 2.121-0.292 0.293-0.676 0.439-1.06 0.439z"/>
			<path d="m901.14 1419.1c-0.384 0-0.768-0.146-1.061-0.439l-6.915-6.915c-0.586-0.586-0.586-1.535 0-2.121s1.535-0.586 2.121 0l6.915 6.915c0.586 0.586 0.586 1.535 0 2.121-0.293 0.293-0.676 0.439-1.06 0.439z"/>
		
		
			<path d="m969.87 1437.2c-27.535 0-49.936-22.401-49.936-49.937s22.401-49.937 49.936-49.937 49.936 22.401 49.936 49.937-22.401 49.937-49.936 49.937zm0-96.873c-25.881 0-46.936 21.056-46.936 46.937s21.055 46.937 46.936 46.937 46.936-21.056 46.936-46.937-21.055-46.937-46.936-46.937z"/>
			<path d="m969.87 1400.9c-7.544 0-13.682-6.138-13.682-13.682s6.138-13.682 13.682-13.682 13.682 6.138 13.682 13.682-6.138 13.682-13.682 13.682zm0-24.363c-5.89 0-10.682 4.792-10.682 10.682s4.792 10.682 10.682 10.682 10.682-4.792 10.682-10.682-4.792-10.682-10.682-10.682z"/>
			<path d="m969.87 1407.6c-11.234 0-20.375-9.14-20.375-20.374s9.14-20.375 20.375-20.375 20.375 9.141 20.375 20.375-9.14 20.374-20.375 20.374zm0-37.749c-9.581 0-17.375 7.794-17.375 17.375 0 9.58 7.794 17.374 17.375 17.374s17.375-7.794 17.375-17.374c0-9.582-7.795-17.375-17.375-17.375z"/>
			<path d="m1002.4 1423.2c-0.383 0-0.768-0.146-1.061-0.439l-6.915-6.915c-0.586-0.586-0.586-1.535 0-2.121s1.535-0.586 2.121 0l6.915 6.915c0.586 0.586 0.586 1.535 0 2.121-0.293 0.293-0.676 0.439-1.06 0.439z"/>
			<path d="m1006.5 1419.1c-0.384 0-0.768-0.146-1.061-0.439l-6.916-6.915c-0.586-0.586-0.586-1.535 0-2.121s1.535-0.586 2.121 0l6.916 6.915c0.586 0.586 0.586 1.535 0 2.121-0.292 0.293-0.676 0.439-1.06 0.439z"/>
		
		
			<path d="m1075.2 1437.2c-27.535 0-49.938-22.401-49.938-49.937s22.402-49.937 49.938-49.937 49.936 22.401 49.936 49.937-22.401 49.937-49.936 49.937zm0-96.873c-25.881 0-46.938 21.056-46.938 46.937s21.057 46.937 46.938 46.937 46.936-21.056 46.936-46.937-21.055-46.937-46.936-46.937z"/>
			<path d="m1075.2 1400.9c-7.545 0-13.682-6.138-13.682-13.682s6.137-13.682 13.682-13.682c7.543 0 13.682 6.138 13.682 13.682s-6.139 13.682-13.682 13.682zm0-24.363c-5.891 0-10.682 4.792-10.682 10.682s4.791 10.682 10.682 10.682c5.889 0 10.682-4.792 10.682-10.682s-4.794-10.682-10.682-10.682z"/>
			<path d="m1075.2 1407.6c-11.234 0-20.375-9.14-20.375-20.374s9.141-20.375 20.375-20.375c11.233 0 20.374 9.141 20.374 20.375s-9.141 20.374-20.374 20.374zm0-37.749c-9.581 0-17.375 7.794-17.375 17.375 0 9.58 7.794 17.374 17.375 17.374 9.58 0 17.374-7.794 17.374-17.374 0-9.582-7.794-17.375-17.374-17.375z"/>
			<path d="m1107.8 1423.2c-0.385 0-0.769-0.146-1.061-0.439l-6.916-6.915c-0.586-0.586-0.586-1.535 0-2.121s1.535-0.586 2.121 0l6.916 6.915c0.586 0.586 0.586 1.535 0 2.121-0.292 0.293-0.677 0.439-1.06 0.439z"/>
			<path d="m1111.8 1419.1c-0.385 0-0.768-0.146-1.061-0.439l-6.916-6.915c-0.586-0.586-0.586-1.535 0-2.121s1.535-0.586 2.121 0l6.916 6.915c0.585 0.586 0.585 1.535 0 2.121-0.294 0.293-0.677 0.439-1.06 0.439z"/>
		
		
			<path d="m1180.6 1437.2c-27.535 0-49.936-22.401-49.936-49.937s22.4-49.937 49.936-49.937 49.937 22.401 49.937 49.937-22.402 49.937-49.937 49.937zm0-96.873c-25.881 0-46.936 21.056-46.936 46.937s21.055 46.937 46.936 46.937 46.937-21.056 46.937-46.937-21.056-46.937-46.937-46.937z"/>
			<path d="m1180.6 1400.9c-7.543 0-13.682-6.138-13.682-13.682s6.139-13.682 13.682-13.682c7.544 0 13.682 6.138 13.682 13.682s-6.138 13.682-13.682 13.682zm0-24.363c-5.889 0-10.682 4.792-10.682 10.682s4.793 10.682 10.682 10.682c5.89 0 10.682-4.792 10.682-10.682s-4.792-10.682-10.682-10.682z"/>
			<path d="m1180.6 1407.6c-11.234 0-20.375-9.14-20.375-20.374s9.141-20.375 20.375-20.375 20.375 9.141 20.375 20.375-9.14 20.374-20.375 20.374zm0-37.749c-9.58 0-17.375 7.794-17.375 17.375 0 9.58 7.795 17.374 17.375 17.374 9.581 0 17.375-7.794 17.375-17.374 0-9.582-7.794-17.375-17.375-17.375z"/>
			<path d="m1213.1 1423.2c-0.384 0-0.768-0.146-1.061-0.439l-6.915-6.915c-0.586-0.586-0.586-1.535 0-2.121s1.535-0.586 2.121 0l6.915 6.915c0.586 0.586 0.586 1.535 0 2.121-0.293 0.293-0.676 0.439-1.06 0.439z"/>
			<path d="m1217.2 1419.1c-0.383 0-0.768-0.146-1.061-0.439l-6.915-6.915c-0.586-0.586-0.586-1.535 0-2.121s1.535-0.586 2.121 0l6.915 6.915c0.586 0.586 0.586 1.535 0 2.121-0.292 0.293-0.675 0.439-1.06 0.439z"/>
		
		<path d="m897.71 1138.9c-0.501 0-0.991-0.251-1.275-0.707l-6.698-10.76c-0.438-0.703-0.223-1.629 0.481-2.066s1.628-0.222 2.066 0.48l6.698 10.76c0.438 0.703 0.223 1.629-0.481 2.066-0.246 0.153-0.52 0.227-0.791 0.227z"/>
		<path d="m826.53 1323.1h-87.788c-39.095 0-70.901-31.807-70.901-70.901v-51.616c0-36.814 29.951-66.766 66.766-66.766h91.923c20.484 0 37.15 16.665 37.15 37.149v114.98c0 20.485-16.666 37.15-37.15 37.15zm-91.923-186.28c-35.161 0-63.766 28.605-63.766 63.766v51.616c0 37.441 30.46 67.901 67.901 67.901h87.788c18.83 0 34.15-15.319 34.15-34.149v-114.98c0-18.83-15.32-34.149-34.15-34.149z"/>
		<path d="m848.57 1255.6h-164.25c-0.829 0-1.5-0.672-1.5-1.5v-58.174c0-26.538 21.59-48.128 48.128-48.128h98.09c11.596 0 21.03 9.435 21.03 21.03v85.271c0 0.829-0.672 1.501-1.5 1.501zm-162.75-3h161.25v-83.771c0-9.942-8.088-18.03-18.03-18.03h-98.09c-24.884 0-45.128 20.244-45.128 45.128z"/>
		<path d="m801.5 1320.5c-0.829 0-1.5-0.672-1.5-1.5v-169c0-0.828 0.671-1.5 1.5-1.5s1.5 0.672 1.5 1.5v169c0 0.828-0.671 1.5-1.5 1.5z"/>
		<path d="m788.5 1281.5c-0.829 0-1.5-0.672-1.5-1.5v-14c0-0.828 0.671-1.5 1.5-1.5s1.5 0.672 1.5 1.5v14c0 0.828-0.671 1.5-1.5 1.5z"/>
		<path d="m677.87 1369h-8.369c-0.829 0-1.5-0.672-1.5-1.5v-46c0-0.828 0.671-1.5 1.5-1.5h188c0.829 0 1.5 0.672 1.5 1.5v7.248c0 0.403-0.162 0.789-0.45 1.071-0.288 0.283-0.692 0.404-1.08 0.429-1.179-0.026-118.32-2.091-164.48 23.104-9.661 5.273-13.696 14.638-13.735 14.731-0.235 0.556-0.78 0.917-1.383 0.917zm-6.869-3h5.916c1.329-2.667 5.792-10.456 14.633-15.281 19.703-10.754 53.64-17.972 100.87-21.453 30.565-2.253 57.06-2.117 63.582-2.039v-4.227h-185z"/>
		<path d="m1232.8 1323h-338.3c-0.829 0-1.5-0.672-1.5-1.5v-172.18l-19.152-30.009c-0.294-0.462-0.314-1.047-0.051-1.527s0.768-0.779 1.315-0.779h57.388c0.829 0 1.5 0.672 1.5 1.5v150.5h326.55c0.529 0 1.02 0.278 1.29 0.733s0.281 1.019 0.027 1.483l-27.75 51c-0.261 0.483-0.767 0.784-1.317 0.784zm-336.8-3h335.91l26.118-48h-325.52c-0.829 0-1.5-0.672-1.5-1.5v-150.5h-53.15l17.915 28.071c0.154 0.24 0.235 0.521 0.235 0.807z"/>
		<path d="m785.5 1358h-34c-0.829 0-1.5-0.672-1.5-1.5v-20.5c0-0.828 0.671-1.5 1.5-1.5s1.5 0.672 1.5 1.5v19h31v-22c0-0.828 0.671-1.5 1.5-1.5s1.5 0.672 1.5 1.5v23.5c0 0.828-0.671 1.5-1.5 1.5z"/>
		<path d="m1181.4 1437.2h-317.62c-27.104 0-49.155-22.092-49.155-49.246 0-27.916 22.669-50.627 50.534-50.627h316.24c27.104 0 49.155 22.091 49.155 49.245v1.382c1e-3 27.154-22.05 49.246-49.154 49.246zm-316.24-96.873c-26.21 0-47.534 21.365-47.534 47.627 0 25.5 20.705 46.246 46.155 46.246h317.62c25.45 0 46.155-20.746 46.155-46.246v-1.382c0-25.5-20.705-46.245-46.155-46.245z"/>
		<path d="m1089.3 1340h-14.135c-0.693 0-1.295-0.475-1.458-1.148-0.162-0.674 0.158-1.371 0.775-1.688l33.239-17c0.211-0.107 0.445-0.164 0.683-0.164h15.122c0.697 0 1.302 0.479 1.461 1.157s-0.17 1.376-0.793 1.687l-34.227 17c-0.207 0.102-0.435 0.156-0.667 0.156zm-7.907-3h7.556l28.187-14h-8.369z"/>
		<path d="m816.08 1382.9c-0.116 0-0.234-0.014-0.352-0.041l-123.78-29.714c-0.806-0.193-1.302-1.004-1.108-1.81s1.006-1.295 1.809-1.108l123.78 29.714c0.806 0.193 1.302 1.004 1.108 1.81-0.165 0.687-0.78 1.149-1.457 1.149z"/>
		<path d="m817.88 1376.2c-0.116 0-0.234-0.014-0.352-0.041l-113.59-27.268c-0.806-0.193-1.302-1.004-1.108-1.81s1.004-1.296 1.809-1.108l113.59 27.268c0.806 0.193 1.302 1.004 1.108 1.81-0.165 0.687-0.779 1.149-1.457 1.149z"/>
	</g>
	<g fill="#444">
		<path d="m435.44 596.72c-0.384 0-0.768-0.146-1.061-0.439-0.586-0.586-0.586-1.536 0-2.121l12.349-12.348c0.586-0.586 1.535-0.586 2.121 0s0.586 1.536 0 2.121l-12.349 12.348c-0.293 0.292-0.677 0.439-1.06 0.439z"/>
		<path d="m424.38 609.06c-0.384 0-0.768-0.146-1.061-0.439-0.586-0.585-0.586-1.536 0-2.121l6.183-6.183c0.586-0.586 1.535-0.586 2.121 0 0.586 0.585 0.586 1.536 0 2.121l-6.183 6.183c-0.292 0.292-0.676 0.439-1.06 0.439z"/>
		
			<path d="m515.1 807.6c-27.744 0-50.315-22.571-50.315-50.315s22.571-50.315 50.315-50.315 50.315 22.571 50.315 50.315-22.571 50.315-50.315 50.315zm0-97.63c-26.089 0-47.315 21.226-47.315 47.315 0 26.09 21.226 47.315 47.315 47.315s47.315-21.226 47.315-47.315c0-26.09-21.226-47.315-47.315-47.315z"/>
			<path d="m515.1 771.06c-7.597 0-13.777-6.18-13.777-13.777s6.18-13.777 13.777-13.777 13.777 6.18 13.777 13.777-6.18 13.777-13.777 13.777zm0-24.553c-5.942 0-10.777 4.834-10.777 10.777s4.834 10.777 10.777 10.777 10.777-4.834 10.777-10.777-4.835-10.777-10.777-10.777z"/>
			<path d="m515.1 777.81c-11.316 0-20.522-9.207-20.522-20.522s9.207-20.522 20.522-20.522 20.522 9.206 20.522 20.522-9.206 20.522-20.522 20.522zm0-38.044c-9.662 0-17.522 7.86-17.522 17.522s7.86 17.522 17.522 17.522 17.522-7.86 17.522-17.522-7.86-17.522-17.522-17.522z"/>
			<path d="m547.92 793.5c-0.384 0-0.768-0.146-1.061-0.439l-6.969-6.969c-0.586-0.585-0.586-1.536 0-2.121 0.586-0.586 1.535-0.586 2.121 0l6.969 6.969c0.586 0.586 0.586 1.536 0 2.121-0.293 0.293-0.676 0.439-1.06 0.439z"/>
			<path d="m552.01 789.41c-0.384 0-0.768-0.146-1.061-0.439l-6.969-6.97c-0.586-0.586-0.586-1.536 0-2.121 0.586-0.586 1.535-0.586 2.121 0l6.969 6.97c0.586 0.586 0.586 1.536 0 2.121-0.292 0.292-0.676 0.439-1.06 0.439z"/>
		
		
			<path d="m776.22 809.07c-27.744 0-50.315-22.571-50.315-50.315s22.571-50.315 50.315-50.315 50.315 22.571 50.315 50.315-22.571 50.315-50.315 50.315zm0-97.63c-26.089 0-47.315 21.226-47.315 47.315s21.226 47.315 47.315 47.315 47.315-21.226 47.315-47.315-21.225-47.315-47.315-47.315z"/>
			<path d="m776.22 772.54c-7.597 0-13.777-6.18-13.777-13.777s6.18-13.777 13.777-13.777 13.777 6.18 13.777 13.777-6.18 13.777-13.777 13.777zm0-24.554c-5.942 0-10.777 4.834-10.777 10.777s4.834 10.777 10.777 10.777 10.777-4.834 10.777-10.777-4.834-10.777-10.777-10.777z"/>
			<path d="m776.22 779.28c-11.316 0-20.522-9.207-20.522-20.522s9.207-20.522 20.522-20.522 20.522 9.206 20.522 20.522-9.206 20.522-20.522 20.522zm0-38.044c-9.662 0-17.522 7.86-17.522 17.522s7.86 17.522 17.522 17.522 17.522-7.86 17.522-17.522-7.86-17.522-17.522-17.522z"/>
			<path d="m809.04 794.97c-0.384 0-0.768-0.146-1.061-0.439l-6.969-6.969c-0.586-0.585-0.586-1.536 0-2.121 0.586-0.586 1.535-0.586 2.121 0l6.969 6.969c0.586 0.585 0.586 1.536 0 2.121-0.292 0.293-0.676 0.439-1.06 0.439z"/>
			<path d="m813.12 790.88c-0.384 0-0.768-0.146-1.061-0.439l-6.969-6.969c-0.586-0.585-0.586-1.536 0-2.121 0.586-0.586 1.535-0.586 2.121 0l6.969 6.969c0.586 0.585 0.586 1.536 0 2.121-0.292 0.293-0.676 0.439-1.06 0.439z"/>
		
		
			<path d="m879.19 809.81c-27.744 0-50.315-22.571-50.315-50.315s22.571-50.315 50.315-50.315 50.315 22.571 50.315 50.315c0 27.743-22.571 50.315-50.315 50.315zm0-97.631c-26.089 0-47.315 21.226-47.315 47.315s21.226 47.315 47.315 47.315 47.315-21.226 47.315-47.315-21.225-47.315-47.315-47.315z"/>
			<path d="m879.19 773.27c-7.597 0-13.777-6.18-13.777-13.777s6.18-13.777 13.777-13.777 13.777 6.18 13.777 13.777-6.18 13.777-13.777 13.777zm0-24.553c-5.942 0-10.777 4.834-10.777 10.777s4.834 10.777 10.777 10.777 10.777-4.834 10.777-10.777-4.834-10.777-10.777-10.777z"/>
			<path d="m879.19 780.02c-11.316 0-20.522-9.206-20.522-20.522s9.207-20.522 20.522-20.522 20.522 9.207 20.522 20.522-9.206 20.522-20.522 20.522zm0-38.045c-9.662 0-17.522 7.86-17.522 17.522s7.86 17.522 17.522 17.522 17.522-7.86 17.522-17.522c0-9.661-7.86-17.522-17.522-17.522z"/>
			<path d="m912.01 795.7c-0.384 0-0.768-0.146-1.061-0.439l-6.969-6.969c-0.586-0.585-0.586-1.536 0-2.121 0.586-0.586 1.535-0.586 2.121 0l6.969 6.969c0.586 0.585 0.586 1.536 0 2.121-0.292 0.292-0.676 0.439-1.06 0.439z"/>
			<path d="m916.1 791.62c-0.384 0-0.768-0.146-1.061-0.439l-6.969-6.969c-0.586-0.585-0.586-1.536 0-2.121 0.586-0.586 1.535-0.586 2.121 0l6.969 6.969c0.586 0.585 0.586 1.536 0 2.121-0.293 0.293-0.677 0.439-1.06 0.439z"/>
		
		<path d="m537.77 695.5h-167.25c-0.829 0-1.5-0.671-1.5-1.5v-63.8c0-0.829 0.671-1.5 1.5-1.5h167.25c0.829 0 1.5 0.671 1.5 1.5v63.8c0 0.828-0.671 1.5-1.5 1.5zm-165.75-3h164.25v-60.8h-164.25z"/>
		<path d="m537.77 631.7h-148.82c-0.484 0-0.938-0.233-1.22-0.627s-0.356-0.899-0.2-1.357l23.621-69.29c0.208-0.607 0.778-1.016 1.42-1.016h125.2c0.829 0 1.5 0.671 1.5 1.5v69.29c-1e-3 0.828-0.672 1.5-1.501 1.5zm-146.72-3h145.22v-66.29h-122.63z"/>
		<path d="m465.46 733.92h-104.5c-0.829 0-1.5-0.671-1.5-1.5v-38.425c0-0.829 0.671-1.5 1.5-1.5h9.557c0.829 0 1.5 0.671 1.5 1.5s-0.671 1.5-1.5 1.5h-8.057v35.425h102.26l21.939-28.385c0.507-0.654 1.448-0.776 2.104-0.27 0.655 0.507 0.776 1.449 0.27 2.104l-22.39 28.968c-0.283 0.368-0.721 0.583-1.186 0.583z"/>
		<path d="m959.78 695.5h-391.67c-0.829 0-1.5-0.671-1.5-1.5v-10.042c0-0.829 0.671-1.5 1.5-1.5h391.67c0.829 0 1.5 0.671 1.5 1.5v10.042c0 0.828-0.671 1.5-1.5 1.5zm-390.17-3h388.67v-7.042h-388.67z"/>
		<path d="m699.82 745.42h-110c-0.829 0-1.5-0.671-1.5-1.5v-49.93c0-0.829 0.671-1.5 1.5-1.5h110c0.829 0 1.5 0.671 1.5 1.5v49.93c0 0.829-0.672 1.5-1.5 1.5zm-108.5-3h107v-46.93h-107z"/>
		<path d="m567.5 735h-0.022l-2.935-0.271c-0.462-7e-3 -0.896-0.34-1.174-0.708l-22.243-29.452c-0.5-0.661-0.37-1.63 0.291-2.13s1.601-0.384 2.102 0.276l21.801 28.805 0.68 3e-3v-184.52h-159.49l-28.835 82.709c-0.272 0.783-1.129 1.195-1.91 0.923-0.782-0.273-1.195-1.128-0.923-1.91l29.186-83.716c0.21-0.603 0.778-1.006 1.417-1.006h162.06c0.829 0 1.5 0.671 1.5 1.5v187.54c0 0.402-0.161 1.014-0.447 1.295-0.281 0.278-0.659 0.66-1.053 0.66z"/>
		<path d="m542 704h-54c-0.829 0-1.5-0.671-1.5-1.5s0.671-1.5 1.5-1.5h54c0.829 0 1.5 0.671 1.5 1.5s-0.671 1.5-1.5 1.5z"/>
		<path d="m405.32 547.72c-0.169 0-0.341-0.029-0.51-0.09-0.779-0.281-1.183-1.141-0.901-1.92l2.597-7.188c1.765-5.166 6.722-8.52 12.62-8.52h136.36c7.703 0 13.511 5.44 13.511 12.653v3.348c0 0.829-0.671 1.5-1.5 1.5s-1.5-0.671-1.5-1.5v-3.347c0-5.503-4.519-9.653-10.511-9.653h-136.36c-4.666 0-8.417 2.496-9.79 6.514l-2.605 7.212c-0.221 0.611-0.797 0.991-1.411 0.991z"/>
		<path d="m729.5 732.74c-0.155 0-0.312-0.024-0.464-0.074-0.618-0.201-1.036-0.777-1.036-1.426v-36.236c0-0.829 0.671-1.5 1.5-1.5s1.5 0.671 1.5 1.5v31.626l18.204-25.009c0.282-0.388 0.733-0.617 1.213-0.617h153.51c0.471 0 0.915 0.221 1.198 0.598l18.874 25.069v-31.667c0-0.829 0.671-1.5 1.5-1.5s1.5 0.671 1.5 1.5v36.154c0 0.645-0.413 1.218-1.024 1.422s-1.286-4e-3 -1.674-0.52l-21.122-28.056h-152l-20.467 28.119c-0.288 0.395-0.743 0.617-1.213 0.617z"/>
		<path d="m597.69 685.45c-0.829 0-1.5-0.671-1.5-1.5v-140.34l-4.416-4.594v144.94c0 0.829-0.671 1.5-1.5 1.5s-1.5-0.671-1.5-1.5v-148.66c0-0.612 0.372-1.163 0.94-1.392s1.217-0.089 1.642 0.352l7.416 7.716c0.269 0.28 0.418 0.652 0.418 1.04v140.95c0 0.829-0.671 1.5-1.5 1.5z"/>
		<path d="m699.82 685.45c-0.829 0-1.5-0.671-1.5-1.5v-140.34l-4.416-4.594v144.94c0 0.829-0.671 1.5-1.5 1.5s-1.5-0.671-1.5-1.5v-148.66c0-0.612 0.372-1.163 0.94-1.392s1.217-0.089 1.642 0.352l7.416 7.716c0.269 0.28 0.418 0.652 0.418 1.04v140.95c0 0.829-0.672 1.5-1.5 1.5z"/>
		<path d="m801.96 685.45c-0.829 0-1.5-0.671-1.5-1.5v-140.34l-4.416-4.594v144.94c0 0.829-0.671 1.5-1.5 1.5s-1.5-0.671-1.5-1.5v-148.66c0-0.612 0.372-1.163 0.94-1.392s1.217-0.089 1.642 0.352l7.416 7.716c0.269 0.28 0.418 0.652 0.418 1.04v140.95c0 0.829-0.672 1.5-1.5 1.5z"/>
		<path d="m904.08 685.45c-0.829 0-1.5-0.671-1.5-1.5v-140.34l-4.416-4.594v144.94c0 0.829-0.671 1.5-1.5 1.5s-1.5-0.671-1.5-1.5v-148.66c0-0.612 0.372-1.163 0.94-1.392s1.217-0.089 1.642 0.352l7.416 7.716c0.269 0.28 0.418 0.652 0.418 1.04v140.95c0 0.829-0.671 1.5-1.5 1.5z"/>
		<path d="m700 718h-109c-0.829 0-1.5-0.671-1.5-1.5s0.671-1.5 1.5-1.5h109c0.829 0 1.5 0.671 1.5 1.5s-0.671 1.5-1.5 1.5z"/>
		<path d="m524.5 667.5c-0.829 0-1.5-0.671-1.5-1.5v-18c0-0.829 0.671-1.5 1.5-1.5s1.5 0.671 1.5 1.5v18c0 0.829-0.671 1.5-1.5 1.5z"/>
	</g>
	<g fill="#444">
		
			<path d="m983.25 891.82c-0.384 0-0.768-0.146-1.061-0.439-0.586-0.585-0.586-1.536 0-2.121l12.403-12.403c0.586-0.586 1.535-0.586 2.121 0s0.586 1.536 0 2.121l-12.403 12.403c-0.292 0.292-0.676 0.439-1.06 0.439z"/>
			<path d="m972.14 904.22c-0.384 0-0.768-0.146-1.061-0.439-0.586-0.585-0.586-1.536 0-2.121l6.21-6.21c0.586-0.586 1.535-0.586 2.121 0 0.586 0.585 0.586 1.536 0 2.121l-6.21 6.21c-0.292 0.293-0.676 0.439-1.06 0.439z"/>
			
				<path d="m891.8 1075.6c-24.262 0-44.001-19.739-44.001-44.002s19.739-44.001 44.001-44.001c24.263 0 44.001 19.738 44.001 44.001s-19.738 44.002-44.001 44.002zm0-85.003c-22.608 0-41.001 18.393-41.001 41.001s18.393 41.002 41.001 41.002 41.001-18.394 41.001-41.002-18.392-41.001-41.001-41.001z"/>
				<path d="m891.8 1043.7c-6.721 0-12.189-5.468-12.189-12.189s5.468-12.188 12.189-12.188 12.189 5.468 12.189 12.188c0 6.721-5.468 12.189-12.189 12.189zm0-21.378c-5.067 0-9.189 4.122-9.189 9.188 0 5.067 4.122 9.189 9.189 9.189s9.189-4.122 9.189-9.189c0-5.066-4.122-9.188-9.189-9.188z"/>
				<path d="m891.8 1049.6c-9.959 0-18.062-8.103-18.062-18.063 0-9.959 8.103-18.062 18.062-18.062s18.062 8.103 18.062 18.062c0 9.961-8.102 18.063-18.062 18.063zm0-33.124c-8.305 0-15.062 6.757-15.062 15.062 0 8.306 6.756 15.063 15.062 15.063s15.062-6.757 15.062-15.063c0-8.305-6.757-15.062-15.062-15.062z"/>
				<path d="m920.38 1063.3c-0.384 0-0.768-0.146-1.061-0.439l-6.068-6.067c-0.586-0.586-0.586-1.535 0-2.121s1.535-0.586 2.121 0l6.068 6.067c0.586 0.586 0.586 1.535 0 2.121-0.292 0.293-0.676 0.439-1.06 0.439z"/>
				<path d="m923.94 1059.7c-0.384 0-0.768-0.146-1.061-0.439l-6.068-6.067c-0.586-0.586-0.586-1.535 0-2.121s1.535-0.586 2.121 0l6.068 6.067c0.586 0.586 0.586 1.535 0 2.121-0.292 0.292-0.676 0.439-1.06 0.439z"/>
			
			
				<path d="m1146.7 1075.6c-24.263 0-44.002-19.739-44.002-44.002s19.739-44.001 44.002-44.001 44.002 19.738 44.002 44.001-19.74 44.002-44.002 44.002zm0-85.003c-22.608 0-41.002 18.393-41.002 41.001s18.394 41.002 41.002 41.002 41.002-18.394 41.002-41.002-18.394-41.001-41.002-41.001z"/>
				<path d="m1146.7 1043.7c-6.722 0-12.189-5.468-12.189-12.189s5.468-12.188 12.189-12.188 12.189 5.468 12.189 12.188c0 6.721-5.469 12.189-12.189 12.189zm0-21.378c-5.067 0-9.189 4.122-9.189 9.188 0 5.067 4.122 9.189 9.189 9.189 5.066 0 9.189-4.122 9.189-9.189 0-5.066-4.123-9.188-9.189-9.188z"/>
				<path d="m1146.7 1049.6c-9.959 0-18.063-8.103-18.063-18.063 0-9.959 8.104-18.062 18.063-18.062s18.063 8.103 18.063 18.062c-1e-3 9.961-8.104 18.063-18.063 18.063zm0-33.124c-8.305 0-15.063 6.757-15.063 15.062 0 8.306 6.758 15.063 15.063 15.063s15.063-6.757 15.063-15.063c-1e-3 -8.305-6.759-15.062-15.063-15.062z"/>
				<path d="m1175.3 1063.3c-0.384 0-0.768-0.146-1.061-0.439l-6.068-6.067c-0.586-0.586-0.586-1.535 0-2.121s1.535-0.586 2.121 0l6.068 6.067c0.586 0.586 0.586 1.535 0 2.121-0.293 0.293-0.676 0.439-1.06 0.439z"/>
				<path d="m1178.8 1059.7c-0.384 0-0.768-0.146-1.061-0.439l-6.067-6.067c-0.586-0.586-0.586-1.535 0-2.121 0.585-0.586 1.535-0.586 2.121 0l6.067 6.067c0.586 0.586 0.586 1.535 0 2.121-0.292 0.292-0.676 0.439-1.06 0.439z"/>
			
			
				<path d="m1244.9 1075.6c-24.264 0-44.002-19.739-44.002-44.002s19.738-44.001 44.002-44.001c24.262 0 44 19.738 44 44.001s-19.738 44.002-44 44.002zm0-85.003c-22.609 0-41.002 18.393-41.002 41.001s18.393 41.002 41.002 41.002c22.607 0 41-18.394 41-41.002s-18.392-41.001-41-41.001z"/>
				<path d="m1244.9 1043.7c-6.722 0-12.189-5.468-12.189-12.189s5.468-12.188 12.189-12.188 12.188 5.468 12.188 12.188c1e-3 6.721-5.467 12.189-12.188 12.189zm0-21.378c-5.067 0-9.189 4.122-9.189 9.188 0 5.067 4.122 9.189 9.189 9.189 5.066 0 9.188-4.122 9.188-9.189 1e-3 -5.066-4.121-9.188-9.188-9.188z"/>
				<path d="m1244.9 1049.6c-9.96 0-18.063-8.103-18.063-18.063 0-9.959 8.103-18.062 18.063-18.062 9.958 0 18.061 8.103 18.061 18.062 0 9.961-8.103 18.063-18.061 18.063zm0-33.124c-8.306 0-15.063 6.757-15.063 15.062 0 8.306 6.757 15.063 15.063 15.063 8.305 0 15.061-6.757 15.061-15.063 0-8.305-6.756-15.062-15.061-15.062z"/>
				<path d="m1273.5 1063.3c-0.384 0-0.768-0.146-1.061-0.439l-6.067-6.067c-0.587-0.586-0.587-1.535 0-2.121 0.586-0.586 1.534-0.586 2.121 0l6.067 6.067c0.586 0.586 0.586 1.535 0 2.121-0.293 0.293-0.677 0.439-1.06 0.439z"/>
				<path d="m1277.1 1059.7c-0.383 0-0.768-0.146-1.061-0.439l-6.067-6.067c-0.586-0.586-0.586-1.535 0-2.121s1.535-0.586 2.121 0l6.067 6.067c0.586 0.586 0.586 1.535 0 2.121-0.292 0.292-0.676 0.439-1.06 0.439z"/>
			
			<path d="m1070.2 935.87h-135.94c-0.477 0-0.925-0.227-1.208-0.61s-0.366-0.879-0.225-1.334l18.509-59.584c5.494-17.683 21.625-29.563 40.14-29.563h78.728c0.829 0 1.5 0.671 1.5 1.5v88.092c0 0.828-0.671 1.499-1.5 1.499zm-133.91-3h132.41v-85.092h-77.228c-17.194 0-32.174 11.032-37.275 27.453z"/>
			<path d="m1644 981.79h-564.63c-0.829 0-1.5-0.671-1.5-1.5v-184.23c0-0.829 0.671-1.5 1.5-1.5h564.63c0.829 0 1.5 0.671 1.5 1.5v184.23c0 0.828-0.671 1.5-1.5 1.5zm-563.13-3h561.63v-181.23h-561.63z"/>
			<path d="m1053.5 1043h-112.45c-0.819 0-1.486-0.657-1.5-1.476l-0.147-9.11c0-8.649-2.296-16.906-6.599-24.087-0.464-0.246-0.784-0.728-0.799-1.286-1.854-2.875-4.037-5.563-6.533-8.02-8.956-8.816-20.911-13.671-33.663-13.671-26.688 0-47.594 21.15-47.594 48.15 0 0.828-0.671 1.5-1.5 1.5h-12.481c-0.402 0-0.787-0.161-1.069-0.448-0.282-0.286-0.438-0.674-0.431-1.075l0.27-16.92v-51.769c0-18 13.902-32.1 31.649-32.1l72.855 0.179c0.827 2e-3 1.496 0.673 1.496 1.5v71.802c4.822 7.782 7.399 16.787 7.399 26.221l0.124 7.61h109.48v-175h-56.771c-13.208 0-24.588 7.915-28.319 19.695l-16.511 50.265c-0.259 0.787-1.106 1.214-1.894 0.957-0.787-0.259-1.215-1.106-0.957-1.894l16.506-50.25c4.123-13.017 16.653-21.773 31.175-21.773h58.271c0.828 0 1.5 0.671 1.5 1.5v178c0 0.828-0.672 1.5-1.5 1.5zm-221.75-11h9.476c0.76-27.961 22.7-49.65 50.574-49.65 13.544 0 26.247 5.161 35.768 14.533 1.597 1.572 3.075 3.234 4.428 4.974v-65.994l-71.355-0.175c-16.061 0-28.645 12.782-28.645 29.1v51.792z"/>
			<path d="m1195.8 1033.1c-0.829 0-1.5-0.672-1.5-1.5 0-26.243-21.351-47.594-47.595-47.594-26.243 0-47.594 21.351-47.594 47.594 0 0.828-0.672 1.5-1.5 1.5-0.829 0-1.5-0.672-1.5-1.5v-51.268c0-0.829 0.671-1.5 1.5-1.5 0.828 0 1.5 0.671 1.5 1.5v34.096c7.047-19.47 25.723-33.422 47.594-33.422 27.898 0 50.595 22.697 50.595 50.594 0 0.828-0.671 1.5-1.5 1.5z"/>
			<path d="m1294 1033.1c-0.828 0-1.5-0.672-1.5-1.5 0-26.243-21.351-47.594-47.594-47.594-26.244 0-47.596 21.351-47.596 47.594 0 0.828-0.671 1.5-1.5 1.5-0.828 0-1.5-0.672-1.5-1.5 0-27.897 22.697-50.594 50.596-50.594 21.871 0 40.546 13.952 47.594 33.422v-34.096c0-0.829 0.672-1.5 1.5-1.5s1.5 0.671 1.5 1.5v51.268c0 0.828-0.672 1.5-1.5 1.5z"/>
			
				<path d="m1462.1 1075.6c-24.263 0-44.002-19.739-44.002-44.002s19.739-44.001 44.002-44.001c24.262 0 44.001 19.738 44.001 44.001s-19.74 44.002-44.001 44.002zm0-85.003c-22.608 0-41.002 18.393-41.002 41.001s18.394 41.002 41.002 41.002c22.607 0 41.001-18.394 41.001-41.002s-18.394-41.001-41.001-41.001z"/>
				<path d="m1462.1 1043.7c-6.721 0-12.189-5.468-12.189-12.189s5.469-12.188 12.189-12.188 12.188 5.468 12.188 12.188c0 6.721-5.468 12.189-12.188 12.189zm0-21.378c-5.066 0-9.189 4.122-9.189 9.188 0 5.067 4.123 9.189 9.189 9.189s9.188-4.122 9.188-9.189c0-5.066-4.122-9.188-9.188-9.188z"/>
				<path d="m1462.1 1049.6c-9.959 0-18.063-8.103-18.063-18.063 0-9.959 8.104-18.062 18.063-18.062s18.062 8.103 18.062 18.062c-1e-3 9.961-8.103 18.063-18.062 18.063zm0-33.124c-8.305 0-15.063 6.757-15.063 15.062 0 8.306 6.758 15.063 15.063 15.063s15.062-6.757 15.062-15.063c-1e-3 -8.305-6.758-15.062-15.062-15.062z"/>
				<path d="m1490.7 1063.3c-0.385 0-0.769-0.146-1.061-0.439l-6.068-6.067c-0.586-0.586-0.586-1.535 0-2.121s1.535-0.586 2.121 0l6.067 6.067c0.587 0.586 0.587 1.535 0 2.121-0.292 0.293-0.676 0.439-1.059 0.439z"/>
				<path d="m1494.3 1059.7c-0.384 0-0.768-0.146-1.061-0.439l-6.067-6.067c-0.586-0.586-0.586-1.535 0-2.121s1.535-0.586 2.12 0l6.068 6.067c0.586 0.586 0.586 1.535 0 2.121-0.292 0.292-0.676 0.439-1.06 0.439z"/>
			
			
				<path d="m1560.4 1075.6c-24.263 0-44.001-19.739-44.001-44.002s19.738-44.001 44.001-44.001 44.002 19.738 44.002 44.001-19.74 44.002-44.002 44.002zm0-85.003c-22.608 0-41.001 18.393-41.001 41.001s18.393 41.002 41.001 41.002 41.002-18.394 41.002-41.002-18.394-41.001-41.002-41.001z"/>
				<path d="m1560.4 1043.7c-6.722 0-12.189-5.468-12.189-12.189s5.468-12.188 12.189-12.188 12.188 5.468 12.188 12.188c0 6.721-5.467 12.189-12.188 12.189zm0-21.378c-5.067 0-9.189 4.122-9.189 9.188 0 5.067 4.122 9.189 9.189 9.189s9.188-4.122 9.188-9.189c0-5.066-4.121-9.188-9.188-9.188z"/>
				<path d="m1560.4 1049.6c-9.959 0-18.062-8.103-18.062-18.063 0-9.959 8.103-18.062 18.062-18.062 9.96 0 18.062 8.103 18.062 18.062-1e-3 9.961-8.103 18.063-18.062 18.063zm0-33.124c-8.306 0-15.062 6.757-15.062 15.062 0 8.306 6.756 15.063 15.062 15.063s15.062-6.757 15.062-15.063c-1e-3 -8.305-6.757-15.062-15.062-15.062z"/>
				<path d="m1589 1063.3c-0.384 0-0.768-0.146-1.061-0.439l-6.067-6.067c-0.586-0.586-0.586-1.535 0-2.121 0.585-0.586 1.535-0.586 2.121 0l6.067 6.067c0.586 0.586 0.586 1.535 0 2.121-0.293 0.293-0.676 0.439-1.06 0.439z"/>
				<path d="m1592.5 1059.7c-0.384 0-0.768-0.146-1.061-0.439l-6.068-6.067c-0.586-0.586-0.586-1.535 0-2.121s1.535-0.586 2.122 0l6.067 6.067c0.586 0.586 0.586 1.535 0 2.121-0.292 0.292-0.676 0.439-1.06 0.439z"/>
			
			<path d="m1511.2 1033.1c-0.828 0-1.5-0.672-1.5-1.5 0-26.243-21.351-47.594-47.594-47.594-26.244 0-47.595 21.351-47.595 47.594 0 0.828-0.671 1.5-1.5 1.5s-1.5-0.672-1.5-1.5v-51.268c0-0.829 0.671-1.5 1.5-1.5s1.5 0.671 1.5 1.5v34.096c7.048-19.47 25.723-33.422 47.595-33.422 27.898 0 50.594 22.697 50.594 50.594 0 0.828-0.67 1.5-1.5 1.5z"/>
			<path d="m1609.5 1033.1c-0.829 0-1.5-0.672-1.5-1.5 0-26.243-21.352-47.594-47.595-47.594s-47.595 21.351-47.595 47.594c0 0.828-0.671 1.5-1.5 1.5-0.828 0-1.5-0.672-1.5-1.5 0-27.897 22.697-50.594 50.595-50.594 21.872 0 40.548 13.952 47.595 33.422v-34.096c0-0.829 0.671-1.5 1.5-1.5 0.828 0 1.5 0.671 1.5 1.5v51.268c0 0.828-0.672 1.5-1.5 1.5z"/>
			<path d="m830 1020h-10.5c-0.829 0-1.5-0.672-1.5-1.5v-48c0-0.829 0.671-1.5 1.5-1.5h10.5c0.829 0 1.5 0.671 1.5 1.5s-0.671 1.5-1.5 1.5h-9v45h9c0.829 0 1.5 0.672 1.5 1.5s-0.671 1.5-1.5 1.5z"/>
			<path d="m1068.5 1043h-14.5c-0.828 0-1.5-0.672-1.5-1.5s0.672-1.5 1.5-1.5h13v-103.5c0-0.829 0.672-1.5 1.5-1.5h10.5c0.828 0 1.5 0.671 1.5 1.5s-0.672 1.5-1.5 1.5h-9v103.5c0 0.828-0.672 1.5-1.5 1.5z"/>
			<path d="m1041.5 978.5c-0.828 0-1.5-0.671-1.5-1.5v-19c0-0.829 0.672-1.5 1.5-1.5s1.5 0.671 1.5 1.5v19c0 0.829-0.672 1.5-1.5 1.5z"/>
			<path d="m1034.5 1058h-40c-0.829 0-1.5-0.672-1.5-1.5v-14.5c0-0.828 0.671-1.5 1.5-1.5s1.5 0.672 1.5 1.5v13h37v-13c0-0.828 0.672-1.5 1.5-1.5s1.5 0.672 1.5 1.5v14.5c0 0.828-0.672 1.5-1.5 1.5z"/>
			<path d="m1080 982h-10c-0.828 0-1.5-0.671-1.5-1.5s0.672-1.5 1.5-1.5h10c0.828 0 1.5 0.671 1.5 1.5s-0.672 1.5-1.5 1.5z"/>
		
		<path d="m1473 812h-27c-0.828 0-1.5-0.671-1.5-1.5s0.672-1.5 1.5-1.5h27c0.828 0 1.5 0.671 1.5 1.5s-0.672 1.5-1.5 1.5z"/>
		<path d="m1583 812h-78c-0.828 0-1.5-0.671-1.5-1.5s0.672-1.5 1.5-1.5h78c0.828 0 1.5 0.671 1.5 1.5s-0.672 1.5-1.5 1.5z"/>
	</g>
	<g fill="#444">
		<path d="m680.5 473.9c-0.126 0-0.252-0.016-0.377-0.048l-199-51.758c-0.661-0.172-1.123-0.769-1.123-1.452v-11.14c0-0.829 0.671-1.5 1.5-1.5h210c0.829 0 1.5 0.671 1.5 1.5v51.428c0 0.387-0.149 0.759-0.417 1.038l-10.996 11.47c-0.286 0.299-0.679 0.462-1.083 0.462zm-197.5-54.418 197.03 51.245 9.97-10.399v-49.326h-207z"/>
		<path d="m756.5 473.9h-52.934c-7.479 0-13.564-6.084-13.564-13.564v-51.154c0-7.48 6.085-13.565 13.564-13.565h53.13c3.337 0 6.377 1.834 7.934 4.786 1.557 2.953 1.353 6.498-0.533 9.251l-5.664 8.273v35.843l4.866 6.33c2.005 2.608 2.348 6.063 0.894 9.015-1.455 2.951-4.403 4.785-7.693 4.785zm-52.935-75.284c-5.825 0-10.564 4.739-10.564 10.565v51.154c0 5.825 4.739 10.564 10.564 10.564h52.934c2.14 0 4.056-1.192 5.001-3.111 0.946-1.919 0.723-4.165-0.581-5.86l-5.176-6.734c-0.201-0.262-0.311-0.583-0.311-0.914v-36.817c0-0.302 0.091-0.598 0.262-0.847l5.926-8.657c1.255-1.833 1.391-4.192 0.355-6.157s-3.06-3.186-5.281-3.186z"/>
		<path d="m736.23 456.9c-5.49 0-8.362-11.142-8.362-22.149s2.873-22.149 8.362-22.149c5.49 0 8.363 11.142 8.363 22.149s-2.873 22.149-8.363 22.149zm0-41.298c-2.187 0-5.362 7.459-5.362 19.149s3.176 19.149 5.362 19.149 5.363-7.459 5.363-19.149-3.177-19.149-5.363-19.149z"/>
		<path d="m654.5 466.5c-0.829 0-1.5-0.671-1.5-1.5v-18c0-0.829 0.671-1.5 1.5-1.5s1.5 0.671 1.5 1.5v18c0 0.829-0.671 1.5-1.5 1.5z"/>
		<path d="m639.5 462.5c-0.829 0-1.5-0.671-1.5-1.5v-19c0-0.829 0.671-1.5 1.5-1.5s1.5 0.671 1.5 1.5v19c0 0.829-0.671 1.5-1.5 1.5z"/>
		<path d="m625.5 458.5c-0.829 0-1.5-0.671-1.5-1.5v-19c0-0.829 0.671-1.5 1.5-1.5s1.5 0.671 1.5 1.5v19c0 0.829-0.671 1.5-1.5 1.5z"/>
	</g>
	<g fill="#444">
		<path d="m1363.5 733.5c-0.828 0-1.5-0.671-1.5-1.5v-18c0-0.829 0.672-1.5 1.5-1.5s1.5 0.671 1.5 1.5v18c0 0.829-0.672 1.5-1.5 1.5z"/>
		<path d="m1380.5 733.5c-0.828 0-1.5-0.671-1.5-1.5v-18c0-0.829 0.672-1.5 1.5-1.5s1.5 0.671 1.5 1.5v18c0 0.829-0.672 1.5-1.5 1.5z"/>
		<path d="m1396.5 733.5c-0.828 0-1.5-0.671-1.5-1.5v-18c0-0.829 0.672-1.5 1.5-1.5s1.5 0.671 1.5 1.5v18c0 0.829-0.672 1.5-1.5 1.5z"/>
		<path d="m1380.5 737.2c-41.841 0-83.672-1.946-125.22-5.838l-148.96-13.877c-0.771-0.072-1.36-0.72-1.36-1.494v-23.488c0-0.829 0.672-1.5 1.5-1.5h547c0.828 0 1.5 0.671 1.5 1.5v23.458c0 0.774-0.589 1.421-1.359 1.494l-147.73 13.894c-41.591 3.901-83.482 5.851-125.36 5.851zm-272.54-22.576 147.6 13.751c82.954 7.772 167.07 7.768 250.02-0.013l146.37-13.767v-20.592h-544z"/>
		<path d="m1121.5 734.92h-14.642c-0.828 0-1.5-0.671-1.5-1.5v-97.732c0-0.829 0.672-1.5 1.5-1.5h14.642c0.829 0 1.5 0.671 1.5 1.5v97.732c0 0.829-0.671 1.5-1.5 1.5zm-13.142-3h11.642v-94.732h-11.642z"/>
		<path d="m1654.3 737.17h-14.642c-0.828 0-1.5-0.671-1.5-1.5v-97.732c0-0.829 0.672-1.5 1.5-1.5h14.642c0.829 0 1.5 0.671 1.5 1.5v97.732c0 0.829-0.671 1.5-1.5 1.5zm-13.142-3h11.642v-94.732h-11.642z"/>
	</g>
	<g fill="#444">
		<path d="m479.5 1151.5c-0.829 0-1.5-0.672-1.5-1.5v-16c0-0.828 0.671-1.5 1.5-1.5s1.5 0.672 1.5 1.5v16c0 0.828-0.671 1.5-1.5 1.5z"/>
		<path d="m492.5 1151.5c-0.829 0-1.5-0.672-1.5-1.5v-16c0-0.828 0.671-1.5 1.5-1.5s1.5 0.672 1.5 1.5v16c0 0.828-0.671 1.5-1.5 1.5z"/>
		<path d="m505.5 1151.5c-0.829 0-1.5-0.672-1.5-1.5v-16c0-0.828 0.671-1.5 1.5-1.5s1.5 0.672 1.5 1.5v16c0 0.828-0.671 1.5-1.5 1.5z"/>
		<path d="m609.83 1095.3c-5.291 0-10.583-0.839-15.631-2.499-9.831-3.233-20.053-5.209-30.382-5.872l-42.41-2.73c-0.79-0.051-1.404-0.706-1.404-1.497v-11.184c0-0.828 0.671-1.5 1.5-1.5h222.28c4.075 0 7.169 1.479 8.947 4.274 1.958 3.081 2.19 6.585 0.652 9.866-3.037 6.479-9.709 10.317-16.989 9.796l-63.835-4.703c-11.287-0.818-22.559-0.254-33.5 1.678l-20.615 3.619c-2.845 0.502-5.732 0.752-8.618 0.752zm-86.827-14.005 41.006 2.64c10.582 0.68 21.055 2.704 31.127 6.017 7.335 2.412 15.216 2.981 22.792 1.642l20.615-3.619c11.182-1.974 22.702-2.553 34.238-1.715l63.835 4.703c6.022 0.441 11.549-2.732 14.054-8.077 1.103-2.353 0.941-4.768-0.468-6.983-1.216-1.913-3.375-2.884-6.415-2.884h-220.78z"/>
		<path d="m493.04 1156.4c-3.882 0-7.757-0.413-11.591-1.238l-24.946-5.371c-0.425-0.092-0.789-0.363-0.999-0.744s-0.243-0.834-0.093-1.242l10.435-28.265c1.975-5.351 2.921-9.756 3.164-14.731l2.061-41.408c0.04-0.799 0.699-1.426 1.498-1.426h48.93c0.829 0 1.5 0.672 1.5 1.5v42.53c0 4.032 0.514 8.186 1.527 12.343l7.537 30.837c0.1 0.407 0.024 0.837-0.207 1.186s-0.598 0.585-1.012 0.651l-29.038 4.675c-2.915 0.468-5.843 0.703-8.766 0.703zm-34.215-9.179 23.256 5.007c6.356 1.369 12.832 1.538 19.249 0.507l27.433-4.417-7.151-29.259c-1.07-4.392-1.612-8.783-1.612-13.055v-41.03h-46.002l-1.99 39.981c-0.259 5.297-1.259 9.97-3.346 15.623z"/>
		<path d="m470 1085h-11.5c-0.829 0-1.5-0.672-1.5-1.5v-12c0-0.828 0.671-1.5 1.5-1.5h11.5c0.829 0 1.5 0.672 1.5 1.5s-0.671 1.5-1.5 1.5h-10v9h10c0.829 0 1.5 0.672 1.5 1.5s-0.671 1.5-1.5 1.5z"/>
	</g>
	<g fill="#444">
		<path d="m1521.5 661.5c-0.828 0-1.5-0.671-1.5-1.5v-14c0-0.829 0.672-1.5 1.5-1.5s1.5 0.671 1.5 1.5v14c0 0.829-0.672 1.5-1.5 1.5z"/>
		<path d="m1532.5 663.5c-0.828 0-1.5-0.671-1.5-1.5v-13c0-0.829 0.672-1.5 1.5-1.5s1.5 0.671 1.5 1.5v13c0 0.829-0.672 1.5-1.5 1.5z"/>
		<path d="m1544.5 663.5c-0.828 0-1.5-0.671-1.5-1.5v-14c0-0.829 0.672-1.5 1.5-1.5s1.5 0.671 1.5 1.5v14c0 0.829-0.672 1.5-1.5 1.5z"/>
		<path d="m1452.1 663.17c-0.358 0-0.718-0.127-1.005-0.386l-28.594-25.803c-6.27-5.657-9.209-14.012-7.862-22.348s6.767-15.34 14.499-18.736l1.722-0.756c0.761-0.332 1.643 0.013 1.977 0.771 0.333 0.759-0.013 1.644-0.771 1.977l-1.722 0.756c-6.796 2.984-11.56 9.14-12.743 16.467s1.399 14.67 6.91 19.642l28.594 25.803c0.615 0.555 0.664 1.503 0.109 2.119-0.297 0.327-0.705 0.494-1.114 0.494z"/>
		<path d="m1458 678.29c-0.224 0-0.449-0.024-0.672-0.075-1.075-0.241-1.946-1.043-2.274-2.094l-4.35-13.921c-0.16-0.512-0.034-1.069 0.329-1.463 0.362-0.394 0.909-0.565 1.432-0.447l13.468 3.023c1.23 0.276 2.229 1.196 2.605 2.4 0.377 1.204 0.079 2.528-0.775 3.457l-7.484 8.125c-0.591 0.64-1.424 0.995-2.279 0.995zm-3.657-14.505 3.574 11.441 1.258 1.051-1.103-1.016 7.483-8.125c0.131-0.143 0.177-0.345 0.119-0.53s-0.211-0.326-0.399-0.368z"/>
		<path d="m1466.6 681.87c-0.336 0-0.673-0.112-0.952-0.342l-6.373-5.247c-0.64-0.527-0.731-1.472-0.205-2.111s1.472-0.732 2.111-0.205l6.373 5.247c0.64 0.527 0.731 1.472 0.205 2.111-0.297 0.361-0.726 0.547-1.159 0.547z"/>
		<path d="m1471.6 676.86c-0.335 0-0.672-0.112-0.951-0.342l-6.373-5.247c-0.641-0.527-0.732-1.472-0.205-2.111 0.526-0.639 1.471-0.732 2.111-0.205l6.373 5.247c0.639 0.527 0.73 1.472 0.204 2.112-0.296 0.359-0.726 0.546-1.159 0.546z"/>
		<path d="m1534.4 664.43c-30.069 0-54.531-24.462-54.531-54.531 0-30.068 24.462-54.531 54.531-54.531 30.068 0 54.53 24.462 54.53 54.531 0 30.068-24.462 54.531-54.53 54.531zm0-106.06c-28.415 0-51.531 23.117-51.531 51.531 0 28.415 23.116 51.531 51.531 51.531 28.414 0 51.53-23.116 51.53-51.531s-23.116-51.531-51.53-51.531z"/>
		<path d="m1619 611.4h-31.551c-0.828 0-1.5-0.671-1.5-1.5s0.672-1.5 1.5-1.5h30.038c-0.802-45.123-37.757-81.582-83.068-81.582-45.812 0-83.082 37.27-83.082 83.082 0 0.829-0.672 1.5-1.5 1.5-0.829 0-1.5-0.671-1.5-1.5 0-47.465 38.616-86.082 86.082-86.082s86.081 38.616 86.081 86.082c0 0.829-0.671 1.5-1.5 1.5z"/>
		<path d="m1609.4 572.17c-0.286 0-0.576-0.082-0.833-0.253-0.688-0.461-0.873-1.392-0.412-2.081 4.92-7.351 8.82-19.025 6.755-27.116-2.147-8.416-7.647-15.264-15.088-18.79l-46.7-22.125c-12.848-6.086-28.18-1.064-35.664 11.683l-10.561 17.647c-0.425 0.711-1.347 0.943-2.057 0.517-0.711-0.425-0.943-1.347-0.518-2.057l10.555-17.637c8.271-14.086 25.267-19.622 39.528-12.864l46.7 22.125c8.251 3.909 14.342 11.476 16.711 20.758 2.388 9.359-2.042 21.867-7.168 29.527-0.289 0.433-0.763 0.666-1.248 0.666z"/>
		<path d="m1606.5 565.55c-0.226 0-0.455-0.051-0.672-0.16-0.74-0.372-1.039-1.273-0.668-2.014 3.321-6.619 5.325-10.614 3.424-18.064-1.921-7.528-6.84-13.654-13.495-16.808l-42.019-19.908c-11.49-5.444-25.201-0.95-31.896 10.452l-5.422 9.06c-0.426 0.71-1.346 0.942-2.058 0.517-0.71-0.425-0.941-1.347-0.517-2.058l5.415-9.049c7.481-12.74 22.857-17.746 35.761-11.632l42.019 19.908c7.465 3.537 12.976 10.381 15.118 18.776 2.178 8.536-0.267 13.408-3.649 20.152-0.262 0.525-0.791 0.828-1.341 0.828z"/>
		<path d="m1587.5 517.5c-0.828 0-1.5-0.671-1.5-1.5v-8.288c0-2.422-0.572-3.998-1.748-4.815-1.533-1.066-2.708-1.206-4.189-0.505l-12.01 5.312c-0.756 0.333-1.643-8e-3 -1.979-0.766-0.335-0.757 0.01-1.643 0.766-1.979l11.974-5.295c2.442-1.157 4.726-0.918 7.151 0.77 2.042 1.419 3.035 3.8 3.035 7.278v8.288c0 0.829-0.672 1.5-1.5 1.5z"/>
		<path d="m1600.7 645.11c-0.109 0-0.22-0.012-0.329-0.037l-149.81-33.714c-0.809-0.182-1.316-0.984-1.135-1.792 0.182-0.809 0.988-1.313 1.793-1.134l148.76 33.479 10.768-17.533-23.956-6.192c-0.802-0.207-1.284-1.025-1.077-1.828 0.208-0.802 1.024-1.286 1.828-1.077l25.92 6.7c0.461 0.119 0.838 0.45 1.016 0.891 0.179 0.441 0.137 0.941-0.112 1.347l-12.391 20.176c-0.278 0.45-0.766 0.714-1.279 0.714z"/>
		<path d="m1534.2 622.83c-7.129 0-12.929-5.8-12.929-12.929 0-7.128 5.8-12.928 12.929-12.928s12.928 5.8 12.928 12.928c0 7.129-5.799 12.929-12.928 12.929zm0-22.857c-5.475 0-9.929 4.454-9.929 9.928s4.454 9.929 9.929 9.929 9.928-4.454 9.928-9.929-4.453-9.928-9.928-9.928z"/>
		<path d="m1478.7 576.36c-4.827 0-8.755-3.927-8.755-8.755 0-4.827 3.928-8.754 8.755-8.754s8.755 3.927 8.755 8.754c0 4.828-3.928 8.755-8.755 8.755zm0-14.509c-3.173 0-5.755 2.582-5.755 5.754 0 3.173 2.582 5.755 5.755 5.755s5.755-2.582 5.755-5.755c0-3.172-2.582-5.754-5.755-5.754z"/>
		<path d="m1448.8 605.1c-0.19 0-0.384-0.037-0.57-0.114l-16.752-6.899c-0.604-0.249-0.977-0.858-0.924-1.508s0.519-1.191 1.153-1.34l19.72-4.613c0.811-0.186 1.614 0.313 1.803 1.119 0.189 0.807-0.313 1.614-1.119 1.802l-15.164 3.547 12.426 5.117c0.766 0.316 1.131 1.192 0.815 1.958-0.24 0.581-0.798 0.931-1.388 0.931z"/>
		<path d="m1470.2 661.49c-2.003 0-3.981-0.805-5.579-2.35-2.375-2.296-3.564-5.831-3.181-9.454l0.459-4.337-13.444-34.911c-0.299-0.773 0.088-1.641 0.86-1.939s1.642 0.088 1.938 0.861l13.576 35.249c0.085 0.222 0.116 0.46 0.092 0.697l-0.498 4.697c-0.283 2.672 0.592 5.347 2.282 6.981 1.581 1.528 3.626 1.923 5.473 1.057l1.206-0.565c1.512-2.617 3.812-22.717 5.191-41.011 0.063-0.826 0.776-1.448 1.609-1.383 0.826 0.062 1.445 0.782 1.383 1.608-0.01 0.103-0.786 10.358-1.889 20.64-2.314 21.593-3.688 22.236-4.791 22.753l-1.438 0.674c-1.05 0.492-2.153 0.733-3.249 0.733z"/>
	</g>
	<g fill="#444">
		<path d="m701.5 914.5c-0.829 0-1.5-0.671-1.5-1.5v-17c0-0.829 0.671-1.5 1.5-1.5s1.5 0.671 1.5 1.5v17c0 0.829-0.671 1.5-1.5 1.5z"/>
		<path d="m714.5 914.5c-0.829 0-1.5-0.671-1.5-1.5v-17c0-0.829 0.671-1.5 1.5-1.5s1.5 0.671 1.5 1.5v17c0 0.829-0.671 1.5-1.5 1.5z"/>
		<path d="m728.5 914.5c-0.829 0-1.5-0.671-1.5-1.5v-17c0-0.829 0.671-1.5 1.5-1.5s1.5 0.671 1.5 1.5v17c0 0.829-0.671 1.5-1.5 1.5z"/>
		<path d="m570.46 930.74h-87.921c-0.829 0-1.5-0.671-1.5-1.5v-60.922c0-0.829 0.671-1.5 1.5-1.5h87.921c10.519 0 19.077 8.558 19.077 19.077v25.768c0 10.519-8.558 19.077-19.077 19.077zm-86.421-3h86.421c8.865 0 16.077-7.212 16.077-16.077v-25.768c0-8.865-7.212-16.077-16.077-16.077h-86.421z"/>
		<path d="m559.64 914.75c-8.805 0-15.969-7.164-15.969-15.969s7.164-15.968 15.969-15.968c8.806 0 15.969 7.163 15.969 15.968s-7.163 15.969-15.969 15.969zm0-28.937c-7.151 0-12.969 5.817-12.969 12.968s5.818 12.969 12.969 12.969 12.969-5.818 12.969-12.969-5.817-12.968-12.969-12.968z"/>
		<path d="m558.28 902.98c-0.238 0-0.48-0.057-0.706-0.178-0.73-0.39-1.006-1.299-0.616-2.03l2.522-4.719c0.39-0.73 1.298-1.008 2.03-0.616 0.73 0.39 1.006 1.299 0.616 2.03l-2.522 4.719c-0.27 0.506-0.788 0.794-1.324 0.794z"/>
		<path d="m447.3 937h-44.984c-14.82 0-28.316-13.235-28.316-27.768v-10.752c0-12.034 10.591-24.48 28.315-24.48h79.685c0.829 0 1.5 0.671 1.5 1.5s-0.671 1.5-1.5 1.5h-79.685c-15.846 0-25.315 10.921-25.315 21.479v10.752c0 12.732 12.303 24.769 25.315 24.769h44.985c5.795 0 11.857-2.741 16.633-7.521l17.276-15.898c0.609-0.56 1.559-0.521 2.12 0.088 0.561 0.61 0.521 1.559-0.088 2.12l-17.231 15.854c-5.289 5.295-12.125 8.357-18.71 8.357z"/>
		<path d="m444.57 927h-37.152c-11.941 0-22.415-9.177-22.415-19.639v-7.311c0-10.122 9.846-18.05 22.415-18.05h74.585c0.829 0 1.5 0.671 1.5 1.5s-0.671 1.5-1.5 1.5h-74.585c-10.706 0-19.415 6.751-19.415 15.05v7.311c0 8.864 9.072 16.639 19.415 16.639h37.152c4.663 0 9.642-1.899 13.661-5.21l21.621-19.419c0.617-0.554 1.565-0.502 2.119 0.114 0.553 0.617 0.502 1.565-0.114 2.119l-21.669 19.46c-4.596 3.788-10.27 5.936-15.618 5.936z"/>
		<path d="m719.09 916.19c-3.905 0-7.814-0.076-11.735-0.228l-115.49-4.394c-0.828-0.032-1.473-0.728-1.442-1.556 0.031-0.827 0.723-1.458 1.556-1.442l115.49 4.394c24.466 0.951 48.676-1.096 71.959-6.077 5.578-1.193 9.326-4.53 9.326-8.303 0-7.49-9.232-13.584-20.581-13.584h-180.17c-0.829 0-1.5-0.671-1.5-1.5s0.671-1.5 1.5-1.5h180.17c13.223 0 23.581 7.285 23.581 16.584 0 5.224-4.701 9.739-11.698 11.236-19.796 4.236-40.256 6.37-60.968 6.37z"/>
		
			<path d="m462.64 985.19c-0.089 0-0.178-8e-3 -0.269-0.024l-64.773-11.701c-12.761-2.305-23.549-10.744-28.86-22.573s-4.448-25.499 2.309-36.566l2.974-4.872c0.432-0.707 1.355-0.93 2.062-0.499s0.93 1.355 0.499 2.062l-2.974 4.872c-6.241 10.222-7.038 22.848-2.133 33.774s14.871 18.72 26.657 20.85l64.773 11.701c0.815 0.147 1.357 0.927 1.209 1.743-0.131 0.724-0.762 1.233-1.474 1.233z"/>
			<path d="m482.29 1001.4c-0.968 0-1.923-0.343-2.675-0.992l-17.916-15.48c-0.406-0.351-0.593-0.891-0.493-1.417s0.474-0.959 0.98-1.135l21.166-7.359c1.621-0.561 3.432-0.216 4.73 0.905 1.298 1.123 1.904 2.866 1.582 4.55l-3.369 17.614c-0.274 1.429-1.297 2.613-2.67 3.09-0.434 0.149-0.886 0.224-1.335 0.224zm-16.663-17.044 15.95 13.781c0.292 0.252 0.699 0.332 1.065 0.204 0.365-0.126 0.636-0.441 0.709-0.82l3.369-17.613c0.122-0.636-0.107-1.293-0.597-1.717-0.489-0.422-1.174-0.553-1.784-0.341z"/>
			<path d="m498.58 998.61c-0.066 0-0.134-4e-3 -0.201-0.013l-13.283-1.782c-0.821-0.11-1.397-0.865-1.288-1.686 0.11-0.821 0.872-1.394 1.686-1.288l13.283 1.782c0.821 0.11 1.397 0.865 1.288 1.686-0.101 0.755-0.745 1.301-1.485 1.301z"/>
			<path d="m501.26 987.38c-0.066 0-0.134-4e-3 -0.201-0.013l-13.282-1.782c-0.821-0.11-1.397-0.865-1.288-1.686 0.11-0.821 0.872-1.394 1.686-1.288l13.282 1.782c0.821 0.11 1.397 0.865 1.288 1.686-0.101 0.754-0.745 1.301-1.485 1.301z"/>
		
		<path d="m519.77 911.26c-0.746 0-1.392-0.555-1.486-1.314l-2.639-21.111c-0.103-0.822 0.48-1.572 1.302-1.674 0.82-0.106 1.572 0.48 1.674 1.302l2.639 21.111c0.103 0.822-0.48 1.572-1.302 1.674-0.063 8e-3 -0.126 0.012-0.188 0.012z"/>
		<path d="m510.35 908.62c-0.749 0-1.397-0.56-1.487-1.323l-2.199-18.472c-0.098-0.823 0.489-1.569 1.312-1.667 0.821-0.103 1.569 0.489 1.667 1.312l2.199 18.472c0.098 0.823-0.489 1.569-1.312 1.667-0.061 8e-3 -0.121 0.011-0.18 0.011z"/>
	</g>
	<g fill="#444">
		
			<path d="m829.25 362.05c-0.357 0-0.716-0.127-1.003-0.385-0.616-0.554-0.666-1.503-0.111-2.118l31.406-34.883c5.62-6.242 7.797-14.842 5.824-23.006s-7.837-14.821-15.687-17.809l-3.803-1.447c-0.774-0.294-1.164-1.161-0.869-1.935 0.294-0.774 1.162-1.163 1.935-0.869l3.804 1.447c8.775 3.339 15.331 10.781 17.536 19.907s-0.229 18.74-6.511 25.718l-31.406 34.883c-0.296 0.33-0.705 0.497-1.115 0.497z"/>
			<path d="m824.14 380.18c-0.804 0-1.597-0.289-2.215-0.834l-9.591-8.458c-1.032-0.911-1.504-2.314-1.232-3.663 0.272-1.35 1.252-2.46 2.556-2.899l15.146-5.095c0.506-0.17 1.068-0.058 1.47 0.297 0.402 0.354 0.584 0.896 0.478 1.422l-3.34 16.551c-0.236 1.167-1.083 2.128-2.211 2.507-0.347 0.115-0.705 0.172-1.061 0.172zm3.158-17.278-12.684 4.266c-0.292 0.098-0.511 0.347-0.572 0.649-0.061 0.301 0.045 0.616 0.276 0.819l9.591 8.458c0.092 0.081 0.22 0.107 0.335 0.067 0.116-0.039 0.203-0.137 0.227-0.257z"/>
			<path d="m814.85 385.32c-0.38 0-0.761-0.144-1.053-0.432-0.59-0.582-0.597-1.532-0.015-2.122l6.709-6.805c0.583-0.589 1.532-0.596 2.122-0.015 0.59 0.582 0.597 1.532 0.015 2.122l-6.709 6.805c-0.295 0.298-0.682 0.447-1.069 0.447z"/>
			<path d="m808.44 380.16c-0.38 0-0.761-0.144-1.053-0.432-0.59-0.582-0.597-1.531-0.015-2.121l6.71-6.805c0.582-0.59 1.531-0.597 2.121-0.015s0.597 1.531 0.015 2.121l-6.71 6.805c-0.294 0.298-0.681 0.447-1.068 0.447z"/>
		
		<path d="m812.67 327.56h-77.304c-17.956 0-32.564-12.988-32.564-28.952v-51.845c0-28.744 26.373-52.129 58.79-52.129h7.92c41.753 0 75.722 30.097 75.722 67.091v36.882c-1e-3 15.965-14.608 28.953-32.564 28.953zm-51.079-129.93c-30.763 0-55.79 22.039-55.79 49.129v51.845c0 14.31 13.262 25.952 29.564 25.952h77.304c16.302 0 29.564-11.642 29.564-25.952v-36.882c0-35.34-32.623-64.091-72.722-64.091h-7.92z"/>
		<path d="m796.35 243.81h-44.677c-9.667 0-19.453-2.651-19.453-7.717v-11.742c0-6.286 12.13-12.966 34.61-12.966h4.577c21.823 0 44.395 6.118 44.395 16.355v8.354c0 5.065-9.786 7.716-19.452 7.716zm-29.52-29.426c-18.628 0-31.61 5.252-31.61 9.966v11.742c0 1.878 6.562 4.717 16.453 4.717h44.677c9.891 0 16.453-2.839 16.453-4.717v-8.354c0-7.87-21.816-13.355-41.395-13.355h-4.578z"/>
		<path d="m752.84 298.08c-0.062 0-0.125-4e-3 -0.188-0.012-0.822-0.103-1.405-0.853-1.302-1.674l2.716-21.729c0.103-0.822 0.85-1.405 1.674-1.302 0.822 0.103 1.405 0.853 1.302 1.674l-2.716 21.729c-0.094 0.759-0.74 1.314-1.486 1.314z"/>
		<path d="m762.54 295.36c-0.059 0-0.119-3e-3 -0.179-0.011-0.823-0.098-1.41-0.844-1.312-1.667l2.263-19.013c0.098-0.822 0.845-1.417 1.667-1.312 0.823 0.098 1.41 0.844 1.312 1.667l-2.263 19.013c-0.091 0.762-0.739 1.323-1.488 1.323z"/>
		<path d="m704.3 287.21c-0.493 0-0.976-0.243-1.263-0.688l-4.899-7.611c-6.986-10.852-6.619-24.626 0.933-35.091l4.011-5.558c0.484-0.671 1.422-0.822 2.094-0.338 0.672 0.485 0.823 1.422 0.338 2.095l-4.011 5.558c-6.825 9.457-7.156 21.905-0.843 31.711l4.899 7.611c0.448 0.697 0.247 1.625-0.449 2.073-0.251 0.161-0.532 0.238-0.81 0.238z"/>
		<path d="m746.5 198.5c-0.829 0-1.5-0.671-1.5-1.5v-8.5c0-0.829 0.671-1.5 1.5-1.5h8c0.829 0 1.5 0.671 1.5 1.5v7.5c0 0.829-0.671 1.5-1.5 1.5s-1.5-0.671-1.5-1.5v-6h-5v7c0 0.829-0.671 1.5-1.5 1.5z"/>
		<path d="m772.5 341h-71c-0.829 0-1.5-0.671-1.5-1.5v-13c0-0.819 0.657-1.237 1.476-1.25l31.061-0.25h0.024c0.817 0 1.486 0.406 1.5 1.226 0.013 0.828-0.647 1.385-1.476 1.399l-29.585 0.351v10.024h68v-11c0-0.829 0.671-1.5 1.5-1.5s1.5 0.671 1.5 1.5v12.5c0 0.829-0.671 1.5-1.5 1.5z"/>
		<path d="m779.12 359h-93.122c-0.829 0-1.5-0.671-1.5-1.5s0.671-1.5 1.5-1.5h86.805c-6.011-3.307-10.424-9.118-11.912-15.828-0.179-0.809 0.331-1.61 1.14-1.789 0.813-0.178 1.61 0.331 1.789 1.14 1.41 6.358 5.829 11.797 11.819 14.548l4.155 2.089c0.621 0.312 0.946 1.01 0.785 1.686-0.16 0.676-0.764 1.154-1.459 1.154z"/>
		<path d="m725.9 358.31c-0.537 0-1.056-0.289-1.326-0.796-0.389-0.731-0.112-1.64 0.62-2.029l4.455-2.371c4.29-2.283 7.674-5.927 9.529-10.26l1.688-3.941c0.326-0.762 1.209-1.115 1.969-0.789 0.762 0.326 1.115 1.208 0.789 1.969l-1.688 3.941c-2.123 4.959-5.986 9.124-10.877 11.728l-4.455 2.371c-0.225 0.121-0.467 0.177-0.704 0.177z"/>
		<path d="m856 317.95c-0.163 0-0.326-0.026-0.482-0.08l-12.53-4.257c-0.785-0.267-1.205-1.119-0.938-1.903s1.119-1.204 1.903-0.938l10.98 3.731 1.922-7.844-12.126-2.734c-0.808-0.182-1.315-0.985-1.133-1.793s0.983-1.315 1.793-1.133l13.616 3.07c0.393 0.089 0.733 0.332 0.945 0.674s0.277 0.755 0.182 1.146l-2.675 10.918c-0.1 0.409-0.367 0.756-0.736 0.958-0.223 0.122-0.472 0.185-0.721 0.185z"/>
	</g>
	<g fill="#444">
		<path d="m1151.5 1196.5c-0.828 0-1.5-0.672-1.5-1.5v-14c0-0.828 0.672-1.5 1.5-1.5s1.5 0.672 1.5 1.5v14c0 0.828-0.672 1.5-1.5 1.5z"/>
		<path d="m1162.5 1196.5c-0.828 0-1.5-0.672-1.5-1.5v-14c0-0.828 0.672-1.5 1.5-1.5s1.5 0.672 1.5 1.5v14c0 0.828-0.672 1.5-1.5 1.5z"/>
		<path d="m1174.5 1196.5c-0.828 0-1.5-0.672-1.5-1.5v-14c0-0.828 0.672-1.5 1.5-1.5s1.5 0.672 1.5 1.5v14c0 0.828-0.672 1.5-1.5 1.5z"/>
		
			<path d="m1455.5 1263.9c-0.356 0-0.716-0.127-1.003-0.385-0.615-0.555-0.665-1.503-0.111-2.119l37.588-41.748c6.79-7.543 9.421-17.936 7.037-27.8-2.383-9.865-9.47-17.91-18.956-21.52l-4.552-1.731c-0.774-0.295-1.163-1.161-0.869-1.936 0.295-0.773 1.162-1.162 1.936-0.869l4.553 1.731c10.411 3.963 18.189 12.792 20.805 23.619 2.617 10.827-0.271 22.233-7.725 30.513l-37.586 41.748c-0.298 0.33-0.706 0.497-1.117 0.497z"/>
			<path d="m1449.4 1285.6c-0.892 0-1.771-0.321-2.456-0.926l-11.478-10.123c-1.157-1.021-1.686-2.593-1.38-4.104 0.305-1.512 1.402-2.757 2.863-3.248l18.127-6.097c0.507-0.173 1.068-0.058 1.471 0.297 0.401 0.354 0.584 0.896 0.478 1.422l-3.997 19.808c-0.262 1.294-1.2 2.358-2.451 2.779-0.385 0.128-0.782 0.192-1.177 0.192zm4.17-20.826-15.663 5.269c-0.449 0.15-0.787 0.533-0.881 0.998-0.094 0.464 0.069 0.947 0.425 1.261l11.479 10.123c0.188 0.166 0.452 0.219 0.691 0.14 0.237-0.08 0.416-0.282 0.466-0.529z"/>
			<path d="m1438.3 1291.7c-0.38 0-0.761-0.144-1.054-0.432-0.59-0.582-0.596-1.531-0.014-2.121l8.03-8.145c0.582-0.59 1.531-0.597 2.121-0.016 0.59 0.582 0.597 1.531 0.015 2.121l-8.031 8.145c-0.292 0.299-0.679 0.448-1.067 0.448z"/>
			<path d="m1430.6 1285.5c-0.38 0-0.761-0.144-1.053-0.432-0.59-0.582-0.598-1.531-0.016-2.121l8.031-8.145c0.582-0.591 1.531-0.597 2.121-0.016 0.59 0.582 0.597 1.531 0.015 2.121l-8.031 8.145c-0.292 0.299-0.68 0.448-1.067 0.448z"/>
		
		<path d="m1387.7 1190.3c-0.062 0-0.125 0-0.188-0.012-0.822-0.103-1.405-0.853-1.303-1.675l3.251-26.006c0.104-0.822 0.856-1.403 1.675-1.302 0.822 0.103 1.405 0.853 1.303 1.675l-3.252 26.006c-0.093 0.759-0.74 1.314-1.486 1.314z"/>
		<path d="m1399.3 1187c-0.06 0-0.119 0-0.179-0.011-0.823-0.098-1.41-0.844-1.313-1.667l2.709-22.755c0.097-0.822 0.841-1.418 1.666-1.312 0.823 0.098 1.41 0.844 1.313 1.667l-2.709 22.755c-0.09 0.762-0.738 1.323-1.487 1.323z"/>
		<path d="m1433.9 1218h-104.76c-8.141 0-16.131-8.04-16.131-16.232v-12.347c0-12.879 8.96-24.464 21.789-28.173l17.34-4.93 2.867-10.619c3.088-12.761 14.871-21.699 28.645-21.699h26.502c5.98 0 10.895 2.784 13.307 7.49l17.412 3.673c13.436 3.091 24.76 11.108 31.915 22.582 3.204 5.14 2.981 11.633-0.566 16.544l-26.221 36.906c-3.036 4.201-7.67 6.805-12.099 6.805zm-50.25-91c-12.383 0-22.968 7.995-25.738 19.442l-3.098 11.478c-0.137 0.509-0.531 0.908-1.038 1.052l-18.151 5.16c-11.547 3.339-19.615 13.738-19.615 25.289v12.347c0 6.555 6.627 13.232 13.131 13.232h104.76c3.484 0 7.186-2.128 9.66-5.553l26.221-36.906c2.838-3.928 3.016-9.108 0.459-13.208-6.729-10.793-17.389-18.336-30.015-21.24l-18.11-3.82c-0.473-0.1-0.867-0.42-1.063-0.861-1.773-4.015-5.85-6.411-10.9-6.411h-26.503z"/>
		<path d="m1410.1 1125.6c-0.101 0-0.204-0.01-0.307-0.031-0.812-0.169-1.332-0.963-1.164-1.774l2.475-11.906-5.993-1.398-2.417 13.868c-0.143 0.815-0.929 1.363-1.735 1.22-0.816-0.142-1.362-0.919-1.22-1.735l2.689-15.432c0.071-0.406 0.306-0.766 0.649-0.993s0.767-0.304 1.169-0.21l8.966 2.092c0.792 0.186 1.293 0.969 1.127 1.767l-2.772 13.34c-0.148 0.706-0.771 1.192-1.467 1.192z"/>
		<path d="m1361.7 1217.5c-0.67 0-1.28-0.452-1.452-1.132l-21.779-85.949-24.897-4.342 7.679 44.144c0.075 0.436-0.045 0.884-0.33 1.223-0.286 0.339-0.705 0.534-1.148 0.534h-199.6c-2.732 0-5.814 1.526-8.457 4.188l-21.063 21.812h224.37c0.828 0 1.5 0.672 1.5 1.5s-0.672 1.5-1.5 1.5h-227.9c-0.602 0-1.145-0.359-1.381-0.914-0.234-0.554-0.115-1.195 0.303-1.628l23.53-24.368c1.896-1.91 5.772-5.09 10.601-5.09h197.82l-7.738-44.487c-0.084-0.48 0.072-0.973 0.418-1.317 0.345-0.346 0.835-0.5 1.318-0.417l27.955 4.875c0.582 0.102 1.051 0.536 1.196 1.109l22.019 86.892c0.203 0.803-0.283 1.619-1.086 1.822-0.124 0.031-0.248 0.045-0.37 0.045z"/>
		<path d="m1484.5 1205h-34.5c-0.828 0-1.5-0.672-1.5-1.5s0.672-1.5 1.5-1.5h33v-11h-23c-0.828 0-1.5-0.672-1.5-1.5s0.672-1.5 1.5-1.5h24.5c0.828 0 1.5 0.672 1.5 1.5v14c0 0.828-0.672 1.5-1.5 1.5z"/>
	</g>
	
		
			<g fill="#444">
				<path d="m1364.1 601h-113.89c-0.523 0-0.948-0.476-0.948-1s0.425-1 0.948-1h113.89c0.523 0 0.949 0.476 0.949 1s-0.426 1-0.949 1z"/>
				<path d="m1364.1 601h-113.89c-0.785 0-1.449-0.687-1.449-1.5s0.664-1.5 1.449-1.5h113.89c0.785 0 1.449 0.687 1.449 1.5s-0.664 1.5-1.449 1.5zm-113.89-2c-0.234 0-0.449 0.238-0.449 0.5s0.215 0.5 0.449 0.5h113.89c0.234 0 0.449-0.238 0.449-0.5s-0.215-0.5-0.449-0.5z"/>
			</g>
			
				<g fill="#444">
					<path d="m1308.1 622h-69.284c-0.524 0-0.949-0.476-0.949-1s0.425-1 0.949-1h69.284c0.524 0 0.949 0.476 0.949 1s-0.425 1-0.949 1z"/>
					<path d="m1308.1 622h-69.284c-0.785 0-1.449-0.687-1.449-1.5s0.664-1.5 1.449-1.5h69.284c0.786 0 1.449 0.687 1.449 1.5s-0.663 1.5-1.449 1.5zm-69.284-2c-0.235 0-0.449 0.238-0.449 0.5s0.214 0.5 0.449 0.5h69.284c0.234 0 0.449-0.238 0.449-0.5s-0.215-0.5-0.449-0.5z"/>
				</g>
			
		
		<g fill="#444">
			
				<path d="m639.93 304h-72.131c-0.524 0-0.949-0.476-0.949-1s0.425-1 0.949-1h72.131c0.524 0 0.949 0.476 0.949 1s-0.425 1-0.949 1z"/>
				<path d="m639.93 304h-72.131c-0.786 0-1.449-0.687-1.449-1.5s0.664-1.5 1.449-1.5h72.131c0.786 0 1.449 0.687 1.449 1.5s-0.663 1.5-1.449 1.5zm-72.131-2c-0.235 0-0.449 0.238-0.449 0.5s0.214 0.5 0.449 0.5h72.131c0.235 0 0.449-0.238 0.449-0.5s-0.214-0.5-0.449-0.5z"/>
			
			
				<path d="m655.12 323h-64.539c-0.524 0-0.949-0.476-0.949-1s0.425-1 0.949-1h64.539c0.524 0 0.949 0.476 0.949 1s-0.425 1-0.949 1z"/>
				<path d="m655.12 323h-64.539c-0.786 0-1.449-0.687-1.449-1.5s0.664-1.5 1.449-1.5h64.539c0.786 0 1.449 0.687 1.449 1.5s-0.664 1.5-1.449 1.5zm-64.539-2c-0.235 0-0.449 0.238-0.449 0.5s0.214 0.5 0.449 0.5h64.539c0.235 0 0.449-0.238 0.449-0.5s-0.214-0.5-0.449-0.5z"/>
			
		</g>
		<g fill="#444">
			
				<path d="m1089 190h72.132c0.523 0 0.949-0.476 0.949-1s-0.426-1-0.949-1h-72.132c-0.524 0-0.949 0.476-0.949 1s0.425 1 0.949 1z"/>
				<path d="m1087.5 188.5c0-0.813 0.663-1.5 1.449-1.5h72.132c0.785 0 1.449 0.687 1.449 1.5s-0.664 1.5-1.449 1.5h-72.132c-0.786 0-1.449-0.687-1.449-1.5zm1.449-0.5c-0.235 0-0.449 0.238-0.449 0.5s0.214 0.5 0.449 0.5h72.132c0.234 0 0.449-0.238 0.449-0.5s-0.215-0.5-0.449-0.5z"/>
			
			
				<path d="m1073.8 209h64.539c0.523 0 0.948-0.476 0.948-1s-0.425-1-0.948-1h-64.539c-0.524 0-0.949 0.476-0.949 1s0.424 1 0.949 1z"/>
				<path d="m1072.4 207.5c0-0.813 0.663-1.5 1.449-1.5h64.538c0.786 0 1.449 0.687 1.449 1.5s-0.663 1.5-1.449 1.5h-64.538c-0.786 0-1.449-0.687-1.449-1.5zm1.449-0.5c-0.235 0-0.449 0.238-0.449 0.5s0.214 0.5 0.449 0.5h64.538c0.236 0 0.449-0.238 0.449-0.5s-0.213-0.5-0.449-0.5z"/>
			
		</g>
		<g fill="#444">
			
				<path d="m1040.5 612h-71.183c-0.524 0-0.949-0.476-0.949-1s0.425-1 0.949-1h71.183c0.523 0 0.949 0.476 0.949 1s-0.425 1-0.949 1z"/>
				<path d="m1040.5 612h-71.183c-0.786 0-1.449-0.687-1.449-1.5s0.664-1.5 1.449-1.5h71.183c0.785 0 1.449 0.687 1.449 1.5s-0.664 1.5-1.449 1.5zm-71.182-2c-0.235 0-0.449 0.238-0.449 0.5s0.214 0.5 0.449 0.5h71.183c0.234 0 0.449-0.238 0.449-0.5s-0.215-0.5-0.449-0.5z"/>
			
			
				<path d="m1056.6 632h-65.488c-0.524 0-0.949-0.476-0.949-1s0.425-1 0.949-1h65.488c0.523 0 0.948 0.476 0.948 1s-0.425 1-0.948 1z"/>
				<path d="m1056.6 632h-65.487c-0.786 0-1.449-0.687-1.449-1.5s0.664-1.5 1.449-1.5h65.487c0.786 0 1.45 0.687 1.45 1.5s-0.664 1.5-1.45 1.5zm-65.487-2c-0.235 0-0.449 0.238-0.449 0.5s0.214 0.5 0.449 0.5h65.487c0.235 0 0.45-0.238 0.45-0.5s-0.215-0.5-0.45-0.5z"/>
			
		</g>
		<g fill="#444">
			
				<path d="m724.4 991h-84.47c-0.524 0-0.949-0.476-0.949-1s0.425-1 0.949-1h84.47c0.524 0 0.949 0.476 0.949 1s-0.425 1-0.949 1z"/>
				<path d="m724.4 991h-84.47c-0.786 0-1.449-0.687-1.449-1.5s0.664-1.5 1.449-1.5h84.47c0.786 0 1.449 0.688 1.449 1.5 0 0.813-0.663 1.5-1.449 1.5zm-84.47-2c-0.235 0-0.449 0.238-0.449 0.5s0.214 0.5 0.449 0.5h84.47c0.235 0 0.449-0.238 0.449-0.5s-0.214-0.5-0.449-0.5z"/>
			
			
				<path d="m742.43 1017h-60.742c-0.524 0-0.949-0.476-0.949-1s0.425-1 0.949-1h60.742c0.524 0 0.949 0.476 0.949 1s-0.425 1-0.949 1z"/>
				<path d="m742.43 1017h-60.742c-0.786 0-1.449-0.687-1.449-1.5s0.664-1.5 1.449-1.5h60.742c0.786 0 1.449 0.687 1.449 1.5s-0.664 1.5-1.449 1.5zm-60.743-2c-0.235 0-0.449 0.238-0.449 0.5s0.214 0.5 0.449 0.5h60.742c0.235 0 0.449-0.238 0.449-0.5s-0.214-0.5-0.449-0.5z"/>
			
		</g>
		<g fill="#444">
			
				<path d="m590.58 1235h-80.673c-0.524 0-0.949-0.476-0.949-1s0.425-1 0.949-1h80.673c0.524 0 0.949 0.476 0.949 1s-0.425 1-0.949 1z"/>
				<path d="m590.58 1235h-80.673c-0.786 0-1.449-0.687-1.449-1.5s0.664-1.5 1.449-1.5h80.673c0.785 0 1.449 0.687 1.449 1.5s-0.664 1.5-1.449 1.5zm-80.673-2c-0.235 0-0.449 0.238-0.449 0.5s0.214 0.5 0.449 0.5h80.673c0.235 0 0.449-0.238 0.449-0.5s-0.214-0.5-0.449-0.5z"/>
			
			
				<path d="m613.36 1256h-45.556c-0.524 0-0.949-0.476-0.949-1s0.425-1 0.949-1h45.557c0.524 0 0.949 0.476 0.949 1s-0.426 1-0.95 1z"/>
				<path d="m613.36 1256h-45.556c-0.786 0-1.449-0.687-1.449-1.5s0.664-1.5 1.449-1.5h45.557c0.786 0 1.449 0.687 1.449 1.5s-0.664 1.5-1.45 1.5zm-45.556-2c-0.235 0-0.449 0.238-0.449 0.5s0.214 0.5 0.449 0.5h45.557c0.235 0 0.449-0.238 0.449-0.5s-0.214-0.5-0.449-0.5z"/>
			
		</g>
		<g fill="#444">
			
				<path d="m1387.8 1341h-73.081c-0.523 0-0.949-0.476-0.949-1s0.426-1 0.949-1h73.081c0.523 0 0.948 0.476 0.948 1s-0.424 1-0.948 1z"/>
				<path d="m1387.8 1341h-73.08c-0.785 0-1.449-0.687-1.449-1.5s0.664-1.5 1.449-1.5h73.08c0.786 0 1.449 0.687 1.449 1.5s-0.663 1.5-1.449 1.5zm-73.08-2c-0.234 0-0.449 0.238-0.449 0.5s0.215 0.5 0.449 0.5h73.08c0.235 0 0.449-0.238 0.449-0.5s-0.214-0.5-0.449-0.5z"/>
			
			
				<path d="m1412.5 1321h-64.539c-0.524 0-0.949-0.476-0.949-1s0.425-1 0.949-1h64.539c0.523 0 0.948 0.476 0.948 1s-0.425 1-0.948 1z"/>
				<path d="m1412.5 1321h-64.539c-0.786 0-1.449-0.687-1.449-1.5s0.663-1.5 1.449-1.5h64.539c0.785 0 1.449 0.687 1.449 1.5s-0.664 1.5-1.449 1.5zm-64.539-2c-0.235 0-0.449 0.238-0.449 0.5s0.214 0.5 0.449 0.5h64.539c0.234 0 0.449-0.238 0.449-0.5s-0.215-0.5-0.449-0.5z"/>
			
		</g>
		<g fill="#444">
			
				<path d="m1080.3 1129h-79.725c-0.524 0-0.949-0.476-0.949-1s0.425-1 0.949-1h79.725c0.523 0 0.948 0.476 0.948 1s-0.424 1-0.948 1z"/>
				<path d="m1080.3 1129h-79.725c-0.786 0-1.449-0.687-1.449-1.5s0.664-1.5 1.449-1.5h79.725c0.785 0 1.448 0.687 1.448 1.5s-0.662 1.5-1.448 1.5zm-79.724-2c-0.235 0-0.449 0.238-0.449 0.5s0.214 0.5 0.449 0.5h79.725c0.234 0 0.448-0.238 0.448-0.5s-0.214-0.5-0.448-0.5z"/>
			
			
				<path d="m1031 1151h-61.691c-0.524 0-0.949-0.476-0.949-1s0.425-1 0.949-1h61.691c0.524 0 0.949 0.476 0.949 1s-0.425 1-0.949 1z"/>
				<path d="m1031 1151h-61.691c-0.786 0-1.449-0.687-1.449-1.5s0.664-1.5 1.449-1.5h61.691c0.786 0 1.449 0.687 1.449 1.5s-0.663 1.5-1.449 1.5zm-61.691-2c-0.235 0-0.449 0.238-0.449 0.5s0.214 0.5 0.449 0.5h61.691c0.235 0 0.449-0.238 0.449-0.5s-0.214-0.5-0.449-0.5z"/>
			
		</g>
		<g fill="#444">
			
				<path d="m1051.8 778h-56.946c-0.524 0-0.949-0.476-0.949-1s0.425-1 0.949-1h56.946c0.524 0 0.949 0.476 0.949 1s-0.425 1-0.949 1z"/>
				<path d="m1051.8 778h-56.946c-0.786 0-1.449-0.687-1.449-1.5s0.664-1.5 1.449-1.5h56.946c0.785 0 1.449 0.687 1.449 1.5s-0.664 1.5-1.449 1.5zm-56.946-2c-0.235 0-0.449 0.238-0.449 0.5s0.214 0.5 0.449 0.5h56.946c0.234 0 0.449-0.238 0.449-0.5s-0.215-0.5-0.449-0.5z"/>
			
			
				<path d="m1009.1 798h-57.896c-0.524 0-0.949-0.476-0.949-1s0.425-1 0.949-1h57.896c0.523 0 0.949 0.476 0.949 1s-0.426 1-0.949 1z"/>
				<path d="m1009.1 798h-57.896c-0.785 0-1.449-0.687-1.449-1.5s0.664-1.5 1.449-1.5h57.896c0.785 0 1.449 0.687 1.449 1.5s-0.664 1.5-1.449 1.5zm-57.896-2c-0.235 0-0.449 0.238-0.449 0.5s0.214 0.5 0.449 0.5h57.896c0.234 0 0.449-0.238 0.449-0.5s-0.215-0.5-0.449-0.5z"/>
			
		</g>
		<g fill="#444">
			
				<path d="m405.5 798h-58.844c-0.524 0-0.949-0.476-0.949-1s0.425-1 0.949-1h58.844c0.524 0 0.949 0.476 0.949 1s-0.425 1-0.949 1z"/>
				<path d="m405.5 798h-58.844c-0.786 0-1.449-0.687-1.449-1.5s0.664-1.5 1.449-1.5h58.844c0.785 0 1.449 0.687 1.449 1.5s-0.664 1.5-1.449 1.5zm-58.844-2c-0.235 0-0.449 0.238-0.449 0.5s0.214 0.5 0.449 0.5h58.844c0.235 0 0.449-0.238 0.449-0.5s-0.214-0.5-0.449-0.5z"/>
			
			
				<path d="m456.76 821h-69.284c-0.524 0-0.949-0.476-0.949-1s0.425-1 0.949-1h69.284c0.524 0 0.949 0.476 0.949 1s-0.425 1-0.949 1z"/>
				<path d="m456.76 821h-69.284c-0.786 0-1.449-0.687-1.449-1.5s0.664-1.5 1.449-1.5h69.284c0.786 0 1.449 0.688 1.449 1.5 0 0.813-0.663 1.5-1.449 1.5zm-69.284-2c-0.235 0-0.449 0.238-0.449 0.5s0.214 0.5 0.449 0.5h69.284c0.235 0 0.449-0.238 0.449-0.5s-0.214-0.5-0.449-0.5z"/>
			
		</g>
		<g fill="#444">
			
				<path d="m497.57 475h-61.691c-0.524 0-0.949-0.476-0.949-1s0.425-1 0.949-1h61.691c0.524 0 0.949 0.476 0.949 1s-0.425 1-0.949 1z"/>
				<path d="m497.57 475h-61.691c-0.786 0-1.449-0.687-1.449-1.5s0.664-1.5 1.449-1.5h61.691c0.786 0 1.449 0.687 1.449 1.5 1e-3 0.813-0.663 1.5-1.449 1.5zm-61.691-2c-0.235 0-0.449 0.238-0.449 0.5s0.214 0.5 0.449 0.5h61.691c0.235 0 0.449-0.238 0.449-0.5s-0.214-0.5-0.449-0.5z"/>
			
			
				<path d="m545.02 499h-58.844c-0.524 0-0.949-0.476-0.949-1s0.425-1 0.949-1h58.844c0.524 0 0.949 0.476 0.949 1s-0.425 1-0.949 1z"/>
				<path d="m545.02 499h-58.844c-0.786 0-1.449-0.687-1.449-1.5s0.664-1.5 1.449-1.5h58.844c0.786 0 1.449 0.687 1.449 1.5s-0.663 1.5-1.449 1.5zm-58.844-2c-0.235 0-0.449 0.238-0.449 0.5s0.214 0.5 0.449 0.5h58.844c0.235 0 0.449-0.238 0.449-0.5s-0.214-0.5-0.449-0.5z"/>
			
		</g>
		<g fill="#444">
			
				<path d="m1014.8 329h-64.539c-0.524 0-0.949-0.476-0.949-1s0.425-1 0.949-1h64.539c0.524 0 0.949 0.476 0.949 1s-0.424 1-0.949 1z"/>
				<path d="m1014.8 329h-64.539c-0.786 0-1.449-0.687-1.449-1.5s0.664-1.5 1.449-1.5h64.539c0.785 0 1.449 0.687 1.449 1.5s-0.664 1.5-1.449 1.5zm-64.538-2c-0.235 0-0.449 0.238-0.449 0.5s0.214 0.5 0.449 0.5h64.539c0.235 0 0.449-0.238 0.449-0.5s-0.214-0.5-0.449-0.5z"/>
			
			
				<path d="m1027.2 347h-55.047c-0.524 0-0.949 0.024-0.949-0.5s0.425-0.5 0.949-0.5h55.047c0.524 0 0.949-0.024 0.949 0.5s-0.424 0.5-0.949 0.5z"/>
				<path d="m1027.3 347h-0.063l-0.229-0.5v0.5h-54.884c-0.471 5e-3 -0.888 2e-3 -1.186-0.296-0.174-0.174-0.263-0.412-0.263-0.704s0.089-0.53 0.263-0.704c0.298-0.298 0.719-0.302 1.121-0.296h55.113c0.471 4e-3 0.887-1e-3 1.186 0.296 0.174 0.174 0.263 0.411 0.263 0.704s-0.089 0.53-0.263 0.704c-0.283 0.282-0.673 0.296-1.058 0.296zm-55.252-1c-0.192 0-0.377 2e-3 -0.434 0.027 0.064-0.026 0.293-0.027 0.444-0.027h55.182c0.148 0 0.379 1e-3 0.443-0.027-0.064 0.026-0.293 0.027-0.443 0.027h-55.115-0.077z"/>
			
		</g>
		<g fill="#444">
			
				<path d="m1592.8 1110h-70.233c-0.524 0-0.949 0.024-0.949-0.5s0.425-0.5 0.949-0.5h70.233c0.524 0 0.949-0.024 0.949 0.5s-0.424 0.5-0.949 0.5z"/>
				<path d="m1593 1110h-0.063l0.107-0.5v0.5h-70.406c-0.473 0-0.889 0-1.186-0.296-0.176-0.174-0.264-0.411-0.264-0.704s0.088-0.53 0.264-0.704c0.297-0.298 0.717-0.29 1.119-0.296h70.299c0.476 0 0.888 0 1.186 0.296 0.175 0.174 0.264 0.411 0.264 0.704s-0.089 0.53-0.264 0.704c-0.282 0.282-0.671 0.296-1.056 0.296zm-70.441-1c-0.191 0-0.375 0-0.432 0.027 0.064-0.026 0.293-0.027 0.443-0.027h70.369c0.152 0 0.379 1e-3 0.442-0.027-0.064 0.026-0.292 0.027-0.442 0.027h-70.301-0.079z"/>
			
			
				<path d="m1550.1 1129h-55.997c-0.524 0-0.949-0.476-0.949-1s0.425-1 0.949-1h55.997c0.523 0 0.949 0.476 0.949 1s-0.425 1-0.949 1z"/>
				<path d="m1550.1 1129h-55.997c-0.786 0-1.449-0.687-1.449-1.5s0.663-1.5 1.449-1.5h55.997c0.785 0 1.449 0.687 1.449 1.5s-0.664 1.5-1.449 1.5zm-55.997-2c-0.235 0-0.449 0.238-0.449 0.5s0.214 0.5 0.449 0.5h55.997c0.234 0 0.449-0.238 0.449-0.5s-0.215-0.5-0.449-0.5z"/>
			
		</g>
	
</g>
</svg>
