<?xml version="1.0" encoding="UTF-8"?>
<svg width="50.902mm" height="45.477mm" version="1.1" viewBox="0 0 50.902 45.477" xmlns="http://www.w3.org/2000/svg" xmlns:cc="http://creativecommons.org/ns#" xmlns:dc="http://purl.org/dc/elements/1.1/" xmlns:rdf="http://www.w3.org/1999/02/22-rdf-syntax-ns#">
 <metadata>
  <rdf:RDF>
   <cc:Work rdf:about="">
    <dc:format>image/svg+xml</dc:format>
    <dc:type rdf:resource="http://purl.org/dc/dcmitype/StillImage"/>
    <dc:title/>
   </cc:Work>
  </rdf:RDF>
 </metadata>
 <g transform="translate(-24.139 -45.779)">
  <path d="m42.885 46.793-0.50195 1.0137-6.416 12.938-0.82812 1.668 1.8594-0.14454 0.20117-0.01563-5.9648 12.113-0.39648 0.80664-0.39648 0.80664 1.793-0.08594 3.207-0.15625-9.6875 13.303-0.80664 1.1074-0.80859 1.1094 1.3438-0.2793 1.3418-0.2793 12.35-2.5664-0.05469 1.4395-0.01953 0.54883-0.01953 0.54883h5.5762l-0.02734-0.55469-0.02734-0.55664v-2e-3l-0.10352-2.0352 11.924-0.53125 1.5625-0.07032-0.64453-1.4258-0.63672-1.4082 9.1621-0.67578 1.3711-0.10156-0.22461-0.64844-0.22461-0.65039v-2e-3l-0.41602-1.1992 7.0098-0.12891 1.6602-0.03126-0.36524-0.74609-0.36523-0.74609h2e-3l-2.3126-4.7401 0.95703 0.10742 0.97852 0.10938-0.44922-0.875-0.44727-0.875-2.7012-5.2812 0.78516 0.07227 1.0156 0.09375-1.0156-1.7695-5.3105-9.2559-0.84766-1.4805-0.94922 1.418-3.875 5.7949-5.8672-11.777h-2e-3l-0.48633-0.97266-0.48438-0.9707-0.4668 0.98047-0.4668 0.98242-3.5293 7.4297-4.5371-10.295-0.91406-2.0703z" fill="#fff"/>
  <path d="m43.333 48.276-6.4158 12.937 2.0509-0.15777-6.7839 13.778 5.4166-0.26294-10.991 15.093 13.673-2.8398-0.10518 2.7872h3.3656l-0.15776-3.1027 12.989-0.57847-1.2621-2.7872 10.675-0.78882-0.894-2.5768 8.4667-0.15776-3.1553-6.4683 1.8932 0.21035-3.576-6.9942 1.6828 0.15777-5.3114-9.2555-4.8907 7.3098-6.6787-13.41-4.5226 9.5185z" fill="#057042"/>
  <g fill="#fff">
   <path transform="matrix(1.05 0 0 1.05 -2.3279 -3.6315)" d="m46.361 67.072-0.25391 0.01172-0.03125 2e-3 -0.0293 0.0059-0.25391 0.04102-0.02539 0.0039-0.02344 0.0059-0.24805 0.06445-0.02344 0.0059-0.02344 0.0078-0.23828 0.08594-0.02734 0.0098-0.02734 0.01367-0.16992 0.08398-0.03516 0.0196-0.18555 0.10938-0.03126 0.0196-0.36914 0.25586-0.01172 0.0078-0.0098 0.0078-0.4082 0.31445-0.36719 0.2832 0.90545 1.6996 0.41878 0.64842 0.36319 0.63116-0.15025 0.09895-0.26562 0.18945-0.0293 0.02148-0.02734 0.02539-0.23633 0.22266-0.02148 0.02148-0.01953 0.02344-0.21484 0.25586-0.01953 0.02148-0.01563 0.02344-0.17383 0.25781-0.01563 0.02344-0.01367 0.02344-0.14648 0.27734-0.01172 0.02734-0.01172 0.02539-0.11523 0.29102-0.0098 0.02539-0.0078 0.02734-0.08398 0.30078-0.0078 0.02539-0.0039 0.02539-0.04687 0.26562-0.0039 0.01953-2e-3 0.01953-0.02734 0.26953-2e-3 0.02148v0.02344l-0.0078 0.54297v0.03516l0.01563 0.30273 2e-3 0.01172v0.01172l0.0293 0.30273 2e-3 0.01758 0.0039 0.01758 0.04883 0.29883 2e-3 0.01758 0.0039 0.01953 0.07031 0.29492 0.0118 0.03906 0.07031 0.21875 0.0059 0.01953 0.0098 0.01953 0.08789 0.21289 0.0059 0.01758 0.0078 0.01563 0.10156 0.20508 0.01172 0.02539 0.01562 0.02148 0.12305 0.19531 0.01172 0.02148 0.01563 0.01758 0.15039 0.19726 0.01563 0.02148 0.01758 0.01953 0.17188 0.18359 0.02344 0.02539 0.02539 0.02148 0.19141 0.1582 0.0332 0.02734 0.03711 0.02148 0.21094 0.12305 0.03906 0.02148 0.04102 0.01563 0.2207 0.08398 0.03906 0.01562 0.03906 0.0078 0.23242 0.04883 0.03711 0.0078 0.03711 2e-3 0.23633 0.01563 0.03906 0.0039 0.03906-0.0039 0.23438-0.01953 0.04883-0.0039 0.04687-0.01172 0.2168-0.05859 0.03906-0.01172 0.03906-0.01758 0.20508-0.0918 0.0332-0.01367 0.03125-0.01953 0.19336-0.12109 0.02344-0.01563 0.02344-0.01758 0.17578-0.13867 0.02148-0.01758 0.01953-0.01953 0.04297-0.04102v0.47852h2.0938v-7.5625l-2e-3 -0.02539-0.05273-0.54102-2e-3 -0.01953-0.0039-0.01953-0.04687-0.26953-0.0059-0.03125-0.0078-0.03125-0.07617-0.25391-0.01172-0.0332-0.01367-0.03125-0.125-0.27734-0.01172-0.02539-0.01367-0.02344-0.15039-0.25977-0.02344-0.03906-0.17187-0.24414-0.02344-0.03126-0.19336-0.23633-0.01563-0.01758-0.01758-0.01953-0.17578-0.17773-0.01953-0.01758-0.01953-0.01563-0.19727-0.16406-0.01953-0.01758-0.02148-0.01367-0.21289-0.14453-0.02148-0.01563-0.02148-0.01172-0.21875-0.11914-0.0293-0.01563-0.03125-0.01172-0.25-0.09766-0.0293-0.01172-0.03125-0.0078-0.26172-0.06836-0.02734-0.0078-0.0293-0.0039-0.26953-0.03906-0.02734-0.0039-0.02539-2e-3 -0.26953-0.01172h-0.02344z"/>
   <path d="m35.336 82.871 17.179-0.06304 0.97718 1.8283-12.703 0.63044-9.3619 2.2065z"/>
   <path d="m38.204 66.511v4.1609h1.0402v2.3326l-3.625-1.2924z"/>
   <path d="m40.625 61.359 0.73173-1.8148h-1.2293l3.0261-5.5478 3.3728 8.9522s-1.0088-1.7496-3.3602-2.2644c-1.6904-0.37011-2.5411 0.6749-2.5411 0.6749z"/>
   <path d="m62.413 64.903 2.3011-3.1206 1.9859 2.9946h-1.1663l3.8141 7.4706-1.2924-0.03152 2.6446 6.0976h-5.3967l-0.46309-0.73893s0.98578-0.8348 1.3696-2.4254c0.41314-1.7122 0.37575-2.0158 0.35578-2.8988-0.03244-1.4346-0.28916-2.2161-0.66759-3.3085-0.34685-1.0012-1.0132-2.0179-1.7476-2.7818-0.989-1.0286-1.7373-1.2572-1.7373-1.2572z"/>
   <path d="m42.492 61.289-0.03711 2e-3h-0.0039l-0.19531 0.0078h-0.0039l-0.0059 2e-3 -0.0332 2e-3h-0.02734l-0.0293 0.0059-0.03516 0.0059-0.04687 0.0078h-0.0059l-0.02148 0.0039-0.01758 2e-3h-0.01172l-0.0098 2e-3 -0.05078 0.0078-0.04102 0.0059-0.04102 0.01367-0.04883 0.01563h-2e-3l-0.0039 2e-3 -0.19922 0.06641-2e-3 2e-3h-0.0039l-0.04492 0.01563-0.04102 0.01367-0.03906 0.02148-0.04297 0.02344-2e-3 2e-3 -0.12695 0.07031-0.0078 0.0039-0.02148 0.01172-0.03906 0.02148-0.03516 0.02539-0.01367 0.01172-0.01172 0.0078-0.13476 0.09961-0.0039 2e-3 -0.02344 0.01758-0.02734 0.01758-0.05078 0.04688-4e-3 4e-3 -0.15625 0.14844-0.0078 0.0059-0.01367 0.01367-0.02734 0.02344-0.02344 0.0293-0.01758 0.01953-2e-3 0.0039-0.16992 0.19922-0.02148 0.02539-0.02148 0.02734-0.01953 0.02734-0.01563 0.02539-2e-3 2e-3 -0.14648 0.22656-2e-3 2e-3 -0.01758 0.02734-0.01172 0.01953-0.0098 0.01953-0.01563 0.0293-0.0039 0.0078-0.0059 0.0078-0.11328 0.23242-2e-3 0.0059-2e-3 0.0039-0.01172 0.02539-0.01172 0.02734-0.0098 0.02734-2e-3 0.0078-0.0059 0.01563-0.06836 0.1875-0.0059 0.01367-2e-3 0.0059-2e-3 0.0039-0.01563 0.03711-0.0098 0.03711-0.0039 0.01563-2e-3 0.0078-0.05273 0.19726-2e-3 0.0098-2e-3 0.0078-0.0059 0.02539v0.0039l-2e-3 0.0039-0.0059 0.02734-2e-3 0.01367-0.0039 0.01367-0.05078 0.31641-4e-3 0.03516-4e-3 0.04296v0.0078l-0.0098 0.11133-2e-3 0.01953-2e-3 0.02539v2.4746h-0.78906v3.1992h0.74414v8.3737h3.1328v-8.3073h1.4648v-3.2663h-1.5551v-1.918l2e-3 -0.04883 0.0078-0.07031 0.04883 0.0293 2e-3 2e-3 0.51367 0.31445 0.51758 0.31641 0.48828-1.1094 0.42774-0.96875 0.28125-0.64062-0.47656-0.50781-0.02734-0.0293-2e-3 -2e-3 -0.02344-0.02539-0.02734-0.0293-0.03125-0.02539-0.02734-0.02148-2e-3 -2e-3 -0.09766-0.07813-2e-3 -2e-3 -0.0586-0.04688-0.0332-0.01953-0.03125-0.01758-2e-3 -2e-3 -0.18555-0.10938-0.0078-4e-3 -0.02734-0.01563-0.01172-0.0078-0.01367-0.0059-0.02734-0.01367-0.0098-0.0059-0.01172-0.0059-0.29102-0.12891-0.01172-0.0039-0.01367-0.0059-0.05078-0.0196-0.01172-0.0039-0.01367-0.0059-0.22852-0.07422-0.0118-4e-3 -0.01953-0.0059-0.02344-0.0059-0.02539-0.0059-0.01953-0.0039-0.17578-0.04297h-0.0039l-0.02734-0.0078-0.0332-0.0078-0.0664-0.0078h-2e-3l-0.30469-0.03516-0.01367-2e-3 -0.02734-0.0039-0.04883-0.0078z"/>
  </g>
  <g>
   <path d="m41.847 68.948v8.4325h-1.0146v-8.5001h-0.74404v-1.0822h0.78914v-3.483s0.0092-0.73033 0.45793-1.3282c0.46436-0.6187 0.89502-0.61797 0.89502-0.61797s0.3745-0.09753 1.0154 0.14144c0.46711 0.17417 0.60782 0.34995 0.60782 0.34995l-0.42839 0.96951s-0.7859-0.55718-1.2994-0.07924c-0.40276 0.37486-0.36905 1.0713-0.36905 1.0713v2.9762h1.5557v1.1497z" fill="#057042"/>
   <path transform="scale(.26458)" d="m175.31 255.5c-1.2802-1e-3 -2.5817 0.27714-3.7617 0.77343-1.5854 0.66675-4.2773 2.8867-4.2773 2.8867l2.4121 4.1797s1.5669-1.2252 2.4316-1.707c0.68566-0.38206 1.3984-0.75487 2.1641-0.92774 0.85521-0.19309 1.7726-0.29139 2.6289-0.10351 0.998 0.21899 1.9705 0.70967 2.7305 1.3926 0.70169 0.63052 1.2522 1.447 1.6406 2.3066 0.26431 0.58486 0.42188 1.8738 0.42188 2.5156v4.5059s-3.0021-0.74153-4.5352-0.77343c-1.489-0.031-3.0267 0.2086-4.4023 0.77929-1.6059 0.66624-2.801 1.747-3.8379 3.0996-0.94914 1.2382-1.6275 2.7404-1.9648 4.2637-0.29423 1.3288-0.34922 2.71-0.30859 4.0703 0.0455 1.5249 0.19324 3.0702 0.61914 4.5352 0.32187 1.1071 0.78031 2.1994 1.4434 3.1426 0.71952 1.0235 1.6196 1.9816 2.7402 2.5078 1.0646 0.49986 2.3351 0.68156 3.4941 0.48242 1.1055-0.18992 2.1413-0.81148 2.9883-1.5469 0.71621-0.62186 1.2933-1.4648 1.8613-2.2578 0.62537-0.8731 1.6953-2.7402 1.6953-2.7402v6.0801h3.916v-26.488c-0.13818-1.31-0.18045-2.7977-0.66797-4.0215-0.57348-1.4396-1.399-2.6778-2.4219-3.8418-0.81459-0.92698-1.9269-1.7605-3.043-2.2871-1.2217-0.57651-2.6159-0.82468-3.9668-0.82617zm1.2734 19.133c0.38972-0.0138 0.78192 4e-3 1.168 0.0312 0.65515 0.0466 1.8418 0.29492 1.8418 0.29492s1.9666 0.38696 2.0644 1.123c0.24314 1.8282 0.10923 2.5226 0 3.7773-0.0718 0.82513-0.16539 1.6617-0.42773 2.4473-0.27977 0.83782-0.61715 1.6496-1.0762 2.4043-0.48503 0.79744-1.0897 1.5807-1.7578 2.2324-0.61947 0.60426-1.3317 1.1748-2.1484 1.4609-0.70444 0.24681-1.4986 0.30862-2.2324 0.17188-0.68596-0.12786-1.3711-0.43431-1.8887-0.90234-0.69543-0.62892-1.169-1.5126-1.459-2.4043-0.31979-0.98336-0.42364-2.0347-0.39454-3.0684 0.0231-0.82346 0.1101-1.6573 0.34375-2.4473 0.2597-0.87803 0.75901-1.7713 1.2949-2.5137 0.40295-0.55822 0.94121-1.0193 1.5039-1.416 0.61732-0.43519 1.2884-0.8343 2.0176-1.0312 0.37363-0.10092 0.76067-0.14633 1.1504-0.16016z" fill="#057042"/>
   <rect x="50.088" y="61.579" width="2.9593" height="16.734" fill="#fff"/>
   <rect x="50.938" y="62.398" width="1.1963" height="15.174" fill="#057042"/>
   <path d="m56.867 66.651-0.34055 0.0186-0.03721 0.0021-0.03721 0.0083-0.33383 0.06408-0.03514 0.0062-0.03307 0.01035-0.15968 0.05219-0.03101 0.01035-0.03152 0.01447-0.1509 0.07028-0.02066 0.01035-0.02119 0.01035-0.37259 0.21136-0.02532 0.01498-0.02273 0.01654-0.27957 0.19895-0.02687 0.02066-0.02532 0.02273-0.22789 0.20722-0.02066 0.0186-0.02066 0.02066-0.21962 0.24495-0.02482 0.02894-0.3297 0.42272-0.03308 0.04958-0.21549 0.34623-0.01654 0.02687-0.01447 0.02894-0.15348 0.3235-0.0083 0.01654-0.0062 0.0186-0.13901 0.35243-0.0041 0.01035-0.0041 0.01241-0.12661 0.3669-0.0062 0.0186-0.0062 0.02066-0.09974 0.37724-0.0041 0.01241-0.0021 0.01447-0.08062 0.38137-0.0021 0.01241-0.0021 0.01498-0.06201 0.38344-0.0021 0.01035-0.0021 0.01241-0.04961 0.41238-0.0021 0.01241v0.01241l-0.031 0.41651-0.0021 0.01654v0.01654l-0.01241 0.83354v0.03101l0.03101 0.77101 0.0021 0.01654v0.01394l0.03721 0.38602 0.0021 0.01447 0.0021 0.01241 0.05581 0.38137 0.0021 0.01035v0.01035l0.07028 0.38551 0.0021 0.01035 0.0041 0.01035 0.08527 0.38137 0.0021 0.01654 0.0062 0.01654 0.10749 0.37517 0.0041 0.02066 0.0088 0.02119 0.13643 0.36638 0.0088 0.01913 0.0083 0.0186 0.13074 0.2837 0.0083 0.0186 0.0083 0.01654 0.15141 0.27802 0.01034 0.0186 0.01241 0.01654 0.17208 0.2651 0.01035 0.01913 0.01447 0.0186 0.19068 0.24857 0.01654 0.02066 0.01654 0.0186 0.17828 0.19275 0.02273 0.02273 0.02326 0.02066 0.19275 0.16588 0.02479 0.02273 0.02687 0.01654 0.21135 0.14314 0.02273 0.01654 0.02479 0.01241 0.22996 0.12454 0.02532 0.01241 0.02273 0.01035 0.2837 0.1204 0.02479 0.01035 0.02532 0.0083 0.29404 0.09353 0.03101 0.01035 0.031 0.0062 0.30489 0.05994 0.031 0.0062 0.03101 0.0021 0.30489 0.02479 0.031 0.0021h0.03307l0.25115-0.0083 0.04132-0.0042 0.25063-0.02687 0.02273-0.0021 0.02479-0.0041 0.24495-0.04754 0.02687-0.0062 0.02687-0.0088 0.2403-0.07235 0.04186-0.01034 0.03721-0.0186 0.16175-0.077 0.02479-0.01241 0.02273-0.01241 0.17002-0.10129 0.01241-0.0088 0.01241-0.0083 0.19068-0.12816 0.24856-0.16795v-9.0454l0.0021-1.3674-0.33538-0.22634-0.07493-0.05168-0.0186-0.01035-0.0186-0.01241-0.20103-0.11834-0.02479-0.01447-0.02894-0.01241-0.27595-0.12454-0.03101-0.01447-0.03307-0.01035-0.15348-0.04754-0.03307-0.01035-0.03721-0.0062-0.15555-0.02687-0.03101-0.0062h-0.03101l-0.34003-0.02066-0.03101-0.0021z" fill="#fff"/>
   <path d="m58.037 69.483-0.0089-1.6241s-0.42204-0.30891-0.81199-0.34799c-0.4176-0.04186-0.87563-0.02154-1.247 0.174-0.54526 0.28711-0.75 0.47382-1.0375 0.81321-0.50926 0.60126-0.60003 0.87612-0.78952 1.3618-0.17726 0.4543-0.27616 0.93864-0.348 1.421-0.07701 0.5171-0.09336 1.0432-0.087 1.566 0.0059 0.48484 0.03417 0.97206 0.116 1.45 0.0827 0.48302 0.18622 0.96959 0.377 1.421 0.1536 0.36343 0.35678 0.71156 0.60899 1.015 0.21449 0.25805 0.46302 0.44346 0.76503 0.58969 0.34473 0.16692 0.73695 0.27597 1.1199 0.2803 0.31306 0.0035 0.63318-0.0396 0.92799-0.145 0.17952-0.06418 0.49299-0.28999 0.49299-0.28999v-1.711s-0.46065 0.47361-0.75399 0.60899c-0.28576 0.13188-0.61571 0.21313-0.92799 0.174-0.2961-0.0371-0.58773-0.18012-0.81199-0.37699-0.25797-0.22646-0.41997-0.55271-0.55099-0.86999-0.17008-0.41187-0.25242-0.83995-0.30104-1.2829-0.0443-0.40357-0.03969-0.82404-0.02042-1.2296 0.01935-0.40737 0.05772-0.83064 0.14746-1.2285 0.07469-0.33111 0.16114-0.67619 0.31653-0.97796 0.17185-0.33373 0.36842-0.68275 0.66945-0.90701 0.2525-0.18811 0.48803-0.28135 0.80091-0.31675 0.22175-0.02509 0.50438 0.0018 0.71157 0.08475 0.22985 0.092 0.64241 0.34808 0.64241 0.34808z" fill="#057042"/>
   <ellipse cx="61.983" cy="72.522" rx="3.9114" ry="5.9221" fill="#fff"/>
   <ellipse cx="62.018" cy="72.606" rx="3.0551" ry="5.2345" fill="#057042"/>
   <ellipse cx="61.999" cy="72.704" rx="2.0046" ry="3.9705" fill="#fff"/>
  </g>
 </g>
</svg>
