<?xml version="1.0" encoding="UTF-8"?>
<!-- Created with Inkscape (http://www.inkscape.org/) -->
<svg width="29.521mm" height="26.458mm" version="1.1" viewBox="0 0 29.521 26.458" xmlns="http://www.w3.org/2000/svg" xmlns:cc="http://creativecommons.org/ns#" xmlns:dc="http://purl.org/dc/elements/1.1/" xmlns:rdf="http://www.w3.org/1999/02/22-rdf-syntax-ns#">
 <metadata>
  <rdf:RDF>
   <cc:Work rdf:about="">
    <dc:format>image/svg+xml</dc:format>
    <dc:type rdf:resource="http://purl.org/dc/dcmitype/StillImage"/>
    <dc:title/>
   </cc:Work>
  </rdf:RDF>
 </metadata>
 <g transform="translate(-323.83 -93.626)">
  <path transform="matrix(.26458 0 0 .26458 323.83 93.626)" d="m40.629 0.0019531c-0.074532-0.13444-2.6195 4.8234-7.9688 15.521-4.3228 8.6454-7.8015 15.719-7.7305 15.719 0.071281 0 0.82375-0.087155 1.6719-0.19336 0.84816-0.10658 1.8978-0.23369 2.334-0.2832l0.79297-0.089844-1.627 3.1836c-0.89488 1.7509-3.4536 6.8046-5.6875 11.232-2.2339 4.4279-5.1944 10.278-6.5781 12.998l-2.5156 4.9453h0.72461c0.39889-3.78e-4 1.7094-0.057851 2.9102-0.12891 4.1108-0.24276 8.8902-0.45444 9.0527-0.40039 0.095056 0.031711-0.31014 0.70485-0.97852 1.623-0.62786 0.86253-2.8497 3.9309-4.9375 6.8203-2.0878 2.8893-4.4218 6.1134-5.1855 7.1641-0.7638 1.0507-2.2975 3.1705-3.4082 4.709-1.1107 1.5385-2.222 3.0726-2.4707 3.4102-0.46552 0.63213-6.904 9.527-8.2422 11.387-0.93566 1.3002-0.96101 1.3696-0.46094 1.2422 0.34035-0.086702 7.363-1.6064 13.561-2.9336 1.0882-0.23316 2.2233-0.4813 2.5234-0.55273 0.53666-0.12782 3.0982-0.68249 11.988-2.5977 2.4658-0.53125 4.5047-0.94651 4.5273-0.92383 0.023811 0.024-0.075128 1.3638-0.21875 2.9766-0.33902 3.7928-0.33801 3.8203 0.019531 3.8203 0.28573 0 1.6976 0.21693 6.1289 0.94336 1.3133 0.21521 2.4526 0.39869 2.5312 0.40625 0.081637 0.00824 0.12815-0.18024 0.10547-0.42969-0.021165-0.24393-0.16207-1.8559-0.3125-3.582-0.1508-1.7261-0.31049-3.547-0.35547-4.0469l-0.082032-0.9082 0.86524-0.080078c0.47599-0.043843 2.2778-0.14278 4.0039-0.21875 7.9353-0.34862 9.3162-0.40936 11.939-0.53711 2.9597-0.14404 7.8373-0.3705 11.631-0.53906 1.2559-0.055937 2.3118-0.13017 2.3496-0.16797 0.036435-0.036434-0.50834-1.3827-1.209-2.9922-0.70065-1.6095-1.3138-3.0565-1.3633-3.2148-0.10484-0.33638-0.39886-0.29734 5.7168-0.73633 2.1014-0.15084 5.4776-0.39639 7.5039-0.54492 6.5407-0.47981 9.2523-0.67807 10.541-0.76953 0.69419-0.049512 1.2617-0.10194 1.2617-0.11328 0-0.012813-0.4554-1.3487-1.0137-2.9688l-1.0156-2.9453 1.5273-0.076172c2.1212-0.10738 7.3346-0.32224 12.033-0.49609 2.1764-0.080503 4.4304-0.19123 5.0098-0.24414l1.0527-0.095703-0.52149-1.0918c-0.28701-0.60042-1.881-3.9288-3.543-7.3965-1.6619-3.4677-3.0215-6.329-3.0215-6.3555 0-0.027666 0.96643 0.15327 2.1484 0.40234 1.182 0.24915 2.2005 0.45455 2.2617 0.45508 0.06047 7.56e-4 0.07225-0.12018 0.02539-0.26758-0.04675-0.14736-1.895-3.9322-4.1074-8.4102-2.2125-4.4779-3.999-8.1651-3.9688-8.1953 0.02967-0.029481 0.82985 0.070719 1.7773 0.22266 2.2941 0.36813 2.1934 0.37778 1.9141-0.16602-0.20477-0.39855-2.1369-3.8337-3.666-6.5156-0.32092-0.56288-1.3473-2.3743-2.2813-4.0254-0.934-1.651-2.8552-5.0434-4.2695-7.5371l-2.5723-4.5332-0.70703 1.0547c-0.38835 0.58006-1.9492 2.897-3.4688 5.1484-1.5196 2.2514-3.8434 5.7038-5.1641 7.6738-1.3207 1.97-2.4509 3.582-2.5117 3.582-0.09343 0-10.761-21.35-14.539-29.098-0.64951-1.3321-1.2143-2.4219-1.2559-2.4219-0.041651 0-0.45617 0.78337-0.91992 1.7402-0.46379 0.95686-2.89 5.8747-5.3926 10.93l-4.5508 9.1914-0.52344-1.209c-0.28789-0.6647-1.6574-3.7874-3.0449-6.9395-4.2102-9.5646-4.8489-11.014-6.9297-15.76-1.1023-2.5141-2.0532-4.6609-2.1133-4.7695zm-0.67578 13.607c0.048605 0.056073 0.61367 1.5141 1.2578 3.2402 0.64414 1.7261 2.3117 6.1921 3.7051 9.9238 1.3934 3.7318 2.5332 6.8116 2.5332 6.8418 0 0.03137-0.07619 0.083172-0.16992 0.11719-0.093808 0.033146-0.63137-0.40541-1.1953-0.97461-1.1967-1.2079-2.1302-1.792-3.7832-2.3711-1.0461-0.36646-1.4248-0.42636-3.0273-0.47852-1.9083-0.062022-2.7001 0.040191-4.1484 0.54102-0.43718 0.15118-0.81339 0.25497-0.83984 0.22852-0.025058-0.025663 0.25284-0.84466 0.61719-1.8203 0.36416-0.97561 0.61856-1.8125 0.56641-1.8594-0.052157-0.04698-0.60061-0.25016-1.2188-0.45312l-1.123-0.36914 0.39062-0.70508c0.21521-0.38816 0.90817-1.6879 1.541-2.8887 3.6949-7.0107 4.8155-9.0639 4.8945-8.9727zm-1.3984 17.516c1.5092 0.024231 2.9115 0.70883 4.2715 2.0742l0.92969 0.93164-0.32226 0.8418c-0.74079 1.9401-1.8184 4.6075-1.8906 4.6797-0.042671 0.042671-0.59425-0.20414-1.2266-0.54883-1.2389-0.67544-1.5235-0.74735-1.6523-0.41211-0.044976 0.11872-0.083984 1.4696-0.083984 3.002v2.7871h1.8418 1.8438v0.66797 0.66992l1.0059-0.67188c1.365-0.90901 2.3072-1.2166 3.9746-1.3047 4.66-0.24571 7.622 2.7451 8.2441 8.3242 0.088441 0.79155 0.14648 4.7322 0.14648 9.9785v8.6699h-2.8652c-2.4201 0-2.8652-0.03103-2.8652-0.19922 0-0.14476-0.18456-0.082729-0.67578 0.22266-0.37129 0.23066-1.0318 0.50277-1.4668 0.60547-1.9623 0.46108-3.6348-0.086247-5.2227-1.709-1.5385-1.5723-2.2983-3.6008-2.4219-6.4707-0.17129-3.9766 1.1263-6.9377 3.8086-8.6875 1.2417-0.81018 2.5125-1.1559 4.1875-1.1445l1.4141 0.011718-0.091797-0.69336c-0.16989-1.2808-0.75854-1.8574-1.8965-1.8574-0.99666 0-1.8498 0.71086-3.5742 2.9746-0.11085 0.14547-0.35416-0.18599-1.0723-1.4609l-0.92969-1.6484h-1.6914-1.6895l-0.023437 9.7207c-0.011339 5.3472-0.011212 9.8604 0.003906 10.029l0.027344 0.30664h-3.1445-3.1426v-10.029-10.027h-0.88867-0.88672v-3.1387-3.1387h0.87109 0.86914l0.070313-3.5137c0.060094-2.9952 0.11295-3.6749 0.35938-4.6055 0.73406-2.7719 2.2058-4.4953 4.3086-5.043 0.52923-0.13785 1.0438-0.20144 1.5469-0.19336zm18.037 0.39453h3.0703 3.0703v19.648 19.648h-3.0703-3.0703v-19.648-19.648zm34.414 0.82031c0.052574-0.001625 1.0254 1.3919 2.1621 3.0957 2.3194 3.4767 2.271 3.2152 0.64258 3.3887-0.50661 0.054047-0.92188 0.12393-0.92188 0.15039 0 0.028044 1.9673 3.9857 4.373 8.7969 2.4058 4.8111 4.3525 8.7705 4.3223 8.8008-0.0294 0.02948-0.6313 0.15287-1.3379 0.27344-0.70654 0.12057-1.2952 0.22694-1.3027 0.23828-0.009448 0.010734 0.15629 0.3876 0.36719 0.83789 1.3299 2.8396 5.879 12.825 5.9531 13.066 0.06482 0.20976-0.03432 0.23921-0.86328 0.24024-0.5153 7.56e-4 -2.6256 0.05867-4.6895 0.13086-2.0638 0.072189-4.4677 0.17113-5.3418 0.21875l-1.5898 0.085937-0.375-0.66211c-0.20651-0.36431-0.45692-0.79854-0.55859-0.96484-0.2637-0.43208-0.25038-0.48472 0.43164-1.6484 3.983-6.7963 3.6044-17.515-0.85547-24.232-1.2593-1.8969-3.5178-3.9387-5.0664-4.5801-0.23985-0.099402-0.41916-0.22368-0.39648-0.27734 0.10246-0.25395 4.9633-6.9565 5.0469-6.959zm-52.477 0.41602c-0.57411-0.032544-1.1357 0.068554-1.6543 0.31055-1.1996 0.55979-1.9849 1.647-2.541 3.5195-0.27137 0.91325-0.30224 1.3859-0.35742 5.2676l-0.060546 4.2637h-0.875-0.87305v1.502 1.5h0.88672 0.88672v10.029 10.029h1.5 1.502v-10.029-10.029h1.8418 1.8418v-1.5-1.502h-1.8418-1.8418l0.001953-3.7871c0.001512-3.7124 0.008063-3.8005 0.33008-4.4922 0.18066-0.38804 0.46992-0.78165 0.64453-0.875 0.43438-0.23244 1.3252-0.21221 1.8203 0.041015 0.97912 0.50094 0.93804 0.53035 1.5645-1.082l0.57031-1.4707-0.51172-0.44531c-0.88531-0.76951-1.8771-1.1958-2.834-1.25zm19.701 0.40039v18.012 18.012h1.4316 1.4336v-18.012-18.012h-1.4336-1.4316zm26.219 10.641c4.951 0 8.4309 4.4233 9.1289 11.605 0.39693 4.0842-0.40161 8.8458-1.9434 11.588-1.9279 3.4288-5.13 5.1223-8.4473 4.4688-2.5333-0.49909-4.6338-2.2172-5.9551-4.873l-0.44141-0.88867-0.001954 1.8672-0.001953 1.8652-0.58008 0.5c-0.79582 0.68682-2.0087 1.2792-3.0879 1.5078-3.5604 0.75466-6.8015-1.2262-8.6816-5.3047-1.6395-3.5566-2.0532-9.4749-0.95508-13.654 0.35652-1.3569 1.2636-3.519 1.8672-4.4512 0.89136-1.3764 2.4591-2.8671 3.623-3.4453 1.2932-0.64229 2.2748-0.83775 3.7207-0.74023 1.2112 0.081675 2.3451 0.44383 3.4941 1.1172l0.59961 0.35156 0.001953 2.1426 0.003907 2.1445 0.44336-0.82031c1.7743-3.2803 4.2356-4.9805 7.2129-4.9805zm-56.766 0.21484c0.065386-0.072492 0.11719 1.9488 0.11719 4.5898 0 4.1784 0.025553 4.7294 0.2168 4.8027 0.11872 0.044976 0.7315 0.083984 1.3633 0.083984h1.1484v2.3867c0 1.3133-0.045248 2.3845-0.10156 2.377-0.22038-0.023168-7.9334-2.6546-8.0098-2.7324-0.088025-0.090066 0.11191-0.5831 1.0508-2.5781 0.33551-0.71297 1.3945-2.985 2.3535-5.0488 0.95902-2.0638 1.7967-3.8094 1.8613-3.8809zm56.795 1.4238c-0.86312 0.004599-1.7207 0.21026-2.5137 0.62695-2.3957 1.2589-4.0331 4.1154-4.7031 8.2031-0.25652 1.5656-0.2582 5.341-0.001953 6.8613 0.81075 4.8116 2.8585 7.8621 5.8047 8.6504 3.1887 0.85315 6.291-1.1343 7.7734-4.9785 2.308-5.9848 1.1978-14.603-2.2852-17.75-1.1841-1.0697-2.6357-1.6209-4.0742-1.6133zm-37.123 0.025391c-1.7056 0.045914-3.0078 0.64284-4.2129 1.9062l-0.76172 0.79687 0.44141 0.78516c0.24264 0.4314 0.59618 1.0605 0.78516 1.3984 0.18871 0.33766 0.35818 0.63761 0.38086 0.66406 0.020901 0.028006 0.33355-0.21112 0.69336-0.53125 1.0439-0.92859 1.9074-1.2632 3.0977-1.2031 1.4262 0.072038 2.1629 0.54479 2.8047 1.8027 0.45373 0.88928 0.47481 0.99834 0.52734 2.6895 0.030236 0.96949 0.002508 1.7628-0.0625 1.7617-0.065159-7.56e-4 -0.39686-0.085075-0.73438-0.1875-1.686-0.51114-3.7026-0.35693-5.1895 0.39648-1.5173 0.76887-2.7746 2.6076-3.2168 4.7051-0.32183 1.5266-0.19947 4.0864 0.26367 5.5137 0.61878 1.9068 1.7557 3.2444 3.2227 3.793 2.058 0.76966 3.895-0.28959 5.4277-3.127l0.57422-1.0625 0.039063 1.7734 0.039062 1.7734 1.2715 0.039063 1.2695 0.039062-0.048828-8.7031c-0.047244-8.4709-0.057074-8.7345-0.34961-9.7969-0.66236-2.4058-1.7278-3.9095-3.332-4.6992-0.74513-0.3668-1.0967-0.44942-2.1738-0.51367-0.261-0.015571-0.51221-0.020231-0.75586-0.013671zm24.861 0.042968c-1.2507 0-1.4423 0.035232-2.2832 0.43359-1.9381 0.91812-3.5183 2.9319-4.4766 5.7012-0.62449 1.8052-0.83041 3.0048-0.91016 5.3379-0.12227 3.5697 0.33691 6.2696 1.4727 8.6543 1.0173 2.1359 2.2616 3.3965 3.9805 4.0352 0.49636 0.18444 1.1687 0.31849 1.6133 0.32226 0.8838 0.00824 2.2433-0.40161 3.0059-0.90625l0.53125-0.34961v-2.1055c0-1.6486-0.03808-2.0816-0.17188-2-0.093808 0.057411-0.43302 0.30467-0.75391 0.54883-0.99413 0.75681-2.4563 0.95383-3.5098 0.47266-1.2002-0.54826-2.2434-2.1723-2.7305-4.248-0.35225-1.501-0.42737-4.6437-0.14844-6.25 0.44557-2.5654 1.5292-4.5225 2.8887-5.2129 1.2562-0.63795 2.7849-0.39968 3.998 0.62109l0.42774 0.35938v-2.3398-2.3398l-0.78516-0.36719c-0.6881-0.32239-0.95172-0.36719-2.1484-0.36719zm12.451 3.9141c1.481 0.11165 2.5661 0.95991 3.373 2.6348 1.2978 2.6935 1.5011 6.9082 0.48242 10.025-0.60408 1.8486-1.393 2.9499-2.5312 3.5371-0.63156 0.32542-1.5815 0.45807-2.1777 0.30274-1.4775-0.38449-2.7749-1.9595-3.3848-4.1094-0.60506-2.1328-0.65402-5.725-0.10742-7.8184 0.79287-3.0364 2.3926-4.7193 4.3457-4.5723zm-0.083985 1.6113c-1.7658 0-3.0215 2.7772-3.0215 6.6855 0 3.4004 0.78475 5.5513 2.377 6.5176 0.36038 0.21876 1.1306 0.11479 1.5781-0.21289 0.89265-0.65378 1.6281-2.3662 1.9062-4.4375 0.56935-4.242-0.86194-8.5527-2.8398-8.5527zm-12.326 0.16016c-1.0281-0.001684-1.9394 1.0468-2.5703 3.0488-0.45657 1.4482-0.53652 4.8474-0.1543 6.5723 0.42289 1.9083 1.2163 3.194 2.1172 3.4336 0.66762 0.17775 1.3599-0.079959 2.0957-0.78125 0.24881-0.23736 0.47079-0.28711 1.2773-0.28711 0.94632 0 0.97428-0.009192 0.89453-0.30664-0.045355-0.16887-0.18261-1.0139-0.30469-1.877-0.26294-1.8596-0.19052-5.8091 0.13867-7.5684 0.11376-0.59758 0.17451-1.1145 0.13672-1.1523-0.036926-0.037039-0.47876-0.09281-0.98242-0.12305-0.62279-0.03704-1.0039-0.13209-1.1895-0.29688-0.50008-0.44398-0.99165-0.66134-1.459-0.66211zm-24.271 6.9648c0.19689-0.012466 0.40257-0.012362 0.61719 0.001953 0.52834 0.03515 1.3219 0.17971 1.7637 0.32031l0.80469 0.25586-0.087891 1.4453c-0.17949 2.955-1.1297 5.1413-2.5488 5.8652-1.2872 0.65666-2.5446 0.18988-3.2227-1.1953-0.33313-0.68062-0.39044-0.98039-0.43164-2.2188-0.040441-1.2181-0.00474-1.5519 0.25-2.2285 0.53188-1.4138 1.4773-2.1588 2.8555-2.2461zm0.4375 1.5957c-0.70499-0.01606-1.3385 0.34474-1.6777 1.0039-0.40551 0.7892-0.40775 2.3663-0.003906 3.2793 0.2431 0.54962 0.33865 0.64062 0.67578 0.64062 0.877 0 1.7179-1.6814 1.9961-3.9941 0.072945-0.6062 0.053997-0.66232-0.26953-0.78516-0.24258-0.09223-0.48571-0.13918-0.7207-0.14453zm-26.969 22.404 20.52 0.027344 20.52 0.02539 0.78516 1.7754c0.52622 1.1875 0.73442 1.8011 0.63086 1.8574-0.085266 0.04611-0.95209 0.12312-1.9277 0.17188-0.97561 0.048756-2.6638 0.14807-3.752 0.21875-1.0882 0.070677-3.023 0.19085-4.2988 0.26758-1.2758 0.076724-3.3629 0.20421-4.6387 0.2832-1.2759 0.078992-3.2723 0.19961-4.4355 0.26953-1.1632 0.069922-3.1597 0.19287-4.4355 0.27148-1.2758 0.078614-3.2911 0.20163-4.4785 0.27344-1.1874 0.071811-2.5383 0.22211-3.002 0.33398-0.46363 0.11176-1.6088 0.38323-2.5469 0.60547-2.9253 0.6926-5.6835 1.3534-8.9395 2.1387-1.7261 0.41632-4.2121 1.006-5.5254 1.3125-1.3133 0.30633-2.6026 0.61033-2.8652 0.67383v0.003906c-0.26253 0.063875-0.53227 0.11759-0.59766 0.11914-0.15386 0.004233-0.11288-0.045337 2.3027-2.8398 1.1257-1.3023 2.2012-2.5679 2.3887-2.8105 0.1875-0.24272 0.43229-0.53556 0.54492-0.65234 0.11259-0.11667 1.0029-1.1384 1.9785-2.2695l1.7734-2.0566z" fill="#006649"/>
 </g>
</svg>
