<?xml version="1.0" encoding="UTF-8"?>
<!-- Created with Inkscape (http://www.inkscape.org/) -->
<svg width="100" height="99.994" version="1.1" viewBox="0 0 100 99.994" xml:space="preserve" xmlns="http://www.w3.org/2000/svg" xmlns:cc="http://creativecommons.org/ns#" xmlns:dc="http://purl.org/dc/elements/1.1/" xmlns:rdf="http://www.w3.org/1999/02/22-rdf-syntax-ns#"><metadata><rdf:RDF><cc:Work rdf:about=""><dc:format>image/svg+xml</dc:format><dc:type rdf:resource="http://purl.org/dc/dcmitype/StillImage"/><dc:title/></cc:Work></rdf:RDF></metadata><defs><clipPath id="clipPath3729"><path d="M 0,841.89 H 595.276 V 0 H 0 Z"/></clipPath></defs><g transform="matrix(1.3333 0 0 -1.3333 -285.9 914.08)"><g transform="matrix(.41694 0 0 .41694 125.02 355.99)"><g clip-path="url(#clipPath3729)"><g transform="translate(304.37 612.37)"><path d="m0 0c-48.541 0-88.13 39.583-88.13 88.135 0 48.537 39.589 88.131 88.13 88.131 48.553 0 88.149-39.594 88.149-88.131 0-48.552-39.596-88.135-88.149-88.135m0 178.06c-49.525 0-89.943-40.4-89.943-89.925 0-49.538 40.418-89.946 89.943-89.946 49.543 0 89.957 40.408 89.938 89.946 0 49.525-40.395 89.925-89.938 89.925" fill="#004d44" fill-rule="evenodd"/></g><g transform="translate(304.37 639.34)"><path d="m0 0c-33.662 0-61.146 27.478-61.146 61.163 0 33.677 27.484 61.153 61.146 61.153 33.676 0 61.143-27.476 61.143-61.153 0-33.685-27.467-61.163-61.143-61.163m0 124.48c-34.867 0-63.3-28.451-63.3-63.315 0-34.883 28.433-63.314 63.3-63.314 34.88 0 63.313 28.431 63.313 63.314 0 34.864-28.433 63.315-63.313 63.315" fill="#004d44" fill-rule="evenodd"/></g><g transform="translate(306.23 719.84)"><path d="m0 0 3.316 16.048 21.878 0.025c5.427-0.301 8.344-1.521 12.207-5.824 2.593-2.877 4.037-7.291 3.859-11.885-0.202-5.481-3.459-10.783-6.697-13.33-3.579-2.85-6.792-3.523-9.268-3.895l-10.596-0.369 3.536 16.937h3.138c1.389 8e-3 2.634-0.158 2.653 1.267 0 0.869-1.222 1.03-2.653 1.03zm-10.293-50.042 9.833 47.782 16.102-4e-3 -6.615-32.482 8.726 5e-3 -3.096-15.281zm-2.474 0 13.894 67.786-20.729-25.089 4.36-0.01-20.246-22.582h4.724l-17.914-20.085z" fill="#004d44" fill-rule="evenodd"/></g><g transform="translate(237.18 707.22)"><path d="m0 0-14.133 2.754 0.543 2.88 11.76-2.289 1.39 7.167 2.391-0.475zm7.401 24.785-1.206-2.965-3.54 0.066-2.171-5.389 2.594-2.348-1.164-2.892-11.341 10.7 1.144 2.874zm-7.359-2.854-5.771 0.161 4.281-3.836zm4.18 6.923 1.449 2.466c0.883-0.428 1.652-0.551 2.332-0.398 0.667 0.173 1.27 0.61 1.77 1.334 0.585 0.764 0.825 1.458 0.765 2.075-0.019 0.629-0.263 1.096-0.704 1.402-0.263 0.212-0.561 0.304-0.865 0.276-0.34-0.018-0.703-0.18-1.146-0.48-0.303-0.203-0.924-0.725-1.889-1.525-1.247-1.049-2.273-1.659-3.096-1.836-1.187-0.254-2.235-0.043-3.159 0.631-0.602 0.437-1.044 1.014-1.306 1.734-0.281 0.717-0.34 1.496-0.144 2.332 0.204 0.835 0.626 1.708 1.289 2.61 1.049 1.476 2.193 2.353 3.38 2.628 1.187 0.281 2.351 0.046 3.435-0.713l-1.605-2.444c-0.685 0.338-1.269 0.437-1.789 0.292-0.505-0.136-1.007-0.548-1.472-1.213-0.519-0.691-0.763-1.33-0.763-1.924 0-0.393 0.144-0.694 0.442-0.911 0.285-0.2 0.607-0.266 0.965-0.165 0.483 0.121 1.27 0.648 2.374 1.614 1.127 0.95 2.033 1.603 2.737 1.945 0.68 0.337 1.384 0.483 2.128 0.429 0.727-0.056 1.467-0.359 2.194-0.897 0.681-0.481 1.187-1.13 1.505-1.935 0.303-0.8 0.364-1.648 0.165-2.543-0.22-0.885-0.708-1.839-1.449-2.86-1.067-1.488-2.23-2.382-3.518-2.684-1.246-0.302-2.617-0.046-4.025 0.76m15.284 11.805-4.18 4.48-9.637 2.517 2.498 2.354 6.453-1.87-1.491 6.484 2.494 2.307 1.83-9.812 4.163-4.464zm11.963 9.859-6.596 12.949 4.181 2.136c1.592 0.809 2.676 1.267 3.219 1.386 0.847 0.182 1.67 0.081 2.493-0.321 0.846-0.391 1.508-1.1 2.051-2.13 0.405-0.795 0.603-1.533 0.584-2.229-0.023-0.692-0.16-1.3-0.441-1.839-0.304-0.532-0.644-0.97-1.067-1.297-0.542-0.446-1.407-0.964-2.594-1.569l-1.73-0.873 2.517-4.882zm-2.875 12.093 1.867-3.684 1.431 0.738c1.025 0.52 1.688 0.94 1.968 1.258 0.262 0.302 0.447 0.658 0.483 1.039 0.06 0.393-0.019 0.785-0.221 1.157-0.221 0.478-0.561 0.794-1.002 0.961-0.424 0.167-0.865 0.18-1.347 0.034-0.346-0.1-0.99-0.381-1.915-0.864zm26.823-2.9-3.096-0.83-2.092 2.861-5.589-1.502-0.321-3.499-3-0.804 1.712 15.502 2.993 0.81zm-6.715 4.158-3.339 4.689-0.483-5.719zm8.747-3.976-1.03 14.51 2.857 0.199 6.618-9.274-0.685 9.685 2.736 0.191 1.002-14.497-2.934-0.212-6.517 9.049 0.668-9.451zm15.459 5.443 2.855-0.216c0-0.975 0.221-1.734 0.663-2.261 0.465-0.538 1.108-0.876 1.992-1.042 0.924-0.166 1.65-0.089 2.212 0.226 0.542 0.312 0.847 0.724 0.947 1.254 0.06 0.344 0.019 0.648-0.162 0.919-0.142 0.275-0.463 0.538-0.924 0.794-0.303 0.181-1.049 0.529-2.212 1.041-1.466 0.654-2.474 1.321-2.998 1.994-0.741 0.941-1.003 1.971-0.805 3.111 0.124 0.73 0.447 1.368 0.989 1.932 0.502 0.569 1.205 0.938 2.009 1.14 0.846 0.192 1.808 0.192 2.934 0 1.789-0.317 3.06-0.95 3.842-1.894 0.763-0.95 1.066-2.09 0.887-3.413l-2.94 0.383c0 0.767-0.16 1.342-0.501 1.724-0.34 0.4-0.925 0.666-1.747 0.814-0.846 0.144-1.531 0.09-2.075-0.177-0.34-0.161-0.542-0.437-0.602-0.798-0.059-0.338 0.019-0.66 0.262-0.952 0.322-0.371 1.146-0.838 2.493-1.421 1.366-0.584 2.332-1.107 2.957-1.578 0.58-0.474 1.026-1.05 1.306-1.736 0.263-0.683 0.323-1.483 0.179-2.387-0.137-0.81-0.5-1.548-1.104-2.176-0.583-0.635-1.305-1.062-2.193-1.262-0.901-0.203-1.968-0.191-3.237 0.03-1.809 0.317-3.114 0.986-3.938 1.984-0.828 1.017-1.185 2.328-1.089 3.967m16.791-8.672 4.323 11.282-4.001 1.543 0.865 2.298 10.776-4.144-0.865-2.296-4.021 1.544-4.321-11.275zm10.836-4.582 5.491 13.894 2.475-1.725-3.941-9.436 7.901 6.655 2.855-1.995-3.719-9.788 7.638 7.044 2.415-1.699-11.222-9.872-2.553 1.784 3.858 10.55-8.581-7.239zm18.963-5.71c1.126 0.975 2.213 1.622 3.255 1.94 0.765 0.234 1.568 0.335 2.392 0.29 0.829-0.044 1.568-0.225 2.213-0.552 0.906-0.433 1.728-1.106 2.494-1.991 1.407-1.615 2.031-3.349 1.872-5.189-0.162-1.843-1.127-3.536-2.917-5.087-1.771-1.542-3.578-2.262-5.41-2.17-1.83 0.09-3.458 0.945-4.865 2.553-1.407 1.628-2.028 3.364-1.89 5.187 0.161 1.836 1.108 3.505 2.856 5.019m2.069-2.218c-1.247-1.076-1.927-2.187-2.069-3.314-0.162-1.135 0.16-2.14 0.942-3.026 0.746-0.874 1.694-1.322 2.816-1.341 1.15-3e-3 2.335 0.539 3.619 1.643 1.245 1.097 1.954 2.182 2.092 3.274 0.142 1.086-0.2 2.091-0.985 2.999-0.803 0.915-1.747 1.377-2.854 1.398-1.129 9e-3 -2.291-0.533-3.561-1.633m4.103-17.417 11.706 9.292 1.281-2.729-8.121-6.202 10.155 1.81 1.486-3.167-8.123-6.59 10.156 2.256 1.246-2.668-14.677-2.946-1.309 2.824 8.627 7.214-11.08-1.975zm6.757-16.519 14.257 2.774 2.051-10.575-2.395-0.467-1.51 7.684-3.155-0.607 1.389-7.167-2.396-0.459-1.385 7.157-3.898-0.752 1.565-7.971-2.412-0.463z" fill="#004d44" fill-rule="evenodd"/></g><g transform="translate(298.55 782.02)"><path d="m0 0 1.044 3.09 3.117 0.318-2.391-3.227z" fill="#004d44" fill-rule="evenodd"/></g><g transform="translate(379.44 668.32)"><path d="m0 0-0.968-2.348-0.443-0.963-8.04-2.464 1.007 1.79 0.936 1.826 7.86 3.15zm-3.18-6.933-1.212-2.119-8.254-1.755 1.406 2.086 0.852 1.376 8.291 2.558zm-4.102-6.605-0.676-0.93-8.402-1.11 0.132 0.155 1.766 2.176 0.719 0.955 8.465 1.801-0.554-0.896zm-3.196-4.182-1.631-1.9-8.554-0.592 0.637 0.611 1.95 2.053 0.498 0.571 8.604 1.138zm-5.468-5.913-0.815-0.76-8.589-0.058 1.121 0.93 2.129 1.924 0.07 0.067 8.726 0.61-0.734-0.797zm-4.061-3.673-1.948-1.595-8.415 0.596 1.598 1.145 1.926 1.489 8.761 0.051zm-4.323-3.439-2.315-1.633-0.917-0.608-8.06 1.263 2.002 1.215 1.654 1.099 8.569-0.615zm-7.078-4.698-2.094-1.202-7.988 1.718 0.01 4e-3 2.67 1.399 1.493 0.829 8.244-1.29zm-5.027-2.781-2.613-1.295-0.686-0.313-7.592 2.312 0.234 0.09 2.837 1.215 0.924 0.429 8.182-1.753zm-7.985-3.644-2.004-0.775-7.157 2.874 0.639 0.196 2.958 1.031 0.807 0.31 7.766-2.367-0.29-0.131zm-5.564-2.047-2.858-0.892-0.207-0.058-7.063 3.292 1.076 0.254 3.096 0.827 0.509 0.158 7.291-2.935zm-5.754-1.714-2.957-0.719-1.403-0.305-6.531 3.776 1.277 0.205 3.197 0.615 0.118 0.028 7.202-3.343zm-8.946-1.914-2.75-0.409-5.847 4.233 1.435 0.128 3.298 0.403 0.021 5e-3 6.642-3.851zm-18.094-0.426-2.741 0.413-2.808 0.513 6.656 3.843 0.016-3e-3 3.274-0.399 1.443-0.132zm-11.687 2.331-0.899 0.253 7.188 3.35 0.105-0.026 3.197-0.63 1.273-0.204-6.518-3.772-1.388 0.296zm-5.748 1.716-1.862 0.645 7.3 2.927 0.532-0.16 3.058-0.828 1.075-0.249-7.053-3.292-0.193 0.054zm-8.307 3.18-0.29 0.133 7.758 2.362 0.815-0.315 2.958-1.029 0.635-0.193-7.145-2.872-2.016 0.775zm-5.247 2.504-1.291 0.687 8.166 1.75 0.925-0.433 2.839-1.213 0.226-0.088-7.567-2.315-0.704 0.324zm-7.389 4.237 8.241 1.294 1.503-0.835 2.672-1.39 0.034-0.016-8.005-1.707-2.082 1.204zm-4.694 3.235-0.961 0.731 8.561 0.614 1.65-1.101 1.997-1.216-8.054-1.266-0.92 0.615zm-4.364 3.45-1.94 1.69 8.77-0.055 1.936-1.499 1.598-1.137-8.41-0.604zm-5.97 5.589-0.731 0.796 8.731-0.613 0.062-0.06 2.13-1.939 1.106-0.915-8.574 0.061-0.796 0.756zm-3.542 3.996-1.5 1.878 8.605-1.13 0.517-0.586 1.95-2.053 0.615-0.602-8.565 0.597zm-4.662 6.34-0.55 0.88 8.477-1.786 0.719-0.964 1.765-2.182 0.139-0.158-8.397 1.113-0.686 0.935zm-2.636 4.438-1.101 2.151 8.281-2.538 0.864-1.397 1.434-2.095-8.284 1.764zm-3.527 7.932 7.837-3.153 0.938-1.833 1.006-1.784-8.046 2.476-0.439 0.952-0.948 2.353zm3.945 6.909 0.566-1.881 0.888-2.566 1.003-2.521 0.666-1.475-7.096 2.852zm4.429-8.353-0.846 1.858-1.007 2.471-0.864 2.513-0.562 1.873 7.13-3.043zm6.181 1.054-3.467-6.229-1.245 2.205-0.862 1.711 4.005 5.894 0.356-0.899 0.859-1.961zm2.567-4.74-2.763-6.493-0.236 0.319-1.527 2.253-0.775 1.245 3.39 6.088 0.963-1.791zm2.553-3.878 0.453-0.597-2.025-6.713-0.598 0.68-1.753 2.141-0.546 0.735 2.708 6.384 0.533-0.825zm2.694-3.473 1.28-1.462-1.401-6.778-1.005 0.981-1.913 2.025-0.268 0.306 1.978 6.601zm4.563-4.894 0.652-0.605-0.712-6.871-1.508 1.254-2.085 1.876 1.38 6.68 0.705-0.753zm3.376-3.06 1.547-1.266-0.064-6.888-1.961 1.405-1.817 1.412 0.701 6.744zm5.474-4.195 0.757-0.5 0.559-6.858-2.485 1.523-1.623 1.065 0.081 6.76 0.838-0.639zm3.936-2.532 1.637-0.937 1.44-6.924-0.418 0.197-2.659 1.376-1.349 0.753-0.528 6.707zm6.297-3.387 0.572-0.262 1.868-6.706-0.573 0.222-2.791 1.196-0.903 0.423-1.414 6.794 1.107-0.599zm4.424-1.95 1.52-0.581 2.669-6.628-0.974 0.298-2.916 1.011-0.853 0.329-1.835 6.589 0.153-0.072zm6.995-2.441 0.153-0.045 3.518-6.486-1.44 0.34-3.035 0.809-0.508 0.155-2.631 6.529 1.57-0.549zm4.826-1.289 1.325-0.283 3.947-6.217-1.653 0.265-3.137 0.606-0.078 0.018-3.47 6.403 0.655-0.185zm7.077-1.321 4.601-5.975-1.644 0.147-3.154 0.391-3.899 6.134 2.027-0.377zm12.207 0.016 2.069 0.313 2.019 0.372-3.876-6.13-3.17-0.379-1.637-0.146zm7.078 1.315 2.451 0.608 0.61 0.176-3.462-6.385-0.082-0.02-3.137-0.615-1.663-0.27 3.948 6.22zm7.198 2.043 1.584 0.549-2.644-6.52-0.509-0.155-3.017-0.82-1.44-0.335 3.521 6.491 0.149 0.044zm4.622 1.692 2.23 0.942 0.174 0.08-1.853-6.591-0.849-0.326-2.917-1.015-0.955-0.291 2.643 6.612zm4.424 1.956 2.153 1.068 1.083 0.578-1.39-6.769-0.921-0.429-2.773-1.196-0.596-0.228 1.87 6.71zm6.292 3.374 1.897 1.183-0.544-6.716-1.329-0.75-2.655-1.366-0.442-0.207 1.438 6.907zm3.942 2.542 1.89 1.344 0.836 0.64 0.065-6.756-1.623-1.073-2.464-1.501 0.533 6.837zm5.491 4.197 1.605 1.419 0.674-6.761-1.796-1.405-1.964-1.4-0.082 6.866zm4.944 4.631 0.703 0.765 1.366-6.692-2.086-1.87-1.51-1.252-0.714 6.854 0.654 0.607zm2.977 3.322 1.338 1.654 2.003-6.578-0.283-0.322-1.932-2.02-1.004-0.98-1.389 6.799zm3.94 5.269 0.53 0.831 2.706-6.368-0.56-0.755-1.727-2.144-0.602-0.683-2.045 6.715 0.451 0.609zm2.272 3.705 0.955 1.772 3.385-6.09-0.78-1.236-1.526-2.243-0.227-0.306-2.768 6.474zm1.95 3.831 0.888 1.966 0.342 0.888 4.008-5.904-0.855-1.685-1.247-2.218-3.482 6.23zm5.847-1.791-3.862 5.69 7.127 3.044-0.545-1.877-0.885-2.507-0.984-2.48zm8.392 2.775-7.104-2.85 0.671 1.479 1.003 2.527 0.905 2.563 0.567 1.883zm1.892-0.547-0.447 0.627-5.164 7.282-0.304 0.393-0.442-0.19-8.951-3.818-0.68-0.293 0.258-0.373-0.664-1.644-0.822-1.912-0.943-1.887-0.984-1.86-1.068-1.834-1.144-1.789-1.228-1.76-1.288-1.725-1.348-1.674-1.448-1.655-1.485-1.602-1.569-1.56-1.593-1.52-1.705-1.468-1.728-1.424-1.809-1.387-1.829-1.322-1.932-1.267-1.951-1.221-2.01-1.171-2.075-1.101-2.11-1.06-2.147-0.986-2.213-0.93-2.236-0.867-2.291-0.808-2.348-0.732-2.356-0.668-2.415-0.611-2.431-0.528-2.495-0.452-2.492-0.386-0.221-0.226-5.252-6.826-5.261 6.803-0.202 0.23-2.511 0.388-2.498 0.459-2.433 0.533-2.391 0.593-2.374 0.677-2.332 0.735-2.29 0.8-2.254 0.871-2.212 0.93-2.153 0.995-2.111 1.045-2.046 1.106-2.014 1.166-1.97 1.221-1.913 1.268-1.848 1.331-1.808 1.376-1.73 1.425-1.688 1.478-1.608 1.515-1.551 1.556-1.509 1.615-1.407 1.644-1.366 1.677-1.305 1.726-1.206 1.759-1.15 1.792-1.063 1.824-1.007 1.873-0.924 1.883-0.846 1.916-0.648 1.655 0.248 0.362-0.686 0.281-8.946 3.826-0.44 0.191-0.286-0.403-5.165-7.269-0.464-0.628 0.403-0.161 0.724-2.034 0.984-2.4 1.091-2.362 1.181-2.317 1.288-2.288 1.388-2.238 1.51-2.197 1.568-2.148 1.669-2.118 1.767-2.05 1.853-2 1.927-1.952 2.032-1.885 2.093-1.845 2.17-1.778 2.232-1.716 2.331-1.65 2.374-1.587 2.474-1.523 2.512-1.445 2.574-1.378 2.631-1.307 2.696-1.233 2.754-1.151 2.797-1.07 2.833-0.999 2.898-0.911 2.934-0.817 2.976-0.745 3.035-0.639 3.059-0.557 3.076-0.469 0.222 0.018 7.332 5.299 7.283-5.29 0.222-9e-3 3.076 0.46 3.06 0.552 3.034 0.657 2.976 0.741 2.934 0.818 2.894 0.915 2.854 0.989 2.779 1.072 2.755 1.154 2.691 1.223 2.635 1.31 2.594 1.376 2.516 1.455 2.451 1.527 2.392 1.577 2.313 1.661 2.231 1.71 2.169 1.77 2.112 1.841 2.015 1.899 1.95 1.939 1.849 2.007 1.748 2.051 1.687 2.106 1.592 2.158 1.467 2.197 1.408 2.241 1.265 2.281 1.208 2.322 1.087 2.362 0.984 2.398 0.705 2.028z" fill="#004d44"/></g></g></g></g></svg>
