<?xml version="1.0" encoding="UTF-8" standalone="no"?>
<!-- Created with Inkscape (http://www.inkscape.org/) -->

<svg
   xmlns:dc="http://purl.org/dc/elements/1.1/"
   xmlns:cc="http://creativecommons.org/ns#"
   xmlns:rdf="http://www.w3.org/1999/02/22-rdf-syntax-ns#"
   xmlns:svg="http://www.w3.org/2000/svg"
   xmlns="http://www.w3.org/2000/svg"
   xmlns:sodipodi="http://sodipodi.sourceforge.net/DTD/sodipodi-0.dtd"
   xmlns:inkscape="http://www.inkscape.org/namespaces/inkscape"
   width="29.520891mm"
   height="26.458204mm"
   viewBox="0 0 29.520891 26.458204"
   version="1.1"
   id="svg8"
   inkscape:version="0.92.4 (5da689c313, 2019-01-14)"
   sodipodi:docname="logo.svg">
  <defs
     id="defs2" />
  <sodipodi:namedview
     id="base"
     pagecolor="#ffffff"
     bordercolor="#666666"
     borderopacity="1.0"
     inkscape:pageopacity="0.0"
     inkscape:pageshadow="2"
     inkscape:zoom="3.959798"
     inkscape:cx="87.134021"
     inkscape:cy="2.4263177"
     inkscape:document-units="mm"
     inkscape:current-layer="layer1"
     showgrid="false"
     inkscape:pagecheckerboard="true"
     inkscape:window-width="1920"
     inkscape:window-height="1001"
     inkscape:window-x="-9"
     inkscape:window-y="-9"
     inkscape:window-maximized="1" />
  <metadata
     id="metadata5">
    <rdf:RDF>
      <cc:Work
         rdf:about="">
        <dc:format>image/svg+xml</dc:format>
        <dc:type
           rdf:resource="http://purl.org/dc/dcmitype/StillImage" />
        <dc:title></dc:title>
      </cc:Work>
    </rdf:RDF>
  </metadata>
  <g
     inkscape:label="Layer 1"
     inkscape:groupmode="layer"
     id="layer1"
     transform="translate(-323.8348,-93.625994)">
    <path
       style="fill:#006649;fill-opacity:1;stroke:none;stroke-width:0.03610278"
       d="m 334.1148,119.97677 c -1.17244,-0.1922 -1.54594,-0.24972 -1.62154,-0.24972 -0.0946,0 -0.0947,-0.007 -0.005,-1.0105 0.038,-0.42671 0.0639,-0.78104 0.0576,-0.78739 -0.006,-0.006 -0.54536,0.10343 -1.19778,0.24399 -2.35217,0.50672 -3.02989,0.6536 -3.17188,0.68742 -0.0794,0.0189 -0.37998,0.0848 -0.6679,0.14649 -1.63976,0.35114 -3.49786,0.75295 -3.58791,0.77589 -0.13231,0.0337 -0.12552,0.0154 0.12204,-0.32862 0.35407,-0.49205 2.05757,-2.84538 2.18074,-3.01263 0.0658,-0.0893 0.36009,-0.49551 0.65397,-0.90257 0.29387,-0.40706 0.69965,-0.96755 0.90174,-1.24554 0.20208,-0.278 0.81938,-1.13093 1.37177,-1.8954 0.55239,-0.76448 1.14026,-1.57668 1.30638,-1.80489 0.17684,-0.24294 0.28422,-0.42086 0.25907,-0.42925 -0.043,-0.0143 -1.30785,0.0415 -2.39549,0.10573 -0.3177,0.0188 -0.66399,0.0342 -0.76953,0.0343 l -0.19188,1.4e-4 0.66564,-1.30873 c 0.3661,-0.7198 1.14922,-2.26725 1.74026,-3.43879 0.59104,-1.17153 1.26835,-2.50908 1.50512,-2.97233 l 0.4305,-0.84227 -0.20984,0.0239 c -0.11541,0.0131 -0.39344,0.0469 -0.61785,0.0751 -0.2244,0.0281 -0.42343,0.0512 -0.44229,0.0512 -0.0188,0 0.90151,-1.87153 2.04526,-4.158954 1.41533,-2.830542 2.08879,-4.142218 2.10851,-4.106648 0.0159,0.02874 0.26761,0.596512 0.55927,1.261706 0.55054,1.25559 0.7192,1.639245 1.83314,4.169871 0.36711,0.833974 0.72978,1.660205 0.80595,1.836075 l 0.13848,0.31976 1.2039,-2.431773 c 0.66214,-1.337474 1.30428,-2.638911 1.42699,-2.892081 0.1227,-0.253171 0.23212,-0.460311 0.24314,-0.460311 0.011,0 0.16066,0.288371 0.33251,0.640825 0.99953,2.049961 3.82198,7.69892 3.8467,7.69892 0.0161,0 0.31524,-0.42647 0.66468,-0.9477 0.34943,-0.52123 0.9643,-1.43509 1.36637,-2.03078 0.40206,-0.5957 0.8151,-1.208655 0.91785,-1.362128 l 0.18683,-0.279043 0.68035,1.199661 c 0.3742,0.6598 0.88255,1.55707 1.12967,1.99391 0.24712,0.43685 0.51878,0.91611 0.60369,1.06504 0.40458,0.7096 0.91612,1.61845 0.9703,1.7239 0.0739,0.14388 0.10011,0.1416 -0.50687,0.0442 -0.25069,-0.0402 -0.46221,-0.0667 -0.47006,-0.0589 -0.008,0.008 0.46469,0.98363 1.05007,2.1684 0.58538,1.18478 1.07446,2.18604 1.08683,2.22503 0.0124,0.039 0.009,0.0708 -0.007,0.0706 -0.0162,-1.4e-4 -0.28539,-0.0541 -0.59813,-0.12002 -0.31274,-0.0659 -0.56862,-0.11379 -0.56862,-0.10647 0,0.007 0.35977,0.76398 0.79949,1.68147 0.43973,0.91749 0.86163,1.79813 0.93757,1.95699 l 0.13808,0.28882 -0.27869,0.0255 c -0.15328,0.014 -0.74984,0.0429 -1.32568,0.0642 -1.24318,0.046 -2.62264,0.10294 -3.18387,0.13135 l -0.40395,0.0204 0.26857,0.77933 c 0.14771,0.42864 0.26857,0.78212 0.26857,0.78551 0,0.003 -0.15028,0.0168 -0.33395,0.0299 -0.34097,0.0242 -1.05838,0.0765 -2.78894,0.20345 -0.53613,0.0393 -1.42967,0.10413 -1.98566,0.14404 -1.6181,0.11615 -1.54002,0.10608 -1.51228,0.19508 0.0131,0.0419 0.17541,0.4246 0.36079,0.85044 0.18538,0.42584 0.32916,0.78216 0.31952,0.7918 -0.01,0.01 -0.28942,0.0296 -0.62171,0.0444 -1.00372,0.0446 -2.29412,0.10426 -3.07721,0.14237 -0.69406,0.0338 -1.05946,0.0503 -3.159,0.14254 -0.4567,0.0201 -0.9334,0.046 -1.05934,0.0576 l -0.22899,0.0211 0.0216,0.24046 c 0.0119,0.13226 0.0542,0.61413 0.0941,1.07083 0.0398,0.4567 0.0771,0.88316 0.0827,0.9477 0.006,0.066 -0.006,0.11564 -0.0276,0.11346 -0.0208,-0.002 -0.32219,-0.0505 -0.66968,-0.10744 z m -6.82342,-1.83447 c 0.0695,-0.0168 0.41067,-0.097 0.75816,-0.17805 0.34748,-0.0811 1.00546,-0.23756 1.46216,-0.34771 0.86147,-0.20777 1.59075,-0.38213 2.36473,-0.56538 0.24821,-0.0588 0.55166,-0.13105 0.67433,-0.16062 0.12268,-0.0296 0.4801,-0.0693 0.79426,-0.0883 0.31417,-0.019 0.8474,-0.0516 1.18496,-0.0724 0.33756,-0.0208 0.86557,-0.053 1.17334,-0.0715 0.30778,-0.0185 0.83578,-0.0506 1.17335,-0.0715 0.33756,-0.0209 0.88993,-0.0546 1.22749,-0.0749 0.33756,-0.0203 0.84932,-0.0523 1.13724,-0.071 0.28792,-0.0187 0.73469,-0.0446 0.99282,-0.0575 0.25814,-0.0129 0.48779,-0.0335 0.51035,-0.0457 0.0274,-0.0149 -0.0277,-0.1774 -0.16693,-0.4916 l -0.20793,-0.46933 -5.429,-0.007 -5.42901,-0.007 -0.46934,0.54415 c -0.25813,0.29928 -0.4937,0.5694 -0.52349,0.60027 -0.0298,0.0309 -0.0948,0.10867 -0.14441,0.17289 -0.0496,0.0642 -0.33395,0.39869 -0.6318,0.74325 -0.63913,0.73938 -0.64985,0.75261 -0.60914,0.75149 0.0173,-4.1e-4 0.0884,-0.0146 0.15786,-0.0315 z m 5.7907,-3.5043 c 0.0501,-0.0191 0.12431,-0.0678 0.16481,-0.10831 0.0685,-0.0685 0.0736,-0.11766 0.0736,-0.70544 v -0.6318 h -0.14441 -0.14441 l -5.5e-4,0.51447 c -5.4e-4,0.57716 -0.0145,0.66537 -0.11035,0.69578 -0.11815,0.0375 -0.21408,-0.0443 -0.21408,-0.18259 0,-0.12377 -0.002,-0.12509 -0.15888,-0.12509 h -0.15888 l 0.0178,0.17112 c 0.01,0.0941 0.0319,0.19736 0.049,0.22941 0.0764,0.14282 0.41978,0.22093 0.62619,0.14245 z m 10.58021,-0.005 c 0.19536,-0.0542 0.36212,-0.23148 0.42868,-0.45564 0.12152,-0.40919 -0.0593,-0.85849 -0.39724,-0.98697 -0.15386,-0.0585 -0.44767,-0.0388 -0.61268,0.0411 -0.50041,0.24224 -0.47609,1.13938 0.0372,1.37248 0.16975,0.0771 0.33854,0.0861 0.54404,0.029 z m -0.47489,-0.33003 c -0.16506,-0.18122 -0.2029,-0.42071 -0.1039,-0.65764 0.13146,-0.31463 0.55597,-0.30461 0.68432,0.0162 0.10303,0.25751 0.0492,0.54108 -0.1261,0.66384 -0.12638,0.0885 -0.36398,0.0768 -0.45432,-0.0224 z m -8.45885,0.18954 v -0.14441 h -0.37908 -0.37908 v -0.18051 -0.18052 h 0.32192 c 0.33877,0 0.36525,-0.0134 0.3353,-0.17012 -0.015,-0.0787 -0.031,-0.0826 -0.3365,-0.0826 h -0.32072 v -0.14441 -0.14441 h 0.36103 0.36103 v -0.12636 -0.12636 h -0.52349 -0.52349 v 0.72206 0.72205 h 0.54154 0.54154 z m 1.19139,0.052 c 0.20033,-0.11686 0.2945,-0.3248 0.29282,-0.64656 -0.002,-0.34213 -0.0877,-0.52825 -0.29187,-0.63242 -0.11672,-0.0596 -0.21291,-0.0727 -0.53203,-0.0727 l -0.38954,-3e-5 0.0105,0.72603 0.0105,0.72604 0.38663,-0.0133 c 0.30732,-0.0106 0.41255,-0.0284 0.51299,-0.087 z m -0.61375,-0.652 v -0.45563 l 0.22064,0.016 c 0.18053,0.0131 0.23279,0.0319 0.28749,0.10362 0.14763,0.19359 0.11999,0.61863 -0.0479,0.73621 -0.0469,0.0329 -0.15679,0.0555 -0.26971,0.0555 h -0.19054 z m 1.88093,0.24816 c 0.1078,-0.52272 0.13366,-0.61318 0.13798,-0.48268 0.002,0.0473 0.018,0.14481 0.0365,0.21662 0.0185,0.0718 0.05,0.2199 0.0701,0.32911 0.0865,0.47126 0.066,0.43324 0.23313,0.43314 l 0.15057,-1.1e-4 0.20206,-0.71293 0.20206,-0.71294 -0.14433,-0.0114 c -0.0799,-0.006 -0.15549,0.007 -0.16935,0.0291 -0.0138,0.0223 -0.0715,0.23858 -0.12837,0.4807 l -0.10336,0.44023 -0.0469,-0.21662 c -0.0258,-0.11914 -0.0725,-0.33523 -0.10372,-0.48022 l -0.0568,-0.2636 -0.16826,0.0109 -0.16826,0.0109 -0.0928,0.46409 c -0.1055,0.52766 -0.0895,0.53708 -0.25224,-0.14819 l -0.0793,-0.33395 h -0.15823 c -0.087,2e-5 -0.15822,0.008 -0.15822,0.017 0,0.009 0.072,0.26523 0.15992,0.56862 0.088,0.3034 0.17818,0.62156 0.20049,0.70704 0.0403,0.15432 0.0416,0.15535 0.18968,0.14442 l 0.14912,-0.011 z m 1.42257,0.35187 0.0422,-0.12636 0.27066,-0.0104 0.27065,-0.0104 0.0573,0.14582 c 0.0539,0.13718 0.066,0.14583 0.2046,0.14583 0.0953,0 0.14634,-0.016 0.14456,-0.0451 -0.002,-0.0248 -0.11166,-0.34569 -0.24476,-0.71303 l -0.242,-0.6679 -0.18449,-0.0108 -0.18448,-0.0108 -0.0547,0.15518 c -0.0301,0.0853 -0.13748,0.38868 -0.23866,0.67407 -0.10118,0.28538 -0.18396,0.54219 -0.18396,0.57069 0,0.0385 0.0386,0.049 0.15042,0.0407 0.13609,-0.01 0.15444,-0.0231 0.19265,-0.13747 z m 0.14263,-0.44226 c 0.008,-0.0248 0.0503,-0.15807 0.0945,-0.29612 l 0.0804,-0.251 0.0832,0.251 c 0.11453,0.34553 0.1157,0.34125 -0.0928,0.34125 -0.12696,0 -0.17527,-0.0132 -0.16529,-0.0451 z m 2.0314,0.50372 c 0.0639,-0.0342 0.13402,-0.0954 0.15573,-0.13594 0.0677,-0.12655 0.0509,-0.35543 -0.0346,-0.4711 -0.0719,-0.0972 -0.0736,-0.11194 -0.0224,-0.18518 0.0853,-0.12182 0.0708,-0.3308 -0.0313,-0.44959 l -0.0871,-0.1013 h -0.47356 -0.47356 l -0.0116,0.6679 c -0.006,0.36735 -0.004,0.68986 0.006,0.71668 0.0276,0.0754 0.81658,0.0417 0.97201,-0.0415 z m -0.67586,-0.38638 v -0.18052 h 0.21662 c 0.16848,0 0.23266,0.016 0.28882,0.0722 0.16556,0.16556 0.0489,0.28882 -0.27335,0.28882 h -0.23209 z m 0,-0.57765 v -0.14441 h 0.19562 c 0.25964,0 0.30982,0.0234 0.30982,0.14441 0,0.12102 -0.0502,0.14441 -0.30982,0.14441 h -0.19562 z m 1.45209,0.5742 0.0101,-0.47278 0.28139,0.47278 0.2814,0.47278 h 0.16086 0.16087 v -0.72205 -0.72206 h -0.16246 -0.16247 l -5.4e-4,0.46031 -5.5e-4,0.46031 -0.2725,-0.46031 -0.27249,-0.46031 h -0.16013 -0.16012 v 0.72206 0.72205 h 0.14336 0.14336 l 0.0101,-0.47278 z m -5.08775,-1.63545 c 0.1151,-0.0271 0.28975,-0.0993 0.3881,-0.1604 0.12997,-0.0808 0.17883,-0.0968 0.17883,-0.0585 0,0.0445 0.11785,0.0527 0.75816,0.0527 h 0.75815 v -2.29395 c 0,-1.38808 -0.0152,-2.43063 -0.0386,-2.64006 -0.1646,-1.47615 -0.94878,-2.26797 -2.18173,-2.20296 -0.44118,0.0233 -0.69027,0.10515 -1.05142,0.34566 l -0.26633,0.17737 v -0.17695 -0.17695 h -0.48739 -0.48738 v -0.73715 c 0,-0.40544 0.01,-0.76286 0.0219,-0.79427 0.0341,-0.0887 0.10963,-0.07 0.43741,0.10871 0.1673,0.0912 0.31341,0.15657 0.3247,0.14528 0.0191,-0.0191 0.30405,-0.72456 0.50005,-1.23788 l 0.0851,-0.22279 -0.2459,-0.24688 c -0.47978,-0.48168 -0.9794,-0.64303 -1.5395,-0.49714 -0.55636,0.14491 -0.94579,0.60061 -1.14001,1.334 -0.0652,0.24621 -0.0792,0.426 -0.0951,1.21847 l -0.0186,0.92965 h -0.23007 -0.23008 v 0.83036 0.83037 h 0.23467 0.23467 v 2.65355 2.65356 h 0.83173 0.83173 l -0.007,-0.0812 c -0.004,-0.0447 -0.004,-1.23878 -0.001,-2.65356 l 0.006,-2.57232 h 0.44735 0.44736 l 0.24579,0.4364 c 0.19,0.33733 0.2544,0.42509 0.28373,0.3866 0.45624,-0.59895 0.68217,-0.7869 0.94587,-0.7869 0.30108,0 0.45664,0.15235 0.50159,0.49123 l 0.0243,0.18356 -0.37396,-0.003 c -0.44319,-0.003 -0.77932,0.0885 -1.10785,0.30286 -0.70969,0.46298 -1.05314,1.2462 -1.00782,2.29833 0.0327,0.75932 0.2335,1.29597 0.64057,1.71197 0.42025,0.42949 0.86322,0.57435 1.38262,0.45214 z m -0.62692,-0.44754 c -0.38812,-0.14515 -0.6886,-0.4989 -0.85232,-1.00341 -0.12254,-0.37763 -0.15495,-1.05518 -0.0698,-1.4591 0.117,-0.55497 0.44957,-1.04145 0.85102,-1.24488 0.39339,-0.19934 0.92715,-0.2401 1.37324,-0.10486 0.0893,0.0271 0.17656,0.0494 0.1938,0.0496 0.0172,2.8e-4 0.0248,-0.20947 0.0168,-0.46598 -0.0139,-0.44744 -0.0196,-0.47635 -0.13965,-0.71164 -0.16981,-0.33283 -0.36448,-0.45802 -0.74183,-0.47708 -0.31492,-0.0159 -0.54374,0.073 -0.81995,0.31869 -0.0952,0.0847 -0.17759,0.14785 -0.18312,0.14044 -0.006,-0.007 -0.051,-0.0866 -0.10093,-0.17594 -0.05,-0.0894 -0.14341,-0.25585 -0.20761,-0.36999 l -0.11673,-0.20753 0.20123,-0.21097 c 0.3644,-0.38203 0.7624,-0.53357 1.31486,-0.50061 0.28499,0.017 0.37792,0.039 0.57507,0.13605 0.42445,0.20895 0.70662,0.60678 0.88187,1.24331 0.0774,0.28109 0.0799,0.35048 0.0924,2.59175 l 0.0129,2.30294 -0.33613,-0.0104 -0.33613,-0.0104 -0.0103,-0.46934 -0.0103,-0.46933 -0.15211,0.2816 c -0.40553,0.75072 -0.89172,1.03069 -1.43623,0.82705 z m 0.83114,-0.98144 c 0.37547,-0.19155 0.62679,-0.76997 0.67428,-1.55181 l 0.0232,-0.3823 -0.21253,-0.0677 c -0.11688,-0.0372 -0.3269,-0.0753 -0.46669,-0.0846 -0.45428,-0.0303 -0.75794,0.16584 -0.91877,0.59335 -0.0674,0.17901 -0.0773,0.26734 -0.0666,0.58963 0.0109,0.32765 0.0265,0.40734 0.11464,0.58742 0.17941,0.3665 0.51186,0.48975 0.85242,0.31601 z m -0.4745,-0.53141 c -0.10685,-0.24156 -0.10629,-0.65888 0.001,-0.86769 0.11968,-0.23254 0.37785,-0.32509 0.63458,-0.22748 0.0856,0.0325 0.0906,0.0472 0.0713,0.20759 -0.0736,0.61191 -0.29598,1.0571 -0.52802,1.0571 -0.0892,0 -0.11471,-0.0241 -0.17903,-0.16952 z m -3.38682,-1.29264 v -2.65356 h -0.23467 -0.23466 v -0.39713 -0.39713 h 0.23122 0.23122 l 0.016,-1.12821 c 0.0146,-1.02702 0.0231,-1.15202 0.0949,-1.39365 0.14714,-0.49543 0.35483,-0.78315 0.67223,-0.93126 0.36587,-0.17074 0.81269,-0.0772 1.18747,0.24856 l 0.13551,0.11778 -0.15121,0.38921 c -0.16574,0.42661 -0.15455,0.41887 -0.41361,0.28633 -0.131,-0.067 -0.36658,-0.0723 -0.48151,-0.0108 -0.0462,0.0247 -0.12318,0.12899 -0.17098,0.23166 -0.0852,0.18301 -0.0869,0.20628 -0.0873,1.18852 l -4.1e-4,1.00185 h 0.48738 0.48739 v 0.39713 0.39713 h -0.48739 -0.48738 v 2.65356 2.65355 h -0.39713 -0.39713 z m 10.3659,3.25148 c 0.28553,-0.0605 0.60638,-0.2172 0.81694,-0.39892 l 0.15343,-0.13243 5.5e-4,-0.4936 5.5e-4,-0.4936 0.11685,0.23487 c 0.3496,0.7027 0.9051,1.15737 1.57536,1.28942 0.87768,0.17291 1.72495,-0.27539 2.23503,-1.18258 0.40792,-0.7255 0.61917,-1.98511 0.51415,-3.06571 -0.18467,-1.90029 -1.10508,-3.07049 -2.41504,-3.07049 -0.78773,0 -1.43931,0.44983 -1.90876,1.31775 l -0.11717,0.21661 -8.2e-4,-0.56709 -8.1e-4,-0.5671 -0.15861,-0.093 c -0.30401,-0.17816 -0.60402,-0.27413 -0.92448,-0.29574 -0.38256,-0.0258 -0.64209,0.0259 -0.98425,0.19584 -0.30796,0.15299 -0.72296,0.54768 -0.9588,0.91186 -0.15971,0.24663 -0.39966,0.81871 -0.49399,1.17773 -0.29054,1.10579 -0.18093,2.67181 0.25286,3.61284 0.49745,1.0791 1.35489,1.60296 2.2969,1.40329 z m -0.82521,-0.46871 c -0.45479,-0.16898 -0.78395,-0.50276 -1.05311,-1.06789 -0.3005,-0.63094 -0.42206,-1.34513 -0.38971,-2.28961 0.0211,-0.6173 0.0752,-0.93458 0.24043,-1.4122 0.25354,-0.73271 0.67198,-1.26544 1.18477,-1.50836 0.22249,-0.1054 0.27284,-0.11499 0.60376,-0.11499 0.31663,0 0.38656,0.012 0.56862,0.0973 l 0.20759,0.0973 v 0.61896 0.61895 l -0.11313,-0.0952 c -0.32097,-0.27008 -0.72506,-0.33274 -1.05742,-0.16395 -0.3597,0.18267 -0.64655,0.70008 -0.76444,1.37884 -0.0738,0.425 -0.0542,1.25664 0.039,1.65379 0.12886,0.5492 0.40511,0.97879 0.72267,1.12385 0.27872,0.12731 0.66577,0.0752 0.9288,-0.12504 0.0849,-0.0646 0.17459,-0.12989 0.19941,-0.14508 0.0354,-0.0216 0.0451,0.0931 0.0451,0.5293 v 0.55693 l -0.14028,0.0928 c -0.20177,0.13352 -0.56149,0.24198 -0.79533,0.2398 -0.11763,-0.001 -0.29541,-0.0367 -0.42674,-0.0855 z m 3.45631,0.0295 c -0.77951,-0.20856 -1.32104,-1.01574 -1.53555,-2.2888 -0.0678,-0.40225 -0.0676,-1.40116 2.7e-4,-1.8154 0.17729,-1.08154 0.61066,-1.83735 1.24451,-2.17043 0.55948,-0.294 1.24202,-0.19178 1.74328,0.26108 0.92154,0.83255 1.21498,3.11305 0.60433,4.69652 -0.39224,1.01711 -1.21316,1.54276 -2.05684,1.31703 z m 0.77488,-1.10112 c 0.30116,-0.15536 0.50978,-0.447 0.66961,-0.93612 0.26952,-0.82477 0.21597,-1.93975 -0.1274,-2.6524 -0.21351,-0.44314 -0.50084,-0.66748 -0.8927,-0.69702 -0.51675,-0.0389 -0.94006,0.40645 -1.14984,1.20983 -0.14462,0.55388 -0.13149,1.50425 0.0286,2.06854 0.16136,0.56883 0.50453,0.98552 0.89544,1.08725 0.15776,0.0411 0.40921,0.006 0.57631,-0.0801 z m -0.54322,-0.36583 c -0.42127,-0.25566 -0.62878,-0.82472 -0.62878,-1.72442 0,-1.03408 0.33206,-1.76904 0.79925,-1.76904 0.52332,0 0.902,1.14049 0.75136,2.26284 -0.0736,0.54803 -0.2683,1.00132 -0.50448,1.1743 -0.1184,0.0867 -0.322,0.11418 -0.41735,0.0563 z m -3.2516,0.003 c -0.23835,-0.0634 -0.44798,-0.40365 -0.55987,-0.90856 -0.10113,-0.45637 -0.0801,-1.35581 0.0407,-1.73898 0.2428,-0.77049 0.64272,-1.00736 1.06612,-0.63146 0.0491,0.0436 0.14974,0.0688 0.31452,0.0786 0.13326,0.008 0.2503,0.0225 0.26007,0.0323 0.01,0.01 -0.006,0.14714 -0.0361,0.30525 -0.0871,0.46547 -0.10627,1.51035 -0.0367,2.00237 0.0323,0.22835 0.0685,0.45174 0.0805,0.49642 0.0211,0.0787 0.0137,0.0812 -0.23668,0.0812 -0.2134,0 -0.27233,0.0132 -0.33816,0.076 -0.19469,0.18555 -0.37778,0.25386 -0.55442,0.20683 z m 7.42448,1.88262 c 0.54606,-0.0191 1.10439,-0.0348 1.24073,-0.035 0.21933,-2.7e-4 0.24567,-0.008 0.22852,-0.0635 -0.0196,-0.0638 -1.2235,-2.70554 -1.57537,-3.45684 -0.0558,-0.11914 -0.0994,-0.21894 -0.0969,-0.22178 0.002,-0.003 0.15746,-0.0312 0.3444,-0.0631 0.18695,-0.0319 0.34627,-0.0643 0.35405,-0.0721 0.008,-0.008 -0.50665,-1.05565 -1.14319,-2.32859 -0.63653,-1.27295 -1.15733,-2.32052 -1.15733,-2.32794 0,-0.007 0.10966,-0.0252 0.2437,-0.0395 0.43084,-0.0459 0.44391,0.0232 -0.16977,-0.89668 -0.30076,-0.4508 -0.55821,-0.81929 -0.57212,-0.81886 -0.0221,6.7e-4 -1.30827,1.77376 -1.33538,1.84095 -0.006,0.0142 0.0415,0.0472 0.10496,0.0735 0.40973,0.16971 1.00731,0.70991 1.34051,1.21179 1.18002,1.77736 1.2801,4.61343 0.22627,6.41162 -0.18045,0.3079 -0.18406,0.32169 -0.11429,0.43601 0.0269,0.044 0.0935,0.15883 0.14814,0.25522 l 0.0993,0.17525 0.42048,-0.0229 c 0.23126,-0.0126 0.86725,-0.0385 1.4133,-0.0576 z m -9.78385,-5.34248 v -5.1988 h -0.81231 -0.81232 v 5.1988 5.1988 h 0.81232 0.81231 z m -1.19139,0 v -4.76557 h 0.37908 0.37907 v 4.76557 4.76556 h -0.37907 -0.37908 z m -7.32887,1.24554 v -0.6318 h -0.30392 c -0.16716,0 -0.32962,-0.01 -0.36103,-0.0219 -0.0506,-0.0194 -0.0571,-0.16529 -0.0571,-1.27082 0,-0.69878 -0.0137,-1.23379 -0.031,-1.21461 -0.0171,0.0189 -0.23862,0.48108 -0.49236,1.02713 -0.25374,0.54605 -0.53398,1.14716 -0.62275,1.3358 -0.24841,0.52785 -0.30161,0.65821 -0.27832,0.68204 0.0202,0.0206 2.06113,0.71699 2.11944,0.72312 0.0149,0.002 0.0271,-0.28146 0.0271,-0.62895 z m 4.47675,-5.88953 c 0,-0.008 -0.30165,-0.82294 -0.67032,-1.8103 -0.36867,-0.987359 -0.80976,-2.168863 -0.98019,-2.625563 -0.17043,-0.4567 -0.32038,-0.842502 -0.33324,-0.857338 -0.0209,-0.02413 -0.31699,0.518751 -1.2946,2.373655 -0.16744,0.317704 -0.35103,0.661676 -0.40797,0.764376 l -0.10352,0.18673 0.29737,0.0975 c 0.16355,0.0537 0.30867,0.10771 0.32247,0.12014 0.0138,0.0124 -0.0538,0.2338 -0.15015,0.49193 -0.0964,0.25814 -0.16982,0.47489 -0.16319,0.48168 0.007,0.007 0.10669,-0.0204 0.22236,-0.0604 0.3832,-0.13251 0.59276,-0.1599 1.09766,-0.14349 0.424,0.0138 0.52406,0.0296 0.80084,0.12656 0.43737,0.15322 0.68428,0.30805 1.00092,0.62763 0.14921,0.1506 0.29161,0.26665 0.31643,0.25788 0.0248,-0.009 0.0451,-0.0227 0.0451,-0.031 z"
       id="path21"
       inkscape:connector-curvature="0" />
  </g>
</svg>
