<?xml version="1.0" encoding="UTF-8"?>
<svg width="100" height="100" enable-background="new 0 0 480 480" version="1.1" viewBox="0 0 100 100" xml:space="preserve" xmlns="http://www.w3.org/2000/svg" xmlns:cc="http://creativecommons.org/ns#" xmlns:dc="http://purl.org/dc/elements/1.1/" xmlns:rdf="http://www.w3.org/1999/02/22-rdf-syntax-ns#"><metadata><rdf:RDF><cc:Work rdf:about=""><dc:format>image/svg+xml</dc:format><dc:type rdf:resource="http://purl.org/dc/dcmitype/StillImage"/><dc:title/></cc:Work></rdf:RDF></metadata>





<g transform="matrix(1.2129 0 0 1.2129 -437.29 -306.09)">
	
		<path d="m401.75 334.8c-22.73 0-41.223-18.492-41.223-41.223 0-22.729 18.492-41.222 41.223-41.222 22.729 0 41.222 18.492 41.222 41.222 0 22.731-18.492 41.223-41.222 41.223zm0-81.044c-21.958 0-39.822 17.864-39.822 39.821 0 21.958 17.864 39.822 39.822 39.822 21.957 0 39.821-17.864 39.821-39.822 0-21.957-17.864-39.821-39.821-39.821z" fill="#3E4651"/>
	
	
		
			
				
					<path d="m411.89 307.79h-12.574c-0.387 0-0.7-0.313-0.7-0.7v-4.408c0-0.386 0.313-0.7 0.7-0.7h12.574c0.387 0 0.7 0.314 0.7 0.7v4.408c0 0.387-0.314 0.7-0.7 0.7zm-11.874-1.4h11.174v-3.008h-11.174z" fill="#3E4651"/>
				
				
					<path d="m424.47 307.79h-12.577c-0.387 0-0.7-0.314-0.7-0.701v-4.414c0-0.387 0.313-0.699 0.7-0.699h12.577c0.387 0 0.7 0.313 0.7 0.699v4.414c0 0.387-0.314 0.701-0.7 0.701zm-11.877-1.4h11.177v-3.014h-11.177z" fill="#3E4651"/>
				
			
			
				<path d="m418.18 303.38h-12.577c-0.387 0-0.7-0.314-0.7-0.701v-4.414c0-0.387 0.313-0.7 0.7-0.7h12.577c0.387 0 0.7 0.313 0.7 0.7v4.414c0 0.386-0.314 0.701-0.7 0.701zm-11.877-1.4h11.177v-3.015h-11.177z" fill="#3E4651"/>
			
			
				
					
						<path d="m430.76 312.21h-12.577c-0.387 0-0.7-0.313-0.7-0.7v-4.415c0-0.387 0.313-0.699 0.7-0.699h12.577c0.387 0 0.7 0.313 0.7 0.699v4.415c0 0.387-0.313 0.7-0.7 0.7zm-11.877-1.4h11.177v-3.014h-11.177z" fill="#3E4651"/>
					
				
				
					<path d="m405.6 312.2h-12.574c-0.387 0-0.7-0.313-0.7-0.699v-4.408c0-0.387 0.313-0.7 0.7-0.7h12.574c0.387 0 0.7 0.313 0.7 0.7v4.408c0 0.386-0.314 0.699-0.7 0.699zm-11.875-1.4h11.174v-3.007h-11.174z" fill="#3E4651"/>
				
				
					<path d="m418.18 312.21h-12.577c-0.387 0-0.7-0.313-0.7-0.7v-4.415c0-0.387 0.313-0.699 0.7-0.699h12.577c0.387 0 0.7 0.313 0.7 0.699v4.415c0 0.387-0.314 0.7-0.7 0.7zm-11.877-1.4h11.177v-3.014h-11.177z" fill="#3E4651"/>
				
			
		
		
			
				
					<path d="m379.04 287.51c-0.387 0-0.7-0.313-0.7-0.699v-4.41c0-0.387 0.313-0.701 0.7-0.701h6.287c0.387 0 0.7 0.314 0.7 0.701s-0.313 0.699-0.7 0.699h-5.587v3.711c0 0.386-0.313 0.699-0.7 0.699z" fill="#3E4651"/>
				
			
			
				<path d="m385.32 283.1c-0.387 0-0.7-0.313-0.7-0.699v-4.422c0-0.387 0.313-0.699 0.7-0.699h12.576c0.387 0 0.7 0.313 0.7 0.699s-0.313 0.701-0.7 0.701h-11.876v3.721c0 0.386-0.313 0.699-0.7 0.699z" fill="#3E4651"/>
			
			
				
					
						<path d="m410.48 287.51h-3.745c-0.387 0-0.7-0.313-0.7-0.699s0.313-0.701 0.7-0.701h3.745c0.387 0 0.7 0.314 0.7 0.701s-0.314 0.699-0.7 0.699z" fill="#3E4651"/>
					
				
				
					<path d="m372.74 291.92c-0.387 0-0.7-0.313-0.7-0.7v-4.409c0-0.387 0.313-0.701 0.7-0.701h6.299c0.387 0 0.7 0.314 0.7 0.701s-0.313 0.699-0.7 0.699h-5.599v3.71c1e-3 0.386-0.313 0.7-0.7 0.7z" fill="#3E4651"/>
				
			
		
		
			<path d="m393.03 312.2c-0.179 0-0.358-0.068-0.495-0.205l-20.292-20.283c-0.272-0.273-0.273-0.717 0-0.99s0.717-0.273 0.99 0l20.292 20.283c0.273 0.273 0.273 0.717 0 0.99-0.136 0.137-0.315 0.205-0.495 0.205z" fill="#3E4651"/>
		
		
			<path d="m393.03 307.8c-0.179 0-0.358-0.068-0.495-0.205l-20.292-20.286c-0.272-0.273-0.273-0.717 0-0.99s0.717-0.273 0.99 0l20.292 20.286c0.273 0.273 0.273 0.717 0 0.99-0.136 0.137-0.315 0.205-0.495 0.205z" fill="#3E4651"/>
		
		
			<path d="m399.32 307.79c-0.179 0-0.358-0.068-0.495-0.205l-20.281-20.279c-0.273-0.273-0.273-0.717 0-0.99s0.717-0.273 0.99 0l20.281 20.279c0.273 0.273 0.273 0.717 0 0.99-0.136 0.137-0.315 0.205-0.495 0.205z" fill="#3E4651"/>
		
		
			<path d="m399.32 303.67c-0.181 0-0.361-0.07-0.499-0.208l-20.28-20.569c-0.271-0.275-0.268-0.719 7e-3 -0.99 0.276-0.271 0.718-0.269 0.99 7e-3l20.28 20.568c0.271 0.275 0.269 0.719-7e-3 0.99-0.136 0.135-0.313 0.202-0.491 0.202z" fill="#3E4651"/>
		
		
			<path d="m405.6 303.38c-0.18 0-0.358-0.068-0.495-0.205l-20.282-20.279c-0.273-0.273-0.273-0.717 0-0.99s0.717-0.273 0.99 0l20.282 20.278c0.273 0.274 0.273 0.718 0 0.991-0.136 0.137-0.316 0.205-0.495 0.205z" fill="#3E4651"/>
		
		
			<path d="m405.6 298.96c-0.18 0-0.358-0.068-0.495-0.205l-20.282-20.285c-0.273-0.272-0.273-0.716 0-0.989s0.717-0.273 0.99 0l20.282 20.284c0.273 0.273 0.273 0.717 0 0.99-0.136 0.137-0.316 0.205-0.495 0.205z" fill="#3E4651"/>
		
		
			<path d="m418.18 298.96c-0.18 0-0.358-0.068-0.495-0.205l-20.283-20.285c-0.273-0.272-0.273-0.716 0-0.989s0.717-0.273 0.99 0l20.283 20.284c0.273 0.273 0.273 0.717 0 0.99-0.137 0.137-0.317 0.205-0.495 0.205z" fill="#3E4651"/>
		
		
			<path d="m430.76 307.79c-0.179 0-0.358-0.069-0.495-0.205l-20.283-20.283c-0.273-0.273-0.273-0.717 0-0.99s0.717-0.273 0.99 0l20.283 20.283c0.273 0.273 0.273 0.717 0 0.99-0.137 0.136-0.315 0.205-0.495 0.205z" fill="#3E4651"/>
		
	
</g>











</svg>
