<?xml version="1.0" encoding="UTF-8"?>
<svg width="100" height="100" enable-background="new 0 0 480 480" version="1.1" viewBox="0 0 100 100" xml:space="preserve" xmlns="http://www.w3.org/2000/svg" xmlns:cc="http://creativecommons.org/ns#" xmlns:dc="http://purl.org/dc/elements/1.1/" xmlns:rdf="http://www.w3.org/1999/02/22-rdf-syntax-ns#"><metadata><rdf:RDF><cc:Work rdf:about=""><dc:format>image/svg+xml</dc:format><dc:type rdf:resource="http://purl.org/dc/dcmitype/StillImage"/><dc:title/></cc:Work></rdf:RDF></metadata>












<g fill="#ffab40" stroke="#ffab40" stroke-width="1.2"><path d="m50.287 43.809v-0.99933h12.214v1.9987h-12.214z"/><path d="m44.772 44.647c-0.77069-0.33525-0.81168-1.3134-0.07156-1.7076 0.1545-0.08229 0.86988-0.12917 1.9709-0.12917h1.7284v1.9987l-1.6378-0.0043c-1.1396-3e-3 -1.7449-0.05094-1.9899-0.15752z"/><path d="m50.287 47.584v-0.99933h12.214v1.9987h-12.214z"/><path d="m46.21 48.506c-0.13532-0.02619-0.37709-0.20337-0.53726-0.39372-0.3545-0.4213-0.3086-0.8973 0.12316-1.2772 0.2557-0.22502 0.3991-0.24983 1.4436-0.24983h1.1597v1.9987l-0.97157-0.01512c-0.53436-0.0083-1.0823-0.03655-1.2176-0.06274z"/><path d="m44.71 52.186c-0.63419-0.34416-0.72522-1.0866-0.18859-1.5381 0.33623-0.28292 0.36957-0.28746 2.1097-0.28746h1.7681v1.9987l-1.6933-0.0044c-1.2772-0.0034-1.7677-0.0448-1.9959-0.16864z"/><path d="m46.078 55.994c-0.68024-0.34959-0.82168-0.96224-0.35525-1.5388 0.19754-0.2442 0.30528-0.26668 1.4449-0.30146l1.2314-0.03758v2.0183l-1.0271-0.0016c-0.59378-9.44e-4 -1.1397-0.0595-1.294-0.1388z"/><path d="m44.775 59.799c-0.34-0.13721-0.59482-0.54829-0.59482-0.95958 0-0.25904 0.09168-0.43119 0.34163-0.64152 0.33623-0.28292 0.36957-0.28746 2.1097-0.28746h1.7681v1.9987l-1.6933-7e-3c-0.93132-0.0039-1.8004-0.05025-1.9313-0.10306z"/><path d="m50.287 58.91v-0.99933h12.214v1.9987h-12.214z"/><path d="m50.287 55.135v-0.99933h12.214v1.9987h-12.214z"/><path d="m50.287 51.36v-0.99933h12.214v1.9987h-12.214z"/><path d="m64.389 51.36v-0.99933h12.325v1.9987h-12.325z"/><path d="m64.389 55.135v-0.99933h12.325v1.9987h-12.325z"/><path d="m64.389 58.91v-0.99933h12.325v1.9987h-12.325z"/><path d="m78.49 58.918v-1.0068h1.7681c1.7401 0 1.7735 0.0045 2.1097 0.28746 0.45397 0.38199 0.47822 0.98884 0.05541 1.3865-0.27524 0.25886-0.35618 0.27054-2.1097 0.30442l-1.8235 0.03523z"/><path d="m78.49 55.135v-0.99933h1.1744c1.15 0 1.1812 0.0068 1.499 0.32457 0.51073 0.51073 0.40981 1.1764-0.22839 1.5064-0.22284 0.11523-0.65607 0.1677-1.3847 0.1677h-1.0604z"/><path d="m78.49 51.36v-0.99933h1.7681c1.7401 0 1.7735 0.0045 2.1097 0.28746 0.54579 0.45925 0.44372 1.2048-0.21133 1.5435-0.24711 0.12779-0.72206 0.1677-1.9954 0.1677h-1.6711z"/><path d="m78.49 47.584v-0.99933h1.1744c1.15 0 1.1812 0.0068 1.499 0.32457 0.36685 0.36685 0.4164 0.76449 0.1466 1.1763-0.23216 0.35432-0.77642 0.49644-1.904 0.49721l-0.91605 6.2e-4z"/><path d="m64.389 47.584v-0.99933h12.325v1.9987h-12.325z"/><path d="m64.389 43.809v-0.99933h12.325v1.9987h-12.325z"/><path d="m78.49 43.809v-0.99933h1.7284c1.7381 0 2.0609 0.05972 2.3487 0.43453 0.16925 0.22044 0.18036 0.73041 0.02235 1.0257-0.22593 0.42215-0.76297 0.53848-2.4858 0.53848h-1.6136z"/></g><g transform="matrix(1.2129 0 0 1.2129 -44.914 -176.11)" fill="#3E4651">
	
		<path d="m78.251 227.64c-22.729 0-41.222-18.492-41.222-41.222s18.492-41.222 41.222-41.222 41.222 18.492 41.222 41.222c0 22.729-18.492 41.222-41.222 41.222zm0-81.044c-21.958 0-39.821 17.864-39.821 39.822s17.864 39.821 39.821 39.821 39.821-17.864 39.821-39.821c1e-3 -21.958-17.863-39.822-39.821-39.822z"/>
	
	
		
			
				<path d="m96.992 205.3c-2.397 0-4.348-1.951-4.348-4.347 0-2.397 1.951-4.348 4.348-4.348s4.347 1.95 4.347 4.348c0 2.397-1.95 4.347-4.347 4.347zm0-7.294c-1.625 0-2.947 1.322-2.947 2.947s1.322 2.947 2.947 2.947 2.947-1.322 2.947-2.947-1.322-2.947-2.947-2.947z"/>
			
			
				<path d="m87.255 205.3c-2.397 0-4.348-1.951-4.348-4.347 0-2.397 1.951-4.348 4.348-4.348s4.347 1.95 4.347 4.348c0 2.397-1.95 4.347-4.347 4.347zm0-7.294c-1.625 0-2.947 1.322-2.947 2.947s1.322 2.947 2.947 2.947 2.947-1.322 2.947-2.947-1.322-2.947-2.947-2.947z"/>
			
			
				<path d="m87.255 201.86c-0.499 0-0.905-0.406-0.905-0.904 0-0.499 0.406-0.905 0.905-0.905s0.904 0.406 0.904 0.905-0.406 0.904-0.904 0.904z"/>
			
			
				<path d="m96.992 201.86c-0.499 0-0.905-0.406-0.905-0.904 0-0.499 0.406-0.905 0.905-0.905s0.904 0.406 0.904 0.905-0.406 0.904-0.904 0.904z"/>
			
			
				<path d="m59.825 205.3c-2.397 0-4.347-1.951-4.347-4.347 0-2.397 1.95-4.347 4.347-4.347s4.347 1.95 4.347 4.347-1.95 4.347-4.347 4.347zm0-7.294c-1.625 0-2.947 1.322-2.947 2.947s1.322 2.947 2.947 2.947 2.947-1.322 2.947-2.947-1.322-2.947-2.947-2.947z"/>
			
			
				<path d="m59.825 201.86c-0.499 0-0.904-0.406-0.904-0.904 0-0.499 0.406-0.905 0.904-0.905 0.499 0 0.905 0.406 0.905 0.905-1e-3 0.499-0.406 0.904-0.905 0.904z"/>
			
			
				<path d="m55.619 201.64c-0.052 0-0.104-6e-3 -0.158-0.018l-6.336-1.458c-0.786-0.18-1.335-0.87-1.335-1.677v-6.538c0-0.837 0.599-1.55 1.423-1.695l7.321-1.29 1.978-5.21c0.252-0.664 0.899-1.11 1.609-1.11h7.676c0.387 0 0.7 0.313 0.7 0.7v14.194c0 0.387-0.313 0.7-0.7 0.7s-0.7-0.313-0.7-0.7v-13.494h-6.976c-0.132 0-0.253 0.083-0.3 0.208l-2.119 5.582c-0.087 0.23-0.29 0.398-0.533 0.441l-7.713 1.358c-0.154 0.027-0.266 0.16-0.266 0.316v6.538c0 0.15 0.102 0.279 0.249 0.313l6.336 1.458c0.376 0.087 0.612 0.462 0.525 0.839-0.074 0.324-0.362 0.543-0.681 0.543z"/>
			
			
				<path d="m83.607 201.65h-2.646c-0.387 0-0.7-0.313-0.7-0.7v-1.354h-4.92c-0.387 0-0.7-0.313-0.7-0.7s0.313-0.7 0.7-0.7h5.62c0.387 0 0.7 0.313 0.7 0.7v1.354h1.946c0.387 0 0.7 0.313 0.7 0.7s-0.313 0.7-0.7 0.7z"/>
			
			
				<path d="m103.49 201.65h-2.646c-0.387 0-0.7-0.313-0.7-0.7s0.313-0.7 0.7-0.7h1.946v-4.938c0-0.387 0.313-0.7 0.7-0.7s0.7 0.313 0.7 0.7v5.638c1e-3 0.386-0.313 0.7-0.7 0.7z"/>
			
			
				<path d="m102.94 196.01h-26.791c-0.387 0-0.7-0.313-0.7-0.7s0.313-0.7 0.7-0.7h26.791c0.387 0 0.7 0.313 0.7 0.7s-0.313 0.7-0.7 0.7z"/>
			
			
				<path d="m75.341 201.65-11.87-4e-3c-0.386 0-0.7-0.314-0.7-0.701 0-0.386 0.314-0.7 0.7-0.7l11.169 4e-3v-2.411c0-0.387 0.313-0.7 0.7-0.7s0.7 0.313 0.7 0.7v3.111c0 0.186-0.074 0.364-0.205 0.495-0.13 0.132-0.308 0.206-0.494 0.206z"/>
			
			
				<path d="m93.076 201.65h-1.905c-0.387 0-0.7-0.313-0.7-0.7s0.313-0.7 0.7-0.7h1.905c0.387 0 0.7 0.313 0.7 0.7s-0.313 0.7-0.7 0.7z"/>
			
			
				<path d="m63.544 191.14h-3.719c-0.387 0-0.7-0.313-0.7-0.7s0.313-0.7 0.7-0.7h3.719c0.387 0 0.7 0.313 0.7 0.7s-0.313 0.7-0.7 0.7z"/>
			
			
				
					<path d="m51.013 194.07h-2.246c-0.387 0-0.7-0.313-0.7-0.7s0.313-0.7 0.7-0.7h2.246c0.387 0 0.7 0.313 0.7 0.7s-0.313 0.7-0.7 0.7z"/>
				
				
					<path d="m51.013 197.68h-2.246c-0.387 0-0.7-0.313-0.7-0.7s0.313-0.7 0.7-0.7h2.246c0.387 0 0.7 0.313 0.7 0.7s-0.313 0.7-0.7 0.7z"/>
				
			
		
		
			
				<path d="m104.42 183.55h-30.157c-1.258 0-2.284-1.003-2.288-2.236 2e-3 -1.276 1.028-2.279 2.288-2.279h30.157c1.258 0 2.285 1.003 2.288 2.236-4e-3 1.276-1.03 2.279-2.288 2.279zm-30.157-3.115c-0.48 0-0.887 0.384-0.887 0.839 1e-3 0.492 0.408 0.876 0.887 0.876h30.157c0.479 0 0.886-0.384 0.887-0.84-1e-3 -0.49-0.407-0.875-0.887-0.875z"/>
			
		
		
			
				<path d="m103.38 186.66h-28.056c-1.258 0-2.285-1.003-2.288-2.237 2e-3 -1.275 1.028-2.279 2.287-2.279h28.056c1.259 0 2.285 1.004 2.288 2.237-4e-3 1.275-1.03 2.279-2.287 2.279zm-28.057-3.116c-0.48 0-0.886 0.384-0.887 0.839 1e-3 0.5 0.399 0.875 0.887 0.875h28.056c0.488 0 0.886-0.376 0.887-0.839 0-0.491-0.407-0.875-0.887-0.875z"/>
			
		
		
			
				<path d="m104.42 189.78h-30.157c-1.258 0-2.284-1.003-2.288-2.236 2e-3 -1.276 1.028-2.28 2.288-2.28h30.157c1.258 0 2.285 1.004 2.288 2.237-4e-3 1.276-1.03 2.279-2.288 2.279zm-30.157-3.115c-0.48 0-0.887 0.384-0.887 0.839 1e-3 0.492 0.408 0.876 0.887 0.876h30.157c0.479 0 0.886-0.384 0.887-0.84-1e-3 -0.491-0.407-0.875-0.887-0.875z"/>
			
		
		
			
				<path d="m103.38 192.9h-28.056c-1.258 0-2.285-1.003-2.288-2.237 2e-3 -1.275 1.028-2.279 2.287-2.279h28.056c1.259 0 2.285 1.004 2.288 2.237-4e-3 1.275-1.03 2.279-2.287 2.279zm-28.057-3.116c-0.48 0-0.886 0.384-0.887 0.839 1e-3 0.5 0.399 0.876 0.887 0.876h28.056c0.479 0 0.886-0.384 0.887-0.84 0-0.499-0.398-0.875-0.887-0.875z"/>
			
		
		
			
				<path d="m104.42 196.01h-30.157c-1.258 0-2.284-1.003-2.288-2.236 2e-3 -1.276 1.028-2.279 2.288-2.279h30.157c1.258 0 2.285 1.003 2.288 2.237-4e-3 1.274-1.03 2.278-2.288 2.278zm-30.157-3.115c-0.48 0-0.887 0.384-0.887 0.839 1e-3 0.5 0.399 0.876 0.887 0.876h30.157c0.488 0 0.886-0.376 0.887-0.84-1e-3 -0.491-0.407-0.875-0.887-0.875z"/>
			
		
		
			
				<path d="m100.98 195.58c-0.387 0-0.7-0.313-0.7-0.7v-16.26c0-0.387 0.313-0.7 0.7-0.7s0.7 0.313 0.7 0.7v16.26c1e-3 0.387-0.313 0.7-0.7 0.7z"/>
			
			
				<path d="m89.347 195.58c-0.387 0-0.7-0.313-0.7-0.7v-15.021c0-0.387 0.313-0.7 0.7-0.7s0.7 0.313 0.7 0.7v15.021c0 0.387-0.314 0.7-0.7 0.7z"/>
			
			
				<path d="m77.714 195.58c-0.387 0-0.7-0.313-0.7-0.7v-16.26c0-0.387 0.313-0.7 0.7-0.7s0.7 0.313 0.7 0.7v16.26c0 0.387-0.313 0.7-0.7 0.7z"/>
			
		
		
			<path d="m75.341 200.79c-0.387 0-0.7-0.313-0.7-0.7v-2.55c0-0.387 0.313-0.7 0.7-0.7s0.7 0.313 0.7 0.7v2.55c1e-3 0.387-0.313 0.7-0.7 0.7z"/>
		
		
			<path d="m64.119 196.01c-0.387 0-0.7-0.313-0.7-0.7v-7.788c0-0.387 0.313-0.7 0.7-0.7s0.7 0.313 0.7 0.7v7.788c0 0.386-0.313 0.7-0.7 0.7z"/>
		
		
			
				<path d="m87.001 174.22c-0.178 0-0.355-0.067-0.492-0.202l-0.882-0.872c-0.805-0.779-1.269-1.878-1.269-3.009 0-0.247 0.024-0.482 0.061-0.718 0.219-1.211 0.936-2.253 1.969-2.876l1.459-0.882c0.331-0.2 0.761-0.093 0.961 0.237 0.2 0.331 0.094 0.761-0.237 0.961l-1.46 0.883c-0.69 0.416-1.168 1.112-1.313 1.91-0.023 0.148-0.041 0.312-0.041 0.485 0 0.754 0.309 1.486 0.848 2.008l0.888 0.877c0.275 0.272 0.277 0.715 6e-3 0.99-0.137 0.138-0.317 0.208-0.498 0.208z"/>
			
			
				<path d="m91.625 174.22c-0.182 0-0.364-0.07-0.5-0.211-0.271-0.276-0.265-0.719 0.011-0.989l0.893-0.872c0.542-0.524 0.851-1.256 0.851-2.01 0-0.172-0.018-0.336-0.044-0.5-0.141-0.778-0.62-1.475-1.312-1.897l-1.583-0.954c-0.331-0.2-0.438-0.63-0.238-0.961s0.63-0.436 0.961-0.238l1.586 0.956c1.036 0.632 1.752 1.673 1.967 2.86 0.04 0.25 0.064 0.486 0.064 0.734 0 1.131-0.465 2.229-1.275 3.014l-0.89 0.87c-0.138 0.132-0.315 0.198-0.491 0.198z"/>
			
		
		
			<path d="m73.509 191.34h-3.261c-0.387 0-0.7-0.313-0.7-0.7v-18.102c0-0.29-0.235-0.525-0.525-0.525s-0.525 0.235-0.525 0.525v10.812c0 0.387-0.313 0.701-0.7 0.701s-0.7-0.313-0.7-0.701v-10.812c0-1.062 0.864-1.926 1.926-1.926s1.926 0.864 1.926 1.926v17.402h2.561c0.387 0 0.7 0.313 0.7 0.7s-0.315 0.7-0.702 0.7z"/>
		
		
			<path d="m70.244 173.26c-0.179 0-0.358-0.068-0.495-0.205-0.273-0.273-0.274-0.716 0-0.99l11.305-11.315c0.208-0.208 0.208-0.535 0-0.744-0.147-0.142-0.29-0.163-0.395-0.153-0.033 0.011-0.103 0.017-0.138 0.022-0.034 7e-3 0.011-5e-3 0.067-0.039-0.154 0.074-0.226 0.123-0.3 0.191l-11.713 11.724c-0.106 0.107-0.163 0.233-0.163 0.367 0 0.058 8e-3 0.091 0.011 0.1 0.011 0.027 0.02 0.055 0.027 0.083 0.029 0.077 0.045 0.161 0.045 0.248 0 0.387-0.313 0.7-0.7 0.7-0.286 0-0.551-0.178-0.657-0.444-0.016-0.04-0.028-0.081-0.036-0.123-0.06-0.171-0.091-0.359-0.091-0.564 0-0.506 0.204-0.987 0.573-1.357l11.736-11.745c0.214-0.197 0.418-0.332 0.63-0.421 0.067-0.048 0.198-0.075 0.293-0.092 0.117-0.032 0.241-0.049 0.37-0.049 0.492-0.035 1.002 0.151 1.388 0.521 0.793 0.793 0.793 2.015 0.042 2.765l-11.305 11.314c-0.135 0.137-0.315 0.206-0.494 0.206z"/>
		
		
			<path d="m80.887 159.88h-0.01c-0.387 0-0.7-0.313-0.7-0.7s0.313-0.7 0.7-0.7 0.705 0.313 0.705 0.7-0.309 0.7-0.695 0.7z"/>
		
		
			<path d="m89.303 167.42c-0.325 0-0.655-0.082-0.956-0.252l-7.876-4.584c-0.334-0.194-0.447-0.623-0.253-0.957s0.623-0.448 0.957-0.253l7.872 4.582c0.229 0.128 0.529 0.069 0.672-0.145 0.024-0.035 0.051-0.069 0.082-0.1 6e-3 -0.03 0.03-0.117 0.03-0.213 0-0.186-0.102-0.361-0.267-0.459l-8.273-4.809c-0.053-0.03-0.101-0.067-0.144-0.109-0.273-0.273-0.278-0.722-5e-3 -0.995 0.247-0.249 0.63-0.275 0.902-0.076l8.228 4.783c0.593 0.352 0.958 0.989 0.958 1.666 0 0.344-0.088 0.671-0.263 0.971-0.038 0.06-0.072 0.113-0.119 0.168-0.36 0.506-0.945 0.782-1.545 0.782z"/>
		
		
			
				<path d="m89.318 172.05c-1.443 0-2.617-1.174-2.617-2.617s1.174-2.617 2.617-2.617 2.617 1.174 2.617 2.617-1.174 2.617-2.617 2.617zm0-3.833c-0.671 0-1.216 0.545-1.216 1.216s0.545 1.216 1.216 1.216 1.216-0.545 1.216-1.216-0.545-1.216-1.216-1.216z"/>
			
			
				<path d="m89.318 175.88c-1.443 0-2.617-1.174-2.617-2.617s1.174-2.617 2.617-2.617 2.617 1.174 2.617 2.617-1.174 2.617-2.617 2.617zm0-3.833c-0.671 0-1.216 0.545-1.216 1.216s0.545 1.216 1.216 1.216 1.216-0.545 1.216-1.216-0.545-1.216-1.216-1.216z"/>
			
		
	
</g>




</svg>
