<?xml version="1.0" encoding="UTF-8" standalone="no"?>
<!-- Created with Inkscape (http://www.inkscape.org/) -->

<svg
   xmlns:dc="http://purl.org/dc/elements/1.1/"
   xmlns:cc="http://creativecommons.org/ns#"
   xmlns:rdf="http://www.w3.org/1999/02/22-rdf-syntax-ns#"
   xmlns:svg="http://www.w3.org/2000/svg"
   xmlns="http://www.w3.org/2000/svg"
   xmlns:sodipodi="http://sodipodi.sourceforge.net/DTD/sodipodi-0.dtd"
   xmlns:inkscape="http://www.inkscape.org/namespaces/inkscape"
   width="26.409389mm"
   height="24.374084mm"
   viewBox="0 0 26.409389 24.374084"
   version="1.1"
   id="svg8"
   inkscape:version="0.92.4 (5da689c313, 2019-01-14)"
   sodipodi:docname="logo_modern.svg">
  <defs
     id="defs2" />
  <sodipodi:namedview
     id="base"
     pagecolor="#ffffff"
     bordercolor="#666666"
     borderopacity="1.0"
     inkscape:pageopacity="0.0"
     inkscape:pageshadow="2"
     inkscape:zoom="4"
     inkscape:cx="60.735368"
     inkscape:cy="22.81295"
     inkscape:document-units="mm"
     inkscape:current-layer="layer1"
     showgrid="false"
     inkscape:pagecheckerboard="true"
     inkscape:window-width="1920"
     inkscape:window-height="1001"
     inkscape:window-x="-9"
     inkscape:window-y="-9"
     inkscape:window-maximized="1"
     inkscape:snap-bbox="true"
     inkscape:bbox-paths="true"
     inkscape:bbox-nodes="true"
     inkscape:snap-bbox-edge-midpoints="true"
     inkscape:snap-bbox-midpoints="true"
     inkscape:snap-smooth-nodes="true"
     inkscape:snap-intersection-paths="true" />
  <metadata
     id="metadata5">
    <rdf:RDF>
      <cc:Work
         rdf:about="">
        <dc:format>image/svg+xml</dc:format>
        <dc:type
           rdf:resource="http://purl.org/dc/dcmitype/StillImage" />
        <dc:title></dc:title>
      </cc:Work>
    </rdf:RDF>
  </metadata>
  <g
     inkscape:label="Layer 1"
     inkscape:groupmode="layer"
     id="layer1"
     transform="translate(-358.07095,-91.862635)">
    <path
       style="fill:#006649;fill-opacity:1;stroke:none;stroke-width:0.26458332px;stroke-linecap:butt;stroke-linejoin:miter;stroke-opacity:1"
       d="m 366.87537,91.862635 -4.13515,8.168365 h 1.7694 l -4.35783,8.50917 h 1.86082 l -3.94166,7.69655 h 17.60884 l -0.8721,-2.41432 h 6.38722 l -0.74052,-2.06228 h 3.78961 l -1.79224,-3.57788 h 0.99219 l -1.79246,-3.57831 h 0.99219 l -3.06934,-6.127359 -2.32921,5.692579 -4.31845,-10.554297 -2.87779,7.033317 z"
       id="path4842-1"
       inkscape:connector-curvature="0"
       sodipodi:nodetypes="cccccccccccccccccccc" />
    <path
       style="fill:#ffffff;stroke:none;stroke-width:0.26458332px;stroke-linecap:butt;stroke-linejoin:miter;stroke-opacity:1"
       d="m 365.21913,102.1021 c -0.1331,-0.002 -0.26926,0.0147 -0.40928,0.0512 -0.55636,0.14491 -0.94576,0.60089 -1.13998,1.33428 -0.0652,0.24621 -0.0792,0.42606 -0.0951,1.21853 l -0.0186,0.92966 h -0.22996 -0.23047 v 0.83044 0.83044 h 0.23461 0.23513 v 2.65307 2.65358 h 0.83147 0.83199 l -0.007,-0.0811 c -0.004,-0.0447 -0.004,-1.2388 -0.001,-2.65358 l 0.006,-2.57142 h 0.447 0.44752 l 0.24598,0.43563 c 0.19,0.33734 0.25441,0.42504 0.28371,0.38654 0.45623,-0.59895 0.68197,-0.78703 0.94567,-0.78703 0.30108,0 0.45678,0.15308 0.50178,0.49196 l 0.0243,0.18293 -0.37414,-0.003 c -0.44319,-0.003 -0.77941,0.0885 -1.10794,0.30283 -0.70969,0.46298 -1.05299,1.24644 -1.00769,2.29857 0.0327,0.75932 0.23372,1.29604 0.64079,1.71204 0.42012,0.42937 0.86264,0.57415 1.38182,0.45216 0.11512,-0.0272 0.28989,-0.0992 0.38809,-0.16019 0.13,-0.0808 0.1788,-0.0972 0.1788,-0.0589 0,0.0447 0.11779,0.0527 0.7581,0.0527 h 0.75809 v -2.29392 c 0,-1.38808 -0.0154,-2.43072 -0.0387,-2.64015 -0.1646,-1.47615 -0.94832,-2.26745 -2.18127,-2.20245 -0.44118,0.0233 -0.69046,0.10469 -1.05161,0.3452 l -0.26614,0.17777 v -0.17692 -0.17674 h -0.48782 -0.48731 v -0.73742 c 0,-0.40544 0.0103,-0.76287 0.0222,-0.79427 0.0341,-0.0887 0.1094,-0.0697 0.43718,0.10904 0.1673,0.0912 0.31323,0.15651 0.32453,0.14521 0.0191,-0.0191 0.30423,-0.72484 0.50023,-1.23816 l 0.0853,-0.22273 -0.24598,-0.2465 c -0.35982,-0.36126 -0.73086,-0.5428 -1.13016,-0.5488 z"
       id="path4985" />
    <path
       style="fill:#ffffff;stroke:none;stroke-width:0.26458332px;stroke-linecap:butt;stroke-linejoin:miter;stroke-opacity:1"
       d="m 369.99145,102.207 v 5.19865 5.19865 h 0.81235 0.81236 v -5.19865 -5.19865 h -0.81236 z"
       id="path4983" />
    <path
       style="fill:#006649;stroke:none;stroke-width:0.26458332px;stroke-linecap:butt;stroke-linejoin:miter;stroke-opacity:1;fill-opacity:1"
       d="m 365.09924,102.53411 c 0.0374,-0.002 0.0752,-0.002 0.11317,0 0.25317,0.0144 0.5156,0.12713 0.74983,0.33073 l 0.13539,0.11782 -0.15089,0.38913 c -0.16575,0.42661 -0.15487,0.41882 -0.41393,0.28628 -0.131,-0.067 -0.3667,-0.0724 -0.48163,-0.0109 -0.0462,0.0247 -0.12273,0.12884 -0.17053,0.23151 -0.0853,0.18301 -0.0869,0.20632 -0.0873,1.18856 l -5.2e-4,1.00201 h 0.48731 0.48731 v 0.39739 0.39687 h -0.48731 -0.48731 v 2.65359 2.65358 h -0.39739 -0.39688 v -2.65358 -2.65359 h -0.23464 -0.23461 v -0.39687 -0.39739 h 0.231 0.23151 l 0.016,-1.1281 c 0.0146,-1.02702 0.0228,-1.15208 0.0946,-1.39371 0.14714,-0.49543 0.35491,-0.7831 0.67231,-0.93121 0.1029,-0.0481 0.21222,-0.0753 0.32453,-0.0822 z"
       id="path4981" />
    <path
       style="fill:#006649;stroke:none;stroke-width:0.26458332px;stroke-linecap:butt;stroke-linejoin:miter;stroke-opacity:1;fill-opacity:1"
       d="m 370.42501,102.64005 h 0.37879 0.37931 v 4.7656 4.7656 h -0.37931 -0.37879 v -4.7656 z"
       id="path4979" />
    <path
       style="fill:#ffffff;stroke:none;stroke-width:0.26458332px;stroke-linecap:butt;stroke-linejoin:miter;stroke-opacity:1"
       d="m 377.36206,105.45538 c -0.78773,0 -1.43896,0.44983 -1.90841,1.31775 l -0.11731,0.21704 -0.001,-0.56741 -5.2e-4,-0.56689 -0.15864,-0.093 c -0.30401,-0.17816 -0.60404,-0.27399 -0.9245,-0.29559 -0.38255,-0.0258 -0.64227,0.0259 -0.98443,0.19586 -0.30796,0.15299 -0.72276,0.54739 -0.9586,0.91157 -0.15971,0.24663 -0.39973,0.81868 -0.49403,1.1777 -0.29054,1.10578 -0.18109,2.67167 0.2527,3.6127 0.49745,1.0791 1.35501,1.60321 2.29702,1.40354 0.28553,-0.0605 0.60644,-0.21723 0.817,-0.39895 l 0.15348,-0.13229 5.2e-4,-0.49351 5.2e-4,-0.49403 0.11678,0.23513 c 0.34961,0.7027 0.90536,1.15728 1.57562,1.28933 0.87768,0.17291 1.72493,-0.27517 2.23501,-1.18236 0.40791,-0.7255 0.61919,-1.98536 0.51418,-3.06596 -0.18468,-1.90029 -1.1054,-3.07061 -2.41536,-3.07061 z"
       id="path4977" />
    <path
       style="fill:#006649;stroke:none;stroke-width:0.26458332px;stroke-linecap:butt;stroke-linejoin:miter;stroke-opacity:1;fill-opacity:1"
       d="m 377.37006,105.88894 c 0.38062,-0.002 0.76469,0.14381 1.07797,0.42685 0.92154,0.83255 1.21526,3.11289 0.60461,4.69636 -0.39224,1.01711 -1.21304,1.54296 -2.05672,1.31723 -0.77951,-0.20856 -1.32131,-1.01569 -1.53582,-2.28875 -0.0678,-0.40225 -0.0674,-1.40115 5.2e-4,-1.81539 0.17729,-1.08154 0.61051,-1.83733 1.24437,-2.17041 0.2098,-0.11028 0.4367,-0.16489 0.66507,-0.16589 z"
       id="path4975" />
    <path
       style="fill:#006649;stroke:none;stroke-width:0.26458332px;stroke-linecap:butt;stroke-linejoin:miter;stroke-opacity:1;fill-opacity:1"
       d="m 367.54792,105.89494 c 0.0645,-0.001 0.13089,1.4e-4 0.19999,0.004 0.28499,0.017 0.37801,0.0388 0.57516,0.13591 0.42445,0.20895 0.70635,0.60681 0.8816,1.24334 0.0774,0.28109 0.08,0.35082 0.0925,2.59209 l 0.0129,2.3027 -0.3359,-0.0103 -0.33641,-0.0103 -0.0103,-0.46922 -0.0103,-0.46922 -0.15193,0.28112 c -0.40553,0.75074 -0.89158,1.03098 -1.43609,0.82734 -0.38812,-0.14515 -0.68894,-0.49905 -0.85266,-1.00356 -0.1226,-0.37763 -0.15486,-1.05491 -0.0698,-1.45883 0.11701,-0.55497 0.44967,-1.04145 0.85112,-1.24488 0.39339,-0.1993 0.92695,-0.24014 1.37304,-0.10491 0.0893,0.0271 0.1771,0.0494 0.1943,0.0496 0.0172,2.8e-4 0.0245,-0.20961 0.0165,-0.46612 -0.0139,-0.44744 -0.0195,-0.47629 -0.13953,-0.71158 -0.16981,-0.33283 -0.36472,-0.45787 -0.74207,-0.47697 -0.31492,-0.0159 -0.54338,0.0726 -0.81959,0.31832 -0.0952,0.0847 -0.17745,0.14756 -0.18345,0.14056 -0.006,-0.007 -0.0509,-0.0864 -0.10077,-0.1757 -0.05,-0.0894 -0.14354,-0.25586 -0.20774,-0.37 l -0.11679,-0.20774 0.20154,-0.21084 c 0.31885,-0.33427 0.66339,-0.49216 1.11466,-0.50436 z"
       id="path4973" />
    <path
       style="fill:#006649;stroke:none;stroke-width:0.26458332px;stroke-linecap:butt;stroke-linejoin:miter;stroke-opacity:1;fill-opacity:1"
       d="m 374.1253,105.90684 h 5.1e-4 c 0.3161,2e-5 0.38599,0.0119 0.56793,0.0971 l 0.20774,0.0971 v 0.61909 0.61908 l -0.11318,-0.0951 c -0.32096,-0.27008 -0.72545,-0.33311 -1.05781,-0.16433 -0.3597,0.18267 -0.64641,0.70049 -0.76429,1.37925 -0.0738,0.425 -0.0534,1.25649 0.0398,1.65364 0.12886,0.5492 0.40487,0.9789 0.72243,1.12396 0.27872,0.12731 0.6656,0.0752 0.92863,-0.12505 0.0849,-0.0646 0.17467,-0.13001 0.19947,-0.14521 0.0354,-0.0216 0.0455,0.093 0.0455,0.52916 v 0.55707 l -0.14056,0.0925 c -0.20177,0.13352 -0.56146,0.24178 -0.7953,0.23978 -0.11763,-10e-4 -0.29551,-0.0365 -0.42684,-0.0853 -0.45479,-0.16898 -0.78401,-0.5025 -1.05317,-1.06763 -0.30054,-0.63094 -0.42204,-1.3453 -0.38964,-2.28978 0.0211,-0.6173 0.0756,-0.9347 0.24081,-1.41232 0.25354,-0.73271 0.67164,-1.26552 1.18443,-1.50844 0.22235,-0.10565 0.27322,-0.11471 0.60358,-0.11472 z"
       id="path4971" />
    <path
       style="fill:#ffffff;stroke:none;stroke-width:0.26458332px;stroke-linecap:butt;stroke-linejoin:miter;stroke-opacity:1"
       d="m 377.42019,106.94244 c -0.51675,-0.0389 -0.94002,0.40637 -1.1498,1.20975 -0.14464,0.55388 -0.13167,1.50431 0.0284,2.0686 0.16136,0.56883 0.50464,0.98555 0.89555,1.08728 0.15776,0.0411 0.40909,0.006 0.57619,-0.0801 0.30116,-0.15536 0.5099,-0.44674 0.66973,-0.93586 0.26952,-0.82477 0.21573,-1.93991 -0.12764,-2.65256 -0.21351,-0.44314 -0.50059,-0.66761 -0.89245,-0.69711 z"
       id="path4969" />
    <path
       style="fill:#006649;stroke:none;stroke-width:0.26458332px;stroke-linecap:butt;stroke-linejoin:miter;stroke-opacity:1;fill-opacity:1"
       d="m 377.39799,107.36877 c 0.52332,0 0.90201,1.14056 0.75137,2.26291 -0.0736,0.54803 -0.26818,1.00111 -0.50436,1.17409 -0.1184,0.0867 -0.32225,0.11423 -0.41755,0.0563 -0.42127,-0.25566 -0.6289,-0.82474 -0.6289,-1.72444 0,-1.03408 0.33225,-1.76889 0.79944,-1.76889 z"
       id="path4967" />
    <path
       style="fill:#006649;stroke:none;stroke-width:0.26458332px;stroke-linecap:butt;stroke-linejoin:miter;stroke-opacity:1;fill-opacity:1"
       d="m 374.13668,107.41117 c 0.12366,2e-4 0.25371,0.0577 0.38603,0.17518 0.0491,0.0437 0.14993,0.0686 0.31471,0.0785 0.13326,0.008 0.24993,0.0226 0.25993,0.0326 0.01,0.01 -0.006,0.14678 -0.0362,0.30489 -0.0871,0.46547 -0.10629,1.51045 -0.0367,2.00247 0.0323,0.22835 0.0686,0.45191 0.0806,0.49661 0.0211,0.0791 0.0137,0.0811 -0.23668,0.0811 -0.2134,0 -0.27216,0.0132 -0.33796,0.076 -0.19469,0.1855 -0.37785,0.2537 -0.55449,0.2067 -0.23835,-0.0634 -0.44828,-0.40356 -0.56017,-0.90847 -0.10115,-0.45637 -0.08,-1.35574 0.0408,-1.73891 0.16693,-0.52971 0.40805,-0.80712 0.68006,-0.80667 z"
       id="path4965" />
    <path
       style="fill:#ffffff;stroke:none;stroke-width:0.26458332px;stroke-linecap:butt;stroke-linejoin:miter;stroke-opacity:1;fill-opacity:1"
       d="m 367.71434,109.25395 c -0.36465,0.0231 -0.61478,0.22021 -0.75551,0.59428 -0.0671,0.17901 -0.0763,0.26734 -0.0656,0.58963 0.0109,0.32765 0.0261,0.40696 0.1142,0.58704 0.17942,0.36646 0.51211,0.49 0.85267,0.31626 0.37547,-0.19155 0.62687,-0.77001 0.67437,-1.55184 l 0.0233,-0.38241 -0.21291,-0.0677 c -0.11688,-0.0371 -0.32685,-0.0757 -0.46664,-0.0847 -0.0568,-0.004 -0.1112,-0.004 -0.16329,-5.1e-4 z"
       id="path4963" />
    <path
       style="fill:#006649;stroke:none;stroke-width:0.26458332px;stroke-linecap:butt;stroke-linejoin:miter;stroke-opacity:1;fill-opacity:1"
       d="m 367.83061,109.67615 c 0.0622,10e-4 0.12649,0.0138 0.19069,0.0382 0.0856,0.0325 0.0906,0.0473 0.0713,0.20774 -0.0736,0.61191 -0.29609,1.05678 -0.52813,1.05678 -0.0892,0 -0.1145,-0.0241 -0.1788,-0.1695 -0.10689,-0.24156 -0.10626,-0.65883 10e-4,-0.86764 0.0898,-0.17442 0.25737,-0.26962 0.4439,-0.26562 z"
       id="path4941" />
  </g>
</svg>
