<?xml version="1.0" encoding="UTF-8" standalone="no"?>
<!-- Created with Inkscape (http://www.inkscape.org/) -->

<svg
   xmlns:dc="http://purl.org/dc/elements/1.1/"
   xmlns:cc="http://creativecommons.org/ns#"
   xmlns:rdf="http://www.w3.org/1999/02/22-rdf-syntax-ns#"
   xmlns:svg="http://www.w3.org/2000/svg"
   xmlns="http://www.w3.org/2000/svg"
   xmlns:sodipodi="http://sodipodi.sourceforge.net/DTD/sodipodi-0.dtd"
   xmlns:inkscape="http://www.inkscape.org/namespaces/inkscape"
   width="29.520891mm"
   height="26.458204mm"
   viewBox="0 0 29.520891 26.458204"
   version="1.1"
   id="svg8"
   inkscape:version="0.92.4 (5da689c313, 2019-01-14)"
   sodipodi:docname="logo_corrected.svg">
  <defs
     id="defs2" />
  <sodipodi:namedview
     id="base"
     pagecolor="#ffffff"
     bordercolor="#666666"
     borderopacity="1.0"
     inkscape:pageopacity="0.0"
     inkscape:pageshadow="2"
     inkscape:zoom="4"
     inkscape:cx="71.59184"
     inkscape:cy="24.178257"
     inkscape:document-units="mm"
     inkscape:current-layer="layer1"
     showgrid="false"
     inkscape:pagecheckerboard="true"
     inkscape:window-width="1920"
     inkscape:window-height="1001"
     inkscape:window-x="-9"
     inkscape:window-y="-9"
     inkscape:window-maximized="1" />
  <metadata
     id="metadata5">
    <rdf:RDF>
      <cc:Work
         rdf:about="">
        <dc:format>image/svg+xml</dc:format>
        <dc:type
           rdf:resource="http://purl.org/dc/dcmitype/StillImage" />
        <dc:title></dc:title>
      </cc:Work>
    </rdf:RDF>
  </metadata>
  <g
     inkscape:label="Layer 1"
     inkscape:groupmode="layer"
     id="layer1"
     transform="translate(-323.8348,-93.625994)">
    <path
       id="path21"
       transform="matrix(0.26458333,0,0,0.26458333,323.8348,93.625994)"
       style="fill:#006649;fill-opacity:1;stroke:none;stroke-width:0.13645145"
       d="m 40.628906,0.00195312 c -0.07453,-0.13443779 -2.619471,4.82337288 -7.96875,15.52148488 -4.322834,8.645382 -7.801524,15.71875 -7.730468,15.71875 0.07128,0 0.823749,-0.08715 1.671874,-0.19336 0.848164,-0.106583 1.89779,-0.233691 2.333985,-0.283203 l 0.792969,-0.08984 -1.626954,3.183594 c -0.894878,1.750866 -3.453648,6.804592 -5.6875,11.232422 -2.233851,4.427868 -5.194439,10.277543 -6.578124,12.998047 l -2.515626,4.945312 h 0.72461 c 0.398891,-3.78e-4 1.7094,-0.05785 2.910156,-0.128906 4.110765,-0.242759 8.890215,-0.454438 9.052734,-0.400391 0.09506,0.03171 -0.310143,0.704849 -0.978515,1.623047 -0.627855,0.862526 -2.849727,3.93094 -4.9375,6.820313 -2.087773,2.889335 -4.42178,6.113354 -5.185547,7.164062 -0.763805,1.050671 -2.297513,3.17049 -3.408203,4.708985 -1.110728,1.538494 -2.2220103,3.072644 -2.4707032,3.410156 -0.4655245,0.632126 -6.9039702,9.527002 -8.24218755,11.386719 -0.93565984,1.300233 -0.96100679,1.369557 -0.4609375,1.242187 0.34034646,-0.0867 7.36302875,-1.60645 13.56054725,-2.933594 1.088201,-0.233159 2.223343,-0.481301 2.523437,-0.552734 0.536655,-0.127824 3.09819,-0.682494 11.988281,-2.597656 2.46584,-0.531251 4.504667,-0.946506 4.527344,-0.923828 0.02381,0.024 -0.07513,1.3638 -0.21875,2.976562 -0.339023,3.792756 -0.338012,3.820313 0.01953,3.820313 0.285733,0 1.697637,0.216934 6.128907,0.943359 1.313348,0.215206 2.452635,0.398691 2.53125,0.406246 0.08164,0.008 0.128146,-0.180235 0.105468,-0.429684 -0.02117,-0.24393 -0.162074,-1.855921 -0.3125,-3.582031 -0.150803,-1.72611 -0.310492,-3.546994 -0.355468,-4.046875 l -0.08203,-0.908203 0.865235,-0.08008 c 0.475993,-0.04384 2.277796,-0.142781 4.003906,-0.21875 7.935269,-0.348624 9.316234,-0.409361 11.939453,-0.537109 2.95971,-0.144038 7.837272,-0.370496 11.63086,-0.539063 1.255899,-0.05594 2.311814,-0.130173 2.349609,-0.167969 0.03643,-0.03643 -0.508336,-1.382713 -1.208985,-2.992187 -0.700648,-1.609474 -1.313769,-3.056482 -1.363281,-3.214844 -0.104844,-0.336378 -0.398856,-0.297336 5.716797,-0.736328 2.10138,-0.150841 5.477588,-0.396386 7.503906,-0.544922 6.5407,-0.479811 9.25231,-0.678067 10.541016,-0.769531 0.694186,-0.04951 1.261719,-0.101943 1.261719,-0.113281 0,-0.01281 -0.455398,-1.348694 -1.013672,-2.96875 l -1.015625,-2.945313 1.527344,-0.07617 c 2.121184,-0.107376 7.334573,-0.322235 12.033203,-0.496094 2.1764,-0.0805 4.43044,-0.191227 5.00976,-0.24414 l 1.05274,-0.0957 -0.52149,-1.091797 c -0.28701,-0.600416 -1.88099,-3.928806 -3.54296,-7.396484 -1.66194,-3.467679 -3.02149,-6.329013 -3.02149,-6.355469 0,-0.02767 0.96643,0.153273 2.14844,0.402343 1.18201,0.249147 2.20049,0.454549 2.26172,0.455079 0.0605,7.56e-4 0.0723,-0.120177 0.0254,-0.267579 -0.0467,-0.147363 -1.89496,-3.932247 -4.10742,-8.410156 -2.21246,-4.477871 -3.99899,-8.165076 -3.96875,-8.195312 0.0297,-0.02948 0.82985,0.07072 1.77734,0.222656 2.2941,0.368126 2.19337,0.377783 1.91406,-0.166016 -0.20477,-0.398551 -2.13689,-3.833672 -3.66601,-6.515625 -0.32092,-0.562885 -1.347255,-2.374304 -2.281252,-4.02539 C 97.6578,31.29817 95.736565,27.905842 94.322266,25.412109 L 91.75,20.878906 91.042969,21.933594 c -0.388347,0.580055 -1.949153,2.896973 -3.46875,5.148437 -1.519635,2.251427 -3.843382,5.703825 -5.164063,7.673828 -1.320718,1.970004 -2.450868,3.582032 -2.511718,3.582032 -0.09343,0 -10.761312,-21.349773 -14.539063,-29.0976566 -0.649512,-1.3321096 -1.214285,-2.421875 -1.255859,-2.421875 -0.04165,0 -0.456174,0.7833676 -0.919922,1.7402344 -0.463786,0.9568629 -2.890002,5.8746672 -5.392578,10.9296872 l -4.550782,9.191407 -0.523437,-1.208985 C 52.42891,26.805998 51.059377,23.683278 49.671875,20.53125 45.461708,10.966679 44.822969,9.5170214 42.742188,4.7714844 41.63985,2.2573653 40.689001,0.11057675 40.628906,0.00195312 Z M 39.953125,13.609375 c 0.04861,0.05607 0.613668,1.514124 1.257813,3.240234 2.161136,5.702429 1.570582,4.771397 5.771101,17.416244 0,0 -1.218721,-1.796578 -1.433747,-2.111538 -1.031701,-1.644212 -3.770058,-3.508791 -6.707912,-3.599205 -2.028727,-0.03455 -2.640648,0.195655 -4.242724,1.028874 -0.02506,-0.02566 -0.05966,0.249085 0.304688,-0.726562 0.364157,-0.97561 0.618563,-1.812509 0.566406,-1.859375 -0.05216,-0.04698 -0.600608,-0.250164 -1.21875,-0.453125 l -1.123047,-0.369141 0.390625,-0.705078 c 0.215206,-0.388157 0.908172,-1.687901 1.541016,-2.888672 3.694904,-7.010661 4.815539,-9.063856 4.894531,-8.972656 z M 38.554688,31.125 c 1.509165,0.02423 2.911478,0.708827 4.271484,2.074219 l 0.929687,0.93164 -0.322265,0.841797 c -0.740788,1.940107 -1.818436,4.607499 -1.890625,4.679688 -0.04267,0.04267 -0.594248,-0.204135 -1.226563,-0.548828 -1.238853,-0.67544 -1.523462,-0.747354 -1.652344,-0.41211 -0.04498,0.118715 -0.08398,1.469582 -0.08398,3.001953 v 2.78711 h 1.841797 1.84375 v 0.667969 0.669921 l 1.005859,-0.671875 c 1.364977,-0.909014 2.307158,-1.216624 3.97461,-1.304687 4.659968,-0.245707 7.62203,2.745069 8.24414,8.324219 0.08844,0.791546 0.146485,4.732229 0.146485,9.978515 v 8.669922 h -2.865235 c -2.420069,0 -2.865234,-0.03103 -2.865234,-0.199219 0,-0.144756 -0.184556,-0.08273 -0.675781,0.222657 -0.371287,0.230662 -1.031757,0.502768 -1.466797,0.605468 -1.962253,0.461083 -3.634831,-0.08625 -5.222656,-1.708984 -1.538533,-1.572283 -2.298285,-3.600832 -2.421875,-6.470703 -0.171289,-3.976554 1.1263,-6.937654 3.808593,-8.6875 1.241689,-0.81018 2.512452,-1.15587 4.1875,-1.144531 l 1.414063,0.01172 L 49.4375,52.75 c -0.16989,-1.280806 -0.758544,-1.857422 -1.896484,-1.857422 -0.996662,0 -1.849847,0.710861 -3.574219,2.97461 -0.110854,0.145474 -0.354156,-0.18599 -1.072266,-1.460938 l -0.929687,-1.648438 h -1.691406 -1.689454 l -0.02344,9.720704 c -0.01134,5.3472 -0.01121,9.860352 0.0039,10.029296 l 0.02734,0.306641 H 35.447266 32.304688 V 60.785156 50.757812 h -0.888672 -0.886719 v -3.138671 -3.138672 h 0.871094 0.86914 l 0.07031,-3.513672 c 0.06009,-2.995162 0.11295,-3.674911 0.359375,-4.605469 0.73406,-2.771868 2.205816,-4.495277 4.308593,-5.042969 0.529229,-0.137848 1.04382,-0.201436 1.546876,-0.193359 z m 18.037109,0.394531 h 3.070312 3.070313 V 51.167969 70.816406 H 59.662109 56.591797 V 51.167969 Z m 34.414062,0.820313 c 0.05257,-0.0016 1.025379,1.391892 2.16211,3.095703 2.31942,3.476712 2.27095,3.215191 0.642578,3.388672 -0.506608,0.05405 -0.921875,0.123934 -0.921875,0.15039 0,0.02804 1.967264,3.985726 4.373047,8.796875 2.40582,4.811112 4.352501,8.770545 4.322261,8.800782 -0.0294,0.02948 -0.6313,0.15287 -1.33789,0.273437 -0.706541,0.120567 -1.295172,0.226943 -1.302731,0.238281 -0.0094,0.01073 0.15629,0.387598 0.367188,0.837891 1.329903,2.839559 5.879043,12.825272 5.953123,13.066406 0.0648,0.209764 -0.0343,0.239214 -0.86328,0.240235 -0.5153,7.56e-4 -2.6256,0.05867 -4.689452,0.130859 -2.063812,0.07219 -4.467744,0.171128 -5.341797,0.21875 l -1.589844,0.08594 c -0.273454,-0.47065 -0.47355,-0.829818 -0.724532,-1.294882 4.95501,-5.289476 5.450952,-17.134153 1.374562,-23.831286 -0.883325,-1.56008 -3.458942,-4.984038 -8.464111,-5.210183 0.102463,-0.253946 5.957116,-8.985335 6.040643,-8.987867 z m -52.476562,0.416015 c -0.574113,-0.03254 -1.135741,0.06855 -1.654297,0.310547 -1.199622,0.559786 -1.984896,1.64704 -2.541016,3.519532 -0.27137,0.913247 -0.30224,1.385927 -0.357422,5.267578 l -0.06055,4.263672 h -0.875 -0.873047 v 1.501953 1.5 h 0.886719 0.886718 v 10.029297 10.029296 h 1.5 1.501953 V 59.148438 49.119141 h 1.841797 1.841797 v -1.5 -1.501953 h -1.841797 -1.841797 l 0.002,-3.78711 c 0.0015,-3.712403 0.0081,-3.800496 0.330079,-4.492187 0.180661,-0.388044 0.469917,-0.781646 0.644531,-0.875 0.434381,-0.232441 1.325194,-0.212213 1.820312,0.04102 0.979125,0.500939 0.938035,0.530353 1.564454,-1.082031 L 41.875,34.451172 41.363281,34.005859 c -0.885307,-0.769511 -1.87713,-1.19576 -2.833984,-1.25 z m 19.701172,0.400391 v 18.011719 18.011719 h 1.43164 1.433594 V 51.167969 33.15625 h -1.433594 z m 26.21875,10.640625 c 4.95103,0 8.430941,4.42327 9.128906,11.605469 0.396926,4.084157 -0.401614,8.845843 -1.943359,11.58789 -1.927862,3.42875 -5.13005,5.122268 -8.447266,4.46875 -2.533266,-0.499086 -4.633755,-2.217172 -5.955078,-4.873046 l -0.441406,-0.888672 -0.002,1.867187 -0.002,1.865235 -0.580078,0.5 c -0.795817,0.686815 -2.008722,1.279151 -3.08789,1.507812 -3.560353,0.754658 -6.801515,-1.226199 -8.681641,-5.304688 -1.639521,-3.556648 -2.053182,-9.474933 -0.955078,-13.654296 0.356523,-1.356926 1.263559,-3.519027 1.867187,-4.451172 0.891364,-1.376429 2.459104,-2.867083 3.623047,-3.445313 1.293203,-0.642293 2.274807,-0.837746 3.720703,-0.740234 1.211188,0.08167 2.345127,0.443827 3.494141,1.117187 l 0.599609,0.351563 0.002,2.142578 0.0039,2.144531 0.443359,-0.820312 c 1.774299,-3.280328 4.235644,-4.980469 7.212891,-4.980469 z m -56.765625,0.214844 c 0.06539,-0.07249 0.117187,1.948785 0.117187,4.589843 0,4.178382 0.02555,4.729412 0.216797,4.802735 0.118715,0.04498 0.731496,0.08398 1.363281,0.08398 h 1.148438 V 55.875 c 0,1.313348 -0.04525,2.384512 -0.101563,2.376953 -0.220384,-0.02317 -7.933419,-2.654563 -8.009765,-2.732422 -0.08802,-0.09007 0.111909,-0.583101 1.050781,-2.578125 0.335509,-0.71297 1.394498,-2.985017 2.353516,-5.048828 0.959017,-2.063811 1.796698,-3.809426 1.861328,-3.880859 z m 56.794922,1.423828 c -0.863118,0.0046 -1.720708,0.21026 -2.513672,0.626953 -2.395654,1.258885 -4.033053,4.115415 -4.703125,8.203125 -0.256517,1.565631 -0.258205,5.341013 -0.002,6.861328 0.810746,4.811565 2.858508,7.862132 5.804687,8.650391 3.188712,0.853153 6.290956,-1.134321 7.773438,-4.978516 2.307968,-5.984768 1.197829,-14.603354 -2.285157,-17.75 -1.184078,-1.069748 -2.63569,-1.620946 -4.074218,-1.613281 z m -37.123047,0.02539 c -1.705575,0.04591 -3.007789,0.642843 -4.212891,1.90625 l -0.761719,0.796874 0.441407,0.785157 c 0.242645,0.431395 0.596179,1.060547 0.785156,1.398437 0.188712,0.337663 0.358182,0.637606 0.380859,0.664063 0.0209,0.02801 0.333549,-0.211124 0.69336,-0.53125 1.043943,-0.928592 1.907407,-1.26322 3.097656,-1.203125 1.426205,0.07204 2.162886,0.544794 2.804687,1.802734 0.453733,0.889285 0.474809,0.998341 0.527344,2.689453 0.03024,0.969487 0.0025,1.762777 -0.0625,1.761719 -0.06516,-7.56e-4 -0.396863,-0.08508 -0.734375,-0.1875 -1.686009,-0.511143 -3.702625,-0.356927 -5.189453,0.396484 -1.517291,0.76887 -2.774592,2.607554 -3.216797,4.705078 -0.321827,1.526627 -0.199471,4.086409 0.263672,5.513672 0.618784,1.90681 1.755746,3.244371 3.222656,3.792969 2.057991,0.769663 3.895023,-0.289586 5.427735,-3.126953 l 0.574218,-1.0625 0.03906,1.773438 0.03906,1.773437 1.271485,0.03906 1.269531,0.03906 -0.04883,-8.703125 c -0.04724,-8.470942 -0.05707,-8.734488 -0.349609,-9.796875 -0.662363,-2.405783 -1.727811,-3.909486 -3.332032,-4.699219 -0.745134,-0.366803 -1.0967,-0.44942 -2.173828,-0.513672 -0.261005,-0.01557 -0.512206,-0.02023 -0.755859,-0.01367 z m 24.861328,0.04297 c -1.250721,0 -1.442296,0.03523 -2.283203,0.433594 -1.938104,0.918123 -3.518301,2.931874 -4.476563,5.701172 -0.624491,1.805178 -0.830408,3.004788 -0.910156,5.33789 -0.122268,3.569689 0.336908,6.269642 1.472656,8.654297 1.017298,2.135925 2.261578,3.396492 3.980469,4.035157 0.496365,0.184441 1.168695,0.318486 1.613281,0.322265 0.883805,0.0082 2.243264,-0.401607 3.00586,-0.90625 l 0.53125,-0.349609 v -2.105469 c 0,-1.64863 -0.03808,-2.081638 -0.171875,-2 -0.09381,0.05741 -0.433025,0.304671 -0.753907,0.548828 -0.994129,0.756813 -2.456335,0.953828 -3.509765,0.472657 -1.200227,-0.548259 -2.243439,-2.172331 -2.730469,-4.248047 -0.352252,-1.50104 -0.427367,-4.643701 -0.148437,-6.25 0.445568,-2.565393 1.529175,-4.522485 2.888671,-5.212891 1.256164,-0.637946 2.784932,-0.399681 3.998047,0.621094 l 0.427735,0.359375 v -2.339844 -2.339844 l -0.785157,-0.367187 c -0.6881,-0.322394 -0.951725,-0.367188 -2.148437,-0.367188 z m 12.451172,3.914063 c 1.481045,0.111647 2.56608,0.959906 3.373047,2.634765 1.297776,2.693481 1.50108,6.90815 0.482422,10.025391 -0.604082,1.848643 -1.393008,2.949922 -2.53125,3.537109 -0.63156,0.325418 -1.581477,0.458073 -2.177735,0.302735 -1.477455,-0.384492 -2.774901,-1.959467 -3.384765,-4.109375 -0.605065,-2.13275 -0.654018,-5.724955 -0.107422,-7.81836 0.792869,-3.036396 2.392632,-4.719289 4.345703,-4.572265 z m -0.08398,1.611328 c -1.765757,0 -3.021484,2.777213 -3.021484,6.685547 0,3.400441 0.784752,5.551304 2.376953,6.517578 0.360378,0.218759 1.130629,0.114794 1.578125,-0.212891 0.892649,-0.653782 1.628077,-2.366205 1.90625,-4.4375 0.569348,-4.241953 -0.861941,-8.552734 -2.839844,-8.552734 z m -12.326172,0.160156 c -1.028129,-0.0017 -1.939414,1.046768 -2.570312,3.048828 -0.456567,1.448202 -0.53652,4.847403 -0.154297,6.572266 0.422891,1.908321 1.216337,3.193972 2.117188,3.433594 0.667615,0.177751 1.359867,-0.07996 2.095703,-0.78125 0.248806,-0.237355 0.470792,-0.28711 1.277344,-0.28711 0.946318,0 0.974279,-0.0092 0.894531,-0.30664 -0.04536,-0.16887 -0.182609,-1.013898 -0.304688,-1.876953 -0.262941,-1.859604 -0.190525,-5.809103 0.138672,-7.56836 0.113764,-0.597581 0.174514,-1.114548 0.136719,-1.152344 -0.03693,-0.03704 -0.478762,-0.09281 -0.982422,-0.123046 -0.622791,-0.03704 -1.003878,-0.132088 -1.189453,-0.296876 -0.500079,-0.443976 -0.991653,-0.661343 -1.458985,-0.662109 z m -24.271484,6.964844 c 0.196888,-0.01247 0.402567,-0.01236 0.617188,0.002 0.52834,0.03515 1.32192,0.179714 1.763672,0.320312 l 0.804687,0.25586 -0.08789,1.445312 C 50.904495,63.13272 49.954255,65.319 48.535156,66.042969 47.248,66.699624 45.990585,66.232853 45.3125,64.847656 c -0.333128,-0.680617 -0.390444,-0.980388 -0.431641,-2.21875 -0.04044,-1.218104 -0.0047,-1.551942 0.25,-2.228515 0.531879,-1.413813 1.477252,-2.15883 2.855469,-2.246094 z m 0.4375,1.595703 c -0.704989,-0.01606 -1.338484,0.344738 -1.677734,1.003906 -0.405506,0.789203 -0.407749,2.366314 -0.0039,3.279297 0.243099,0.549619 0.338647,0.640625 0.675781,0.640625 0.877001,0 1.71792,-1.68141 1.996093,-3.99414 0.07294,-0.606199 0.054,-0.662322 -0.269531,-0.785157 -0.24259,-0.09223 -0.485718,-0.139179 -0.720714,-0.144532 z m -26.96875,22.404297 20.519531,0.02734 20.519532,0.02539 0.785156,1.775391 c 0.526223,1.187527 0.734418,1.801107 0.630859,1.857422 -0.08527,0.04611 -0.952087,0.123119 -1.927734,0.171875 -0.97561,0.04876 -2.663752,0.148073 -3.751953,0.21875 -1.088202,0.07068 -3.023011,0.190853 -4.298828,0.267578 -1.275818,0.07672 -3.362855,0.204211 -4.638672,0.283203 -1.275855,0.07899 -3.272284,0.19961 -4.435547,0.269531 -1.163225,0.06992 -3.15973,0.19287 -4.435547,0.271485 -1.275817,0.07861 -3.291101,0.201626 -4.478516,0.273437 -1.187376,0.07181 -2.53828,0.22211 -3.001953,0.333985 -0.463634,0.11176 -1.608758,0.383232 -2.546875,0.605468 -2.925278,0.692599 -5.683503,1.3534 -8.939453,2.138672 -1.72611,0.416315 -4.21208,1.00598 -5.52539,1.3125 -1.313349,0.306331 -2.602558,0.610332 -2.865235,0.673828 v 0.0039 c -0.262526,0.06387 -0.53227,0.117592 -0.597656,0.119141 -0.153865,0.0042 -0.112875,-0.04534 2.302734,-2.839844 1.125733,-1.302274 2.201208,-2.567901 2.388672,-2.810547 0.187502,-0.242721 0.432292,-0.535556 0.544922,-0.652343 0.112592,-0.116674 1.002906,-1.138394 1.978516,-2.269531 z"
       inkscape:connector-curvature="0"
       sodipodi:nodetypes="ccsccccccccccccccccccccccscccccccccccscsccsccccccccsccccccccccccccscsccccccccccccccccccccccccsccsccccccccscssccccccccscccccccccccccccccccccccccccccccccccscccccccccccccccccccccccccccccccccccccccccccccccccccccccscccccccccccccccccccsscscscscccsccscccccccccccccccccccccccccccccccccccsccccccccscccccccccccsccccccccsscccscccccscccccccccccccccccccccscccccccccccccccccccccccccccc" />
  </g>
</svg>
