<?xml version="1.0" encoding="UTF-8"?>
<svg width="100" height="99.999" enable-background="new 0 0 480 480" version="1.1" viewBox="0 0 100 99.999" xml:space="preserve" xmlns="http://www.w3.org/2000/svg" xmlns:cc="http://creativecommons.org/ns#" xmlns:dc="http://purl.org/dc/elements/1.1/" xmlns:rdf="http://www.w3.org/1999/02/22-rdf-syntax-ns#"><metadata><rdf:RDF><cc:Work rdf:about=""><dc:format>image/svg+xml</dc:format><dc:type rdf:resource="http://purl.org/dc/dcmitype/StillImage"/><dc:title/></cc:Work></rdf:RDF></metadata>
















<g transform="matrix(1.2129 0 0 1.2129 -44.914 -44.915)">
	
		<path d="m78.251 119.47c-22.729 0-41.222-18.492-41.222-41.221s18.493-41.222 41.222-41.222 41.222 18.492 41.222 41.222-18.492 41.221-41.222 41.221zm0-81.043c-21.958 0-39.821 17.864-39.821 39.821s17.864 39.821 39.821 39.821 39.821-17.864 39.821-39.821-17.863-39.821-39.821-39.821z" fill="#3E4651"/>
	
	
		
			<path d="m78.251 104.55c-0.208 0-0.406-0.093-0.539-0.253l-2.111-2.544-2.622 2.016c-0.165 0.128-0.378 0.175-0.582 0.128s-0.375-0.181-0.47-0.367l-1.491-2.952-3.006 1.378c-0.188 0.087-0.407 0.085-0.596-6e-3 -0.188-0.09-0.325-0.26-0.375-0.462l-0.792-3.21-3.237 0.673c-0.204 0.042-0.416-8e-3 -0.58-0.139-0.163-0.13-0.259-0.326-0.263-0.534l-0.06-3.305-3.305-0.06c-0.208-3e-3 -0.404-0.1-0.534-0.263s-0.181-0.375-0.138-0.579l0.674-3.237-3.21-0.792c-0.203-0.05-0.373-0.188-0.463-0.375-0.091-0.188-0.093-0.406-6e-3 -0.596l1.378-3.006-2.951-1.49c-0.186-0.094-0.321-0.267-0.367-0.47-0.046-0.204 0-0.417 0.128-0.582l2.016-2.621-2.544-2.111c-0.161-0.133-0.253-0.33-0.253-0.539s0.093-0.406 0.253-0.539l2.544-2.111-2.016-2.621c-0.127-0.166-0.174-0.379-0.128-0.582s0.181-0.375 0.367-0.47l2.952-1.491-1.378-3.005c-0.087-0.19-0.085-0.408 6e-3 -0.596 0.09-0.188 0.26-0.325 0.462-0.375l3.21-0.792-0.673-3.237c-0.042-0.204 8e-3 -0.416 0.139-0.579 0.13-0.163 0.326-0.259 0.534-0.263l3.306-0.06 0.06-3.306c3e-3 -0.208 0.1-0.404 0.263-0.534s0.375-0.182 0.579-0.138l3.237 0.674 0.792-3.21c0.05-0.203 0.188-0.373 0.375-0.463 0.188-0.091 0.407-0.093 0.596-6e-3l3.006 1.378 1.49-2.952c0.094-0.186 0.266-0.32 0.47-0.367 0.201-0.047 0.416 0 0.582 0.128l2.621 2.016 2.111-2.544c0.266-0.321 0.812-0.321 1.077 0l2.111 2.544 2.622-2.016c0.166-0.127 0.38-0.173 0.582-0.128 0.204 0.046 0.375 0.181 0.47 0.367l1.491 2.952 3.005-1.378c0.189-0.087 0.408-0.085 0.596 6e-3 0.188 0.09 0.325 0.26 0.375 0.462l0.792 3.21 3.237-0.673c0.207-0.042 0.417 8e-3 0.58 0.139 0.163 0.13 0.259 0.326 0.263 0.534l0.06 3.306 3.305 0.06c0.208 3e-3 0.404 0.1 0.534 0.263s0.181 0.375 0.139 0.58l-0.674 3.237 3.209 0.792c0.203 0.05 0.373 0.188 0.463 0.375 0.091 0.188 0.093 0.406 6e-3 0.596l-1.378 3.006 2.951 1.49c0.186 0.094 0.321 0.266 0.367 0.47s0 0.417-0.128 0.582l-2.016 2.621 2.544 2.111c0.161 0.133 0.253 0.33 0.253 0.539s-0.093 0.406-0.253 0.539l-2.544 2.111 2.016 2.622c0.127 0.166 0.174 0.379 0.128 0.582-0.046 0.204-0.181 0.375-0.367 0.47l-2.952 1.491 1.378 3.006c0.087 0.189 0.085 0.408-6e-3 0.596-0.09 0.188-0.26 0.326-0.463 0.375l-3.209 0.792 0.673 3.237c0.042 0.204-8e-3 0.417-0.139 0.58-0.13 0.163-0.326 0.259-0.534 0.263l-3.305 0.06-0.06 3.305c-3e-3 0.208-0.1 0.404-0.263 0.534s-0.375 0.181-0.579 0.139l-3.237-0.674-0.792 3.209c-0.05 0.203-0.188 0.373-0.375 0.463-0.188 0.091-0.407 0.093-0.596 6e-3l-3.006-1.378-1.49 2.951c-0.094 0.186-0.266 0.321-0.47 0.367-0.205 0.045-0.417 0-0.582-0.128l-2.621-2.016-2.111 2.544c-0.132 0.157-0.329 0.25-0.538 0.25zm-2.542-4.465c0.202 0 0.401 0.087 0.539 0.253l2.003 2.415 2.003-2.415c0.239-0.29 0.667-0.338 0.965-0.108l2.485 1.912 1.413-2.798c0.17-0.336 0.575-0.477 0.917-0.321l2.85 1.307 0.751-3.043c0.09-0.366 0.457-0.595 0.822-0.518l3.07 0.639 0.057-3.135c7e-3 -0.376 0.311-0.68 0.687-0.687l3.135-0.057-0.639-3.07c-0.077-0.369 0.152-0.732 0.518-0.822l3.043-0.751-1.306-2.85c-0.157-0.342-0.015-0.747 0.321-0.917l2.798-1.414-1.912-2.486c-0.23-0.298-0.182-0.725 0.108-0.965l2.415-2.003-2.415-2.003c-0.29-0.24-0.338-0.667-0.108-0.965l1.912-2.485-2.798-1.413c-0.336-0.17-0.478-0.575-0.321-0.917l1.307-2.85-3.043-0.751c-0.366-0.09-0.595-0.454-0.518-0.822l0.639-3.07-3.135-0.057c-0.376-7e-3 -0.68-0.311-0.687-0.687l-0.057-3.136-3.07 0.639c-0.372 0.074-0.732-0.152-0.822-0.518l-0.751-3.044-2.849 1.307c-0.345 0.157-0.748 0.015-0.917-0.321l-1.414-2.799-2.486 1.912c-0.299 0.23-0.725 0.182-0.965-0.108l-2.003-2.415-2.003 2.415c-0.24 0.29-0.667 0.338-0.965 0.108l-2.485-1.912-1.413 2.798c-0.17 0.336-0.573 0.479-0.917 0.321l-2.85-1.307-0.751 3.044c-0.09 0.366-0.455 0.592-0.822 0.518l-3.07-0.64-0.057 3.135c-7e-3 0.376-0.311 0.68-0.687 0.687l-3.136 0.056 0.639 3.071c0.077 0.369-0.152 0.732-0.518 0.822l-3.044 0.751 1.307 2.849c0.157 0.342 0.015 0.747-0.321 0.917l-2.799 1.414 1.912 2.485c0.23 0.298 0.182 0.725-0.108 0.965l-2.415 2.003 2.415 2.003c0.29 0.24 0.338 0.667 0.108 0.965l-1.912 2.485 2.798 1.413c0.336 0.17 0.478 0.575 0.321 0.917l-1.307 2.85 3.044 0.751c0.366 0.09 0.595 0.454 0.518 0.822l-0.64 3.07 3.135 0.057c0.376 7e-3 0.68 0.311 0.687 0.687l0.057 3.135 3.07-0.639c0.37-0.076 0.732 0.153 0.822 0.518l0.751 3.044 2.85-1.306c0.341-0.159 0.747-0.015 0.917 0.321l1.414 2.798 2.486-1.912c0.128-0.094 0.278-0.142 0.427-0.142z" fill="#3E4651"/>
		
		
			<path d="m66.508 90.695c-0.179 0-0.358-0.068-0.495-0.205-6.748-6.748-6.748-17.729 0-24.477s17.729-6.748 24.477 0c0.273 0.273 0.273 0.717 0 0.99s-0.717 0.273-0.99 0c-6.202-6.202-16.294-6.202-22.496 0s-6.202 16.294 0 22.496c0.273 0.273 0.273 0.717 0 0.99-0.137 0.137-0.316 0.206-0.496 0.206z" fill="#3E4651"/>
		
		
			<path d="m78.251 82.44c-2.31 0-4.189-1.879-4.189-4.189s1.879-4.189 4.189-4.189 4.189 1.879 4.189 4.189-1.879 4.189-4.189 4.189zm0-6.977c-1.538 0-2.789 1.251-2.789 2.789s1.251 2.789 2.789 2.789 2.789-1.251 2.789-2.789-1.251-2.789-2.789-2.789z" fill="#3E4651"/>
		
	
</g>
</svg>
