<?xml version="1.0" encoding="UTF-8"?>
<svg width="100" height="100" enable-background="new 0 0 330 330" version="1.1" viewBox="0 0 100 100" xml:space="preserve" xmlns="http://www.w3.org/2000/svg" xmlns:cc="http://creativecommons.org/ns#" xmlns:dc="http://purl.org/dc/elements/1.1/" xmlns:rdf="http://www.w3.org/1999/02/22-rdf-syntax-ns#"><metadata><rdf:RDF><cc:Work rdf:about=""><dc:format>image/svg+xml</dc:format><dc:type rdf:resource="http://purl.org/dc/dcmitype/StillImage"/><dc:title/></cc:Work></rdf:RDF></metadata>

<g transform="matrix(1.2359 0 0 1.2359 -274.1 -276.22)">
		<path d="m262.24 304.42c-22.309 0-40.458-18.149-40.458-40.458s18.149-40.457 40.458-40.457c22.308 0 40.457 18.148 40.457 40.457s-18.149 40.458-40.457 40.458zm0-78.915c-21.205 0-38.458 17.252-38.458 38.457s17.253 38.458 38.458 38.458 38.457-17.253 38.457-38.458-17.252-38.457-38.457-38.457z" fill="#3E4651"/>
	</g><g transform="matrix(1.2359 0 0 1.2359 -274.1 -276.22)">
			<path d="m262.24 290.14c-5.65 0-11.108-8.936-11.802-12.558-0.815-4.251 0.152-10.382 0.194-10.642 0.087-0.545 0.602-0.92 1.146-0.828 0.545 0.087 0.916 0.601 0.829 1.145-0.01 0.061-0.953 6.047-0.205 9.948 0.672 3.509 5.759 10.935 9.838 10.935 0.552 0 1 0.448 1 1s-0.448 1-1 1z" fill="#3E4651"/>
		</g><g transform="matrix(1.2359 0 0 1.2359 -274.1 -276.22)">
			<path d="m251.32 269.1c-0.023 0-0.048-1e-3 -0.072-2e-3 -3.979-0.287-11.501-2.661-11.501-9.59 0-0.471 0.328-0.877 0.788-0.977 8.284-1.793 13.755 4.558 13.983 4.829 0.357 0.421 0.303 1.052-0.119 1.409-0.421 0.354-1.051 0.304-1.408-0.118-0.196-0.231-4.586-5.276-11.196-4.316 0.715 6.035 9.221 6.739 9.598 6.768 0.551 0.041 0.964 0.52 0.924 1.07-0.039 0.526-0.477 0.927-0.997 0.927z" fill="#3E4651"/>
		</g><path d="m61.98 15.178c-0.51288 0.017302-0.96011 0.35024-1.127 0.83594-0.76624 2.2431-1.2196 5.4864-1.7461 9.2422-0.87005 6.2115-1.9518 13.942-4.9414 19.982-0.30155 0.61175-0.051207 1.3535 0.56055 1.6562 0.61052 0.30032 1.3522 0.051924 1.6562-0.55859 3.1663-6.3968 4.2791-14.348 5.1738-20.736 0.22616-1.6165 0.43666-3.1337 0.66406-4.498 1.0409 4.5215 1.1038 9.5535 0.69531 14.236l2.6055-1.3242c0.39248-6.2994-0.13952-12.805-2.3594-18.08-0.19897-0.4721-0.64898-0.7744-1.1816-0.75586zm3.1016 23.371-2.6562 0.96094c-0.50571 3.3909-1.2046 6.4143-1.8711 8.6621-0.19403 0.65377 0.17898 1.3411 0.83398 1.5352 0.11741 0.03337 0.23539 0.050781 0.35156 0.050781 0.53389 2e-6 1.0261-0.34716 1.1855-0.88476 0.88992-3.0034 1.6623-6.5605 2.1562-10.324z" fill="#3e4651" stroke-width="1.2359"/><g transform="matrix(1.2359 0 0 1.2359 -274.1 -276.22)">
			<path d="m262.24 290.14c-0.553 0-1-0.447-1-1 0-0.552 0.447-1 1-1 4.078 0 9.165-7.426 9.838-10.935 0.749-3.908-0.196-9.888-0.206-9.947-0.087-0.545 0.283-1.059 0.829-1.146 0.544-0.092 1.059 0.282 1.146 0.828 0.042 0.26 1.01 6.391 0.194 10.642-0.693 3.622-6.15 12.558-11.801 12.558z" fill="#3E4651"/>
		</g><g transform="matrix(1.2359 0 0 1.2359 -274.1 -276.22)">
			<path d="m273.17 269.1c-0.52 0-0.958-0.4-0.996-0.927-0.04-0.551 0.373-1.029 0.924-1.07 0.377-0.028 8.883-0.732 9.599-6.767-6.663-0.953-11.15 4.26-11.196 4.314-0.356 0.422-0.988 0.475-1.409 0.119-0.422-0.357-0.476-0.988-0.119-1.409 0.229-0.271 5.706-6.62 13.984-4.829 0.46 0.1 0.788 0.506 0.788 0.977 0 6.929-7.523 9.303-11.502 9.59-0.025 1e-3 -0.05 2e-3 -0.073 2e-3z" fill="#3E4651"/>
		</g><g transform="matrix(1.2359 0 0 1.2359 -274.1 -276.22)">
			<path d="m267.66 262.29c-0.076 0-0.152-8e-3 -0.229-0.025-3.442-0.804-6.934-0.804-10.378 0-0.538 0.128-1.075-0.209-1.201-0.746-0.126-0.539 0.209-1.076 0.746-1.201 3.746-0.875 7.543-0.875 11.288 0 0.537 0.125 0.872 0.662 0.746 1.201-0.107 0.461-0.518 0.771-0.972 0.771z" fill="#3E4651"/>
		</g><g transform="matrix(1.2359 0 0 1.2359 -274.1 -276.22)">
			
				<path d="m258.15 272.83c-0.167 0-0.336-0.042-0.492-0.131-0.719-0.407-2.021-0.552-3-0.552-0.552 0-1-0.448-1-1 0-0.553 0.448-1 1-1 0.768 0 2.692 0.079 3.986 0.813 0.48 0.272 0.649 0.882 0.377 1.363-0.183 0.324-0.522 0.507-0.871 0.507z" fill="#3E4651"/>
			
			
				<path d="m260.32 285.88c-0.552 0-1-0.447-1-1v-0.462c0-0.552 0.448-1 1-1 0.553 0 1 0.448 1 1v0.462c0 0.553-0.447 1-1 1z" fill="#3E4651"/>
			
			
				<path d="m266.33 272.83c-0.349 0-0.687-0.183-0.871-0.507-0.271-0.481-0.104-1.091 0.377-1.363 1.294-0.733 3.219-0.813 3.986-0.813 0.552 0 1 0.447 1 1 0 0.552-0.448 1-1 1-0.979 0-2.281 0.145-3 0.552-0.155 0.088-0.325 0.131-0.492 0.131z" fill="#3E4651"/>
			
			
				<path d="m264.16 285.88c-0.552 0-1-0.447-1-1v-0.462c0-0.552 0.448-1 1-1 0.553 0 1 0.448 1 1v0.462c0 0.553-0.447 1-1 1z" fill="#3E4651"/>
			
		</g>








<path d="m62.385 42.308 0.04075-2.7986c5.8308-2.3949 11.756-5.8534 17.72-13.435-1.2053 0.67867-2.5198 1.466-3.9207 2.3037-5.5366 3.3099-6.2026 3.4472-13.309 6.9591l0.77639-3.3471c6.3458-2.9491 4.0168-1.5819 9.4002-4.8002 3.2554-1.9457 7.93-4.5623 10.158-5.3724 0.48292-0.17469 1.0225-0.03477 1.3576 0.35383 0.34852 0.40325 0.39583 0.94274 0.15294 1.3938-1.7202 2.1867-3.3328 4.2259-4.9664 6.1179-1.8901 2.189-3.8083 4.181-5.9538 5.9759-3.1937 2.6719-8.1739 5.057-11.456 6.6487z" fill="#3e4651" stroke-width="1.2359"/><g fill="#3e4651" stroke-width="1.2359"><path d="m61.98 15.178c-0.51288 0.0173-0.96011 0.35024-1.127 0.83594-0.76624 2.2431-1.2196 5.4864-1.7461 9.2422-0.87005 6.2115-1.9518 13.942-4.9414 19.982-0.30155 0.61175-0.05121 1.3535 0.56055 1.6562 0.61052 0.30032 1.3522 0.05192 1.6563-0.55859 3.1663-6.3968 4.2791-14.348 5.1738-20.736 0.22616-1.6165 0.43666-3.1337 0.66406-4.498 1.0409 4.5215 1.1038 9.5535 0.69531 14.236l2.6055-1.3242c0.39248-6.2994-0.13952-12.805-2.3594-18.08-0.19897-0.4721-0.64898-0.7744-1.1816-0.75586zm3.1016 23.371-2.6562 0.96094c-0.50571 3.3909-1.2046 6.4143-1.8711 8.6621-0.19403 0.65377 0.17898 1.3411 0.83398 1.5352 0.11741 0.03337 0.23539 0.05078 0.35156 0.05078 0.53389 2e-6 1.0261-0.34716 1.1855-0.88476 0.88992-3.0034 1.6623-6.5605 2.1562-10.324z"/><path d="m62.385 42.308 0.04075-2.7986c5.8308-2.3949 11.756-5.8534 17.72-13.435-1.2053 0.67867-2.5198 1.466-3.9207 2.3037-5.5366 3.3099-6.2026 3.4472-13.309 6.9591l0.77639-3.3471c6.3458-2.9491 4.0168-1.5819 9.4002-4.8002 3.2554-1.9457 7.93-4.5623 10.158-5.3724 0.48292-0.17469 1.0225-0.03477 1.3576 0.35383 0.34852 0.40325 0.39583 0.94274 0.15294 1.3938-1.7202 2.1867-3.3328 4.2259-4.9664 6.1179-1.8901 2.189-3.8083 4.181-5.9538 5.9759-3.1937 2.6719-8.1739 5.057-11.456 6.6487z"/></g></svg>
