<?xml version="1.0" encoding="UTF-8"?>
<svg width="100" height="99.999" enable-background="new 0 0 480 480" version="1.1" viewBox="0 0 100 99.999" xml:space="preserve" xmlns="http://www.w3.org/2000/svg" xmlns:cc="http://creativecommons.org/ns#" xmlns:dc="http://purl.org/dc/elements/1.1/" xmlns:rdf="http://www.w3.org/1999/02/22-rdf-syntax-ns#"><metadata><rdf:RDF><cc:Work rdf:about=""><dc:format>image/svg+xml</dc:format><dc:type rdf:resource="http://purl.org/dc/dcmitype/StillImage"/><dc:title/></cc:Work></rdf:RDF></metadata>

<g transform="matrix(1.2129 0 0 1.2129 -437.29 -437.3)">
		
			<path d="m401.75 397.12c-0.142 0-0.282-0.043-0.403-0.129-1.889-1.328-8.144-8.395-8.218-14.33l-2e-3 -0.111c0-4.756 3.868-8.623 8.623-8.623 4.754 0 8.622 3.867 8.622 8.623l-1e-3 0.122c-0.075 5.925-6.33 12.991-8.219 14.319-0.12 0.086-0.261 0.129-0.402 0.129zm0-21.793c-3.983 0-7.223 3.239-7.223 7.223 0.064 5.146 5.24 11.25 7.223 12.975 1.982-1.725 7.157-7.821 7.222-12.881 0-4.078-3.24-7.317-7.222-7.317zm0 12.105c-2.826 0-5.125-2.299-5.125-5.125 0-2.825 2.299-5.125 5.125-5.125 2.825 0 5.125 2.3 5.125 5.125 0 2.826-2.3 5.125-5.125 5.125zm0-8.849c-2.054 0-3.725 1.67-3.725 3.724s1.671 3.726 3.725 3.726 3.725-1.672 3.725-3.726-1.671-3.724-3.725-3.724z" fill="#3E4651"/>
		
		
			
				<path d="m380.3 425.58c-0.156 0-0.311-0.052-0.437-0.153-0.199-0.159-0.297-0.413-0.254-0.664l4.079-23.986c0.043-0.254 0.222-0.463 0.465-0.546l8.956-3.04c0.226-0.074 0.471-0.033 0.657 0.112 0.186 0.146 0.285 0.375 0.266 0.61l-1.903 22.422c-0.021 0.262-0.188 0.488-0.43 0.588l-11.132 4.604c-0.087 0.036-0.177 0.053-0.267 0.053zm4.699-24.157-3.797 22.326 9.568-3.957 1.776-20.932z" fill="#3E4651"/>
			
			
				<path d="m401.75 425.58c-0.097 0-0.193-0.021-0.285-0.061l-10.35-4.604c-0.272-0.121-0.438-0.401-0.412-0.699l1.91-22.423c0.018-0.217 0.136-0.412 0.319-0.529 0.184-0.118 0.41-0.143 0.615-0.069l8.439 3.04c0.277 0.1 0.463 0.363 0.463 0.658v23.986c0 0.236-0.12 0.458-0.319 0.587-0.114 0.076-0.247 0.114-0.38 0.114zm-9.61-5.741 8.91 3.963v-22.416l-7.119-2.564z" fill="#3E4651"/>
			
			
				<path d="m401.75 425.58c-0.134 0-0.267-0.038-0.382-0.113-0.198-0.129-0.318-0.351-0.318-0.587v-23.986c0-0.295 0.186-0.559 0.463-0.658l8.439-3.04c0.204-0.073 0.432-0.049 0.615 0.069 0.183 0.117 0.301 0.313 0.319 0.529l1.91 22.423c0.025 0.298-0.141 0.578-0.413 0.699l-10.35 4.604c-0.09 0.04-0.186 0.06-0.283 0.06zm0.7-24.194v22.416l8.909-3.963-1.79-21.018z" fill="#3E4651"/>
			
			
				<path d="m423.19 425.58c-0.09 0-0.181-0.018-0.268-0.054l-11.132-4.604c-0.242-0.1-0.408-0.326-0.43-0.588l-1.903-22.422c-0.02-0.235 0.08-0.465 0.266-0.61 0.188-0.146 0.435-0.187 0.657-0.112l8.956 3.04c0.243 0.083 0.422 0.292 0.465 0.546l4.052 23.826c0.037 0.085 0.058 0.179 0.058 0.277-1e-3 0.39-0.313 0.727-0.71 0.699-4e-3 2e-3 -7e-3 2e-3 -0.011 2e-3zm-10.47-5.788 9.568 3.957-3.796-22.326-7.549-2.563z" fill="#3E4651"/>
			
		
	</g>















</svg>
