<?xml version="1.0" encoding="UTF-8"?>
<svg width="82.444" height="82.445" enable-background="new 0 0 480 480" version="1.1" viewBox="0 0 82.444 82.445" xml:space="preserve" xmlns="http://www.w3.org/2000/svg" xmlns:cc="http://creativecommons.org/ns#" xmlns:dc="http://purl.org/dc/elements/1.1/" xmlns:rdf="http://www.w3.org/1999/02/22-rdf-syntax-ns#"><metadata><rdf:RDF><cc:Work rdf:about=""><dc:format>image/svg+xml</dc:format><dc:type rdf:resource="http://purl.org/dc/dcmitype/StillImage"/><dc:title/></cc:Work></rdf:RDF></metadata>








<g transform="translate(-37.029,-252.36)">
	
		<path d="m78.251 334.8c-22.729 0-41.222-18.492-41.222-41.223 0-22.729 18.492-41.222 41.222-41.222s41.222 18.492 41.222 41.222c0 22.731-18.492 41.223-41.222 41.223zm0-81.044c-21.958 0-39.821 17.864-39.821 39.821 0 21.958 17.864 39.822 39.821 39.822s39.821-17.864 39.821-39.822c1e-3 -21.957-17.863-39.821-39.821-39.821z" fill="#3E4651"/>
	
	
		
			
				
					<path d="m78.248 320.89c-0.5 0-0.96-0.174-1.369-0.518-1.438-1.209-2.304-4.707-2.895-11.697-0.091-1.078-1.146-2.572-2.165-4.016-0.072-0.102-0.144-0.203-0.214-0.305-0.495 3.922-1.678 6.428-3.624 10.548-0.527 1.114-1.11 2.351-1.753 3.77-0.632 1.389-1.601 2.093-2.593 1.896-0.965-0.195-1.611-1.206-1.647-2.574-0.032-1.061 0.535-2.959 1.319-5.586 1.05-3.519 2.357-7.898 2.618-11.74 5e-3 -0.114-0.017-0.403-0.043-0.809-0.07-1.081-0.188-2.889-0.108-4.589 0.305-6.467 1.724-9.795 3.072-12.197 1.357-2.421 4.204-4.575 5.567-4.997 0.37-0.113 0.761 0.094 0.875 0.463s-0.093 0.762-0.462 0.875c-0.99 0.307-3.549 2.188-4.759 4.344-1.268 2.26-2.603 5.402-2.894 11.578-0.076 1.622 0.039 3.381 0.107 4.432 0.039 0.596 0.054 0.845 0.043 1-0.271 3.994-1.603 8.456-2.673 12.041-0.69 2.313-1.286 4.309-1.261 5.146 0.022 0.833 0.334 1.204 0.526 1.243s0.638-0.222 1.04-1.104c0.646-1.426 1.232-2.668 1.762-3.788 2.149-4.552 3.337-7.066 3.663-11.81-0.189-0.326-0.355-0.645-0.49-0.959-0.152-0.355 0.013-0.767 0.368-0.918 0.357-0.153 0.767 0.013 0.919 0.367 0.362 0.845 1.087 1.873 1.789 2.866 1.127 1.597 2.292 3.248 2.416 4.705 0.528 6.233 1.336 9.849 2.402 10.745 0.174 0.145 0.345 0.203 0.542 0.185 0.375-0.032 0.519-0.155 0.603-0.258 0.559-0.683 0.292-3.079 0.032-5.396-0.25-2.245-0.335-3.273-0.462-4.831-0.05-0.609-0.106-1.303-0.183-2.182-0.139-1.602-1.033-3.859-2.735-6.902-0.999-1.785-0.837-3.703-0.764-4.249 0.109-0.815 1.645-7.065 2.309-8.253 0.103-0.184 0.283-0.312 0.491-0.348 0.206-0.037 0.421 0.023 0.58 0.162 1.196 1.043 5.444 4.466 9.876 4.744 0.285 0.035 0.64-0.233 0.701-0.508 0.079-0.358-0.417-0.805-1.265-1.137-3.369-1.32-7.216-5.648-8.713-7.447-0.247-0.297-0.207-0.739 0.09-0.986 0.296-0.248 0.738-0.207 0.986 0.09 1.428 1.717 5.082 5.838 8.148 7.04 2.266 0.888 2.238 2.214 2.121 2.743-0.209 0.945-1.188 1.66-2.155 1.602-4.17-0.262-8.109-2.983-9.96-4.462-0.657 1.938-1.729 6.267-1.82 6.945-0.042 0.312-0.209 1.937 0.598 3.38 1.801 3.221 2.752 5.662 2.908 7.465 0.077 0.883 0.133 1.576 0.184 2.189 0.126 1.544 0.21 2.564 0.458 4.789 0.378 3.385 0.549 5.353-0.34 6.439-0.368 0.448-0.894 0.706-1.564 0.765-0.072 6e-3 -0.137 9e-3 -0.202 9e-3z" fill="#3E4651"/>
				
				
					
						<path d="m77.907 280.94c-0.243 0-0.495-0.027-0.748-0.082l-0.219-0.061c-2.314-0.604-3.704-2.744-3.615-5.577 0-7e-3 7e-3 -0.11 7e-3 -0.117l7e-3 -0.106c0.018-0.234 0.152-0.445 0.357-0.559 0.206-0.115 0.455-0.119 0.664-0.01 0.549 0.286 1.672 0.299 2.861 0.313l0.792 0.011c0.287 3e-3 0.565 7e-3 0.832 7e-3 0.688 0 1.458-0.022 1.945-0.193 0.198-0.069 0.417-0.047 0.595 0.063 0.179 0.108 0.299 0.292 0.329 0.499 0.086 0.599 0.07 1.207-0.047 1.808-0.26 1.306-0.819 2.413-1.576 3.122-0.641 0.587-1.374 0.882-2.184 0.882zm-3.166-4.945c0.15 1.763 1.095 3.066 2.568 3.452l0.188 0.053c0.113 0.022 0.267 0.039 0.411 0.039 0.455 0 0.858-0.167 1.234-0.511 0.531-0.497 0.954-1.36 1.153-2.364 0.038-0.194 0.062-0.387 0.071-0.58-0.743 0.096-1.525 0.08-2.37 0.067l-0.791-0.011c-0.919-9e-3 -1.758-0.02-2.464-0.145z" fill="#3E4651"/>
					
					
						<path d="m81.023 275.92c-0.287 0-0.555-0.177-0.658-0.462-0.131-0.363 0.057-0.765 0.42-0.896 0.344-0.125 0.519-0.276 0.523-0.759 0.013-0.978-0.356-1.897-1.04-2.597-0.684-0.697-1.598-1.09-2.576-1.103-2.022 0.015-3.662 1.598-3.689 3.608-2e-3 0.43 0.137 0.591 0.363 0.712 0.341 0.182 0.471 0.605 0.289 0.946-0.182 0.342-0.607 0.47-0.947 0.289-0.508-0.271-1.112-0.83-1.105-1.961 0.038-2.785 2.295-4.988 5.105-4.994 1.352 0.018 2.615 0.559 3.56 1.523 0.946 0.966 1.458 2.241 1.439 3.59-8e-3 1.021-0.495 1.716-1.447 2.061-0.078 0.029-0.158 0.043-0.237 0.043z" fill="#3E4651"/>
					
				
			
		
		
			
				<path d="m83.524 301.72c-0.186 0-0.363-0.074-0.494-0.205-0.132-0.131-0.206-0.309-0.206-0.494l-7e-3 -6.125c-1e-3 -1.416 1.15-2.57 2.566-2.572l4.007-6e-3c0.962 0 1.851 0.432 2.443 1.186 0.592 0.752 0.803 1.717 0.578 2.648l-1.036 4.293c-0.18 0.745-0.841 1.266-1.607 1.267l-6.244 8e-3c1e-3 0 0 0 0 0zm5.87-8.002-4.009 6e-3c-0.645 1e-3 -1.169 0.526-1.168 1.171l6e-3 5.424 5.543-8e-3c0.118 0 0.22-0.08 0.248-0.194l1.036-4.293c0.124-0.512 8e-3 -1.042-0.317-1.455s-0.814-0.651-1.339-0.651z" fill="#3E4651"/>
			
			
				<path d="m100.1 300.82h-5e-3l-9.232-0.038c-0.387-2e-3 -0.699-0.316-0.697-0.703s0.315-0.697 0.7-0.697h3e-3l9.23 0.038h1e-3c0.272 0 0.518-0.101 0.71-0.292 0.197-0.191 0.303-0.44 0.304-0.705 4e-3 -0.275-0.098-0.529-0.287-0.722-0.19-0.194-0.443-0.304-0.713-0.306l-8.391-0.027c-0.386-2e-3 -0.699-0.316-0.698-0.703 1e-3 -0.385 0.314-0.697 0.7-0.697h2e-3l8.395 0.027c0.649 7e-3 1.253 0.265 1.705 0.728 0.45 0.46 0.693 1.067 0.685 1.71-1e-3 0.638-0.257 1.242-0.722 1.693-0.446 0.445-1.049 0.694-1.69 0.694z" fill="#3E4651"/>
			
			
				<path d="m80.775 301.72c-1.353 0-2.53-0.959-2.801-2.281-0.039-0.18-0.059-0.375-0.06-0.574-1e-3 -1.266 0.845-2.395 2.058-2.747l3.349-0.977c0.21-0.062 0.44-0.021 0.615 0.112 0.176 0.131 0.28 0.338 0.281 0.559l4e-3 3.896c0 0.26-0.141 0.486-0.351 0.607h0.704c0.387 0 0.7 0.313 0.701 0.699s-0.313 0.7-0.699 0.701l-3.799 4e-3c0 1e-3 -1e-3 1e-3 -2e-3 1e-3zm2.044-4.975-2.455 0.717c-0.619 0.18-1.05 0.755-1.049 1.4 0 0.101 0.01 0.199 0.029 0.29 0.139 0.679 0.74 1.167 1.431 1.167h1e-3l2.397-2e-3c-0.21-0.121-0.352-0.348-0.352-0.607z" fill="#3E4651"/>
			
			
				<path d="m89.077 297.37c-0.059 0-0.119-8e-3 -0.179-0.023-0.374-0.099-0.597-0.481-0.498-0.855l1.899-7.194c0.072-0.273 0.015-0.559-0.158-0.782-0.41-0.535-1.363-0.371-1.574 0.27l-0.244 0.746c-0.12 0.367-0.517 0.568-0.883 0.447-0.367-0.12-0.568-0.516-0.447-0.883l0.244-0.746c0.311-0.949 1.191-1.587 2.189-1.587 0.72 0 1.385 0.327 1.825 0.898s0.586 1.298 0.402 1.995l-1.899 7.193c-0.084 0.314-0.367 0.521-0.677 0.521z" fill="#3E4651"/>
			
		
		
			<path d="m80.972 297.2c-0.496 0-0.985-0.2-1.358-0.589-1.994-2.075-3.199-3.866-3.582-5.325-0.098-0.373 0.125-0.756 0.5-0.854 0.374-0.099 0.756 0.125 0.855 0.499 0.317 1.207 1.437 2.836 3.237 4.711 0.259 0.27 0.53 0.136 0.634 0.066 0.083-0.057 0.34-0.265 0.182-0.621-1.302-2.93-2.602-5.523-2.615-5.549-0.173-0.346-0.034-0.767 0.312-0.94s0.767-0.033 0.939 0.312c0.013 0.027 1.328 2.65 2.643 5.609 0.381 0.859 0.102 1.826-0.68 2.352-0.331 0.221-0.701 0.329-1.067 0.329z" fill="#3E4651"/>
		
	
</g>








</svg>
