<?xml version="1.0" encoding="UTF-8" standalone="no"?>
<svg
   xmlns:dc="http://purl.org/dc/elements/1.1/"
   xmlns:cc="http://creativecommons.org/ns#"
   xmlns:rdf="http://www.w3.org/1999/02/22-rdf-syntax-ns#"
   xmlns:svg="http://www.w3.org/2000/svg"
   xmlns="http://www.w3.org/2000/svg"
   xmlns:sodipodi="http://sodipodi.sourceforge.net/DTD/sodipodi-0.dtd"
   xmlns:inkscape="http://www.inkscape.org/namespaces/inkscape"
   inkscape:version="1.0beta2 (2b71d25, 2019-12-03)"
   sodipodi:docname="trees_hover.svg"
   id="svg8288"
   xml:space="preserve"
   viewBox="0 0 100 100"
   version="1.1"
   enable-background="new 0 0 480 480"
   height="100"
   width="100"><defs
   id="defs8292" /><sodipodi:namedview
   inkscape:current-layer="svg8288"
   inkscape:window-maximized="0"
   inkscape:window-y="0"
   inkscape:window-x="0"
   inkscape:cy="67.536299"
   inkscape:cx="30.488621"
   inkscape:zoom="7.7895634"
   showgrid="false"
   id="namedview8290"
   inkscape:window-height="900"
   inkscape:window-width="1440"
   inkscape:pageshadow="2"
   inkscape:pageopacity="0"
   guidetolerance="10"
   gridtolerance="10"
   objecttolerance="10"
   borderopacity="1"
   inkscape:document-rotation="0"
   bordercolor="#666666"
   pagecolor="#ffffff" /><metadata
   id="metadata8268"><rdf:RDF><cc:Work
       rdf:about=""><dc:format>image/svg+xml</dc:format><dc:type
         rdf:resource="http://purl.org/dc/dcmitype/StillImage" /><dc:title /></cc:Work></rdf:RDF></metadata>



<path
   inkscape:connector-curvature="0"
   id="path8296"
   d="m 48.353982,79.272879 c -0.219834,-0.0426 -0.242594,-0.44166 -0.242594,-4.253676 V 70.81255 h 1.890521 1.890522 v 4.136025 c 0,2.814637 -0.05037,4.167156 -0.157668,4.233469 -0.162086,0.100178 -2.946589,0.174988 -3.380781,0.09084 z"
   style="fill:#ffab40;stroke:#ffab40;stroke-width:0.174512" /><path
   id="path8270"
   stroke-width=".785"
   stroke="#009688"
   fill="#009688"
   d="m46.694 70.295c-3.5234-0.14075-7.0431-0.48545-10.088-0.98798-1.9455-0.32107-4.1753-0.77871-4.2802-0.87844-0.0347-0.03299 1.5467-2.6617 3.5143-5.8415 3.259-5.267 3.5774-5.8141 3.5774-6.1471 0-0.25787-0.05731-0.4322-0.19453-0.59172-0.17529-0.20379-0.36276-0.25829-1.8956-0.55106-2.237-0.42729-2.3487-0.45357-2.3491-0.5531-2.13e-4 -0.0467 2.0553-3.0472 4.5679-6.6679 3.0868-4.4481 4.5832-6.6749 4.6143-6.8663 0.05353-0.3298-0.14145-0.76871-0.40386-0.90915-0.09595-0.05136-0.60353-0.16923-1.1279-0.26195-0.52442-0.09272-1.0781-0.19104-1.2304-0.21848-0.15228-0.02745-0.27688-0.085-0.27688-0.12792 0-0.09326 8.672-15.148 8.8083-15.291 0.07028-0.07391 1.2297 1.8664 4.5246 7.5718 2.4366 4.2191 4.4406 7.6978 4.4534 7.7303 0.01932 0.04901-0.83659 0.22676-2.3422 0.48639-0.50063 0.08633-0.86029 0.63926-0.73284 1.1266 0.02668 0.10203 2.1143 3.1629 4.6392 6.8019s4.5616 6.6445 4.526 6.679c-0.06304 0.06103-2.7255 0.60145-3.54 0.71856-0.56305 0.08095-0.91217 0.42922-0.91217 0.90998 0 0.30928 0.393 0.98171 3.5782 6.1223 1.968 3.1762 3.5782 5.8105 3.5782 5.8541 0 0.04357-0.1246 0.10159-0.27688 0.12895-0.15229 0.02736-0.73233 0.14841-1.289 0.26901-5.2889 1.1458-13.118 1.7479-19.442 1.4953z" /><g
   id="g8286"
   fill="#3E4651"
   transform="matrix(1.2129 0 0 1.2129 -176.11 -437.3)">
	
		<path
   id="path8272"
   d="m186.42 442.97c-22.73 0-41.222-18.491-41.222-41.222 0-22.729 18.492-41.222 41.222-41.222 22.729 0 41.222 18.492 41.222 41.222s-18.493 41.222-41.222 41.222zm0-81.043c-21.958 0-39.822 17.864-39.822 39.821 0 21.958 17.864 39.822 39.822 39.822s39.821-17.864 39.821-39.822c0-21.957-17.863-39.821-39.821-39.821z" />
	
	
		
			
				<path
   id="path8274"
   d="m186.41 419.32c-0.738 0-1.456-0.011-2.152-0.031-8.221-0.237-13.086-1.729-13.29-1.793-0.207-0.064-0.372-0.221-0.447-0.423-0.076-0.203-0.053-0.43 0.061-0.613l5.612-9.066c-2.012-0.363-3.117-0.694-3.17-0.711-0.214-0.064-0.384-0.229-0.458-0.439s-0.042-0.445 0.086-0.629l7.22-10.404c-1.186-0.223-1.843-0.425-1.877-0.436-0.203-0.063-0.367-0.215-0.444-0.413s-0.061-0.421 0.045-0.605l8.208-14.224c0.25-0.433 0.962-0.435 1.212 0l8.22 14.224c0.106 0.185 0.124 0.407 0.046 0.605s-0.241 0.351-0.445 0.413c-0.034 0.011-0.692 0.213-1.877 0.436l7.22 10.404c0.127 0.184 0.16 0.418 0.085 0.63-0.074 0.212-0.245 0.375-0.459 0.439-0.053 0.017-1.164 0.347-3.169 0.71l5.613 9.066c0.114 0.184 0.136 0.41 0.061 0.613s-0.241 0.359-0.448 0.424c-0.203 0.063-5.079 1.555-13.3 1.792-0.696 0.021-1.414 0.031-2.153 0.031zm-14.143-2.923c1.743 0.433 5.99 1.319 12.032 1.493 1.369 0.041 2.856 0.041 4.223 0 6.043-0.174 10.297-1.062 12.042-1.493l-5.665-9.149c-0.123-0.199-0.139-0.447-0.042-0.66 0.098-0.213 0.295-0.363 0.526-0.4 1.347-0.215 2.388-0.438 3.073-0.6l-7.276-10.484c-0.138-0.198-0.163-0.454-0.067-0.676 0.096-0.223 0.299-0.379 0.538-0.416 0.801-0.12 1.445-0.25 1.91-0.354l-7.151-12.374-7.141 12.374c0.465 0.104 1.109 0.234 1.91 0.354 0.239 0.037 0.442 0.193 0.538 0.416 0.096 0.222 0.07 0.478-0.067 0.676l-7.276 10.485c0.683 0.162 1.723 0.384 3.073 0.599 0.231 0.037 0.429 0.188 0.526 0.4 0.097 0.213 0.082 0.461-0.042 0.66z" />
			
			
				<path
   id="path8276"
   d="m186.42 427.04c-1.549 0-2.354-0.372-2.44-0.414-0.24-0.117-0.393-0.362-0.393-0.629v-7.417c0-0.387 0.313-0.7 0.7-0.7s0.7 0.313 0.7 0.7v6.909c0.303 0.072 0.781 0.149 1.433 0.149s1.13-0.079 1.433-0.153v-6.905c0-0.387 0.313-0.7 0.7-0.7s0.7 0.313 0.7 0.7v7.409c0 0.266-0.15 0.509-0.388 0.627-0.087 0.043-0.893 0.424-2.445 0.424z" />
			
		
		
			
				
					
						<path
   id="path8278"
   d="m200.8 415.2c-0.362 0-0.669-0.279-0.697-0.646-0.03-0.385 0.259-0.722 0.645-0.751 3.786-0.289 6.492-0.856 7.797-1.177l-5.097-8.232c-0.123-0.199-0.139-0.447-0.042-0.66 0.098-0.213 0.295-0.363 0.526-0.4 1.16-0.185 2.07-0.375 2.69-0.52l-6.554-9.452c-0.138-0.199-0.164-0.455-0.067-0.678 0.096-0.222 0.3-0.378 0.54-0.414 0.674-0.099 1.226-0.206 1.638-0.297l-6.397-11.073-4.092 7.074c-0.193 0.335-0.622 0.449-0.957 0.255-0.334-0.193-0.449-0.621-0.255-0.956l4.699-8.123c0.125-0.216 0.356-0.35 0.606-0.35 0.25 1e-3 0.481 0.134 0.606 0.351l7.468 12.927c0.107 0.184 0.124 0.407 0.045 0.605-0.078 0.198-0.242 0.351-0.445 0.413-0.031 9e-3 -0.595 0.181-1.608 0.374l6.499 9.373c0.128 0.185 0.16 0.419 0.085 0.631-0.074 0.211-0.245 0.375-0.459 0.439-0.048 0.014-1.027 0.305-2.788 0.627l5.046 8.149c0.114 0.185 0.136 0.41 0.061 0.612-0.076 0.203-0.241 0.359-0.447 0.424-0.135 0.043-3.379 1.044-8.991 1.473-0.019 2e-3 -0.037 2e-3 -0.055 2e-3z" />
					
					
						<path
   id="path8280"
   d="m196.49 425c-1.435 0-2.174-0.354-2.253-0.396-0.235-0.119-0.383-0.36-0.383-0.624v-5.819c0-0.387 0.313-0.7 0.7-0.7s0.7 0.313 0.7 0.7v5.312c0.269 0.063 0.681 0.127 1.236 0.127 0.552 0 0.964-0.063 1.236-0.128v-5.888c0-0.387 0.313-0.7 0.7-0.7s0.7 0.313 0.7 0.7v6.396c0 0.265-0.15 0.507-0.387 0.626-0.08 0.041-0.827 0.394-2.249 0.394z" />
					
				
			
			
				
					
						<path
   id="path8282"
   d="m172.04 415.2c-0.018 0-0.036 0-0.054-2e-3 -5.612-0.429-8.856-1.43-8.991-1.473-0.206-0.064-0.371-0.221-0.447-0.424-0.075-0.202-0.053-0.428 0.061-0.612l5.046-8.149c-1.761-0.322-2.74-0.613-2.788-0.627-0.214-0.064-0.385-0.229-0.459-0.439-0.074-0.212-0.042-0.446 0.085-0.631l6.5-9.373c-1.014-0.193-1.578-0.365-1.608-0.374-0.204-0.063-0.368-0.215-0.445-0.413-0.078-0.198-0.062-0.422 0.045-0.605l7.467-12.927c0.25-0.433 0.962-0.434 1.212-1e-3l4.699 8.123c0.193 0.335 0.079 0.763-0.255 0.956-0.333 0.194-0.763 0.08-0.957-0.255l-4.092-7.074-6.397 11.073c0.412 0.091 0.964 0.198 1.638 0.297 0.239 0.036 0.443 0.192 0.54 0.414 0.097 0.223 0.071 0.479-0.067 0.678l-6.554 9.452c0.62 0.145 1.53 0.335 2.69 0.52 0.231 0.037 0.429 0.188 0.526 0.4 0.097 0.213 0.082 0.461-0.042 0.66l-5.097 8.232c1.305 0.32 4.012 0.888 7.797 1.177 0.386 0.029 0.674 0.366 0.645 0.751-0.029 0.367-0.336 0.646-0.698 0.646z" />
					
					
						<path
   id="path8284"
   d="m176.35 425c-1.421 0-2.168-0.353-2.249-0.394-0.237-0.119-0.387-0.361-0.387-0.626v-6.396c0-0.387 0.313-0.7 0.7-0.7s0.7 0.313 0.7 0.7v5.889c0.271 0.063 0.683 0.127 1.236 0.127 0.555 0 0.966-0.063 1.236-0.127v-5.312c0-0.387 0.313-0.7 0.7-0.7s0.7 0.313 0.7 0.7v5.819c0 0.264-0.148 0.505-0.383 0.624-0.079 0.041-0.819 0.396-2.253 0.396z" />
					
				
			
		
	
</g>













<path
   inkscape:connector-curvature="0"
   id="path8294"
   d="m 48.621858,78.794217 -0.288848,-0.05564 v -3.714001 -3.714002 h 1.668899 1.6689 v 3.706134 3.706132 l -0.481413,0.07957 c -0.522814,0.08642 -2.102495,0.08137 -2.567538,-0.0082 z"
   style="fill:#ffab40;stroke:#ffab40;stroke-width:0.154052" /></svg>
