<?xml version="1.0" encoding="UTF-8"?>
<svg width="100" height="100" enable-background="new 0 0 480 480" version="1.1" viewBox="0 0 100 100" xml:space="preserve" xmlns="http://www.w3.org/2000/svg" xmlns:cc="http://creativecommons.org/ns#" xmlns:dc="http://purl.org/dc/elements/1.1/" xmlns:rdf="http://www.w3.org/1999/02/22-rdf-syntax-ns#"><metadata><rdf:RDF><cc:Work rdf:about=""><dc:format>image/svg+xml</dc:format><dc:type rdf:resource="http://purl.org/dc/dcmitype/StillImage"/><dc:title/></cc:Work></rdf:RDF></metadata>






<g transform="matrix(1.2129 0 0 1.2129 -306.09 -306.09)">
		
			
				<path d="m300.28 291.26c-5.017 0-8.053-0.924-8.18-0.963-0.204-0.063-0.367-0.215-0.445-0.413-0.077-0.198-0.061-0.421 0.046-0.605l7.973-13.81c0.251-0.434 0.962-0.434 1.213 0l7.973 13.81c0.106 0.185 0.123 0.407 0.046 0.605-0.078 0.198-0.241 0.351-0.445 0.413-0.128 0.039-3.164 0.963-8.181 0.963zm-6.903-2.084c1.208 0.266 3.625 0.684 6.903 0.684s5.695-0.418 6.903-0.684l-6.903-11.957z" fill="#3E4651"/>
			
			
				<path d="m300.28 303.37c-3.037 0-5.953-0.208-8.669-0.62-2.748-0.417-4.275-0.883-4.339-0.902-0.216-0.066-0.387-0.232-0.458-0.447-0.071-0.213-0.036-0.449 0.097-0.632l7.818-10.813c0.228-0.313 0.665-0.384 0.978-0.158 0.313 0.227 0.384 0.664 0.157 0.979l-7.22 9.984c0.704 0.167 1.779 0.395 3.177 0.606 2.646 0.4 5.492 0.604 8.459 0.604s5.813-0.203 8.459-0.604c1.397-0.212 2.473-0.439 3.177-0.606l-7.22-9.984c-0.227-0.314-0.156-0.752 0.157-0.979 0.313-0.226 0.75-0.155 0.978 0.158l7.818 10.813c0.133 0.183 0.168 0.419 0.097 0.632-0.071 0.215-0.242 0.381-0.458 0.447-0.063 0.02-1.591 0.485-4.339 0.902-2.715 0.412-5.631 0.62-8.669 0.62z" fill="#3E4651"/>
			
			
				<path d="m300.28 314.12c-9.222 0-14.772-1.692-15.004-1.764-0.211-0.066-0.378-0.227-0.452-0.434s-0.046-0.438 0.075-0.621l6.232-9.449c0.213-0.324 0.647-0.412 0.97-0.199s0.412 0.646 0.199 0.969l-5.697 8.639c1.923 0.471 6.788 1.459 13.677 1.459 6.888 0 11.754-0.988 13.677-1.459l-5.697-8.639c-0.213-0.322-0.123-0.756 0.199-0.969 0.321-0.213 0.756-0.125 0.97 0.199l6.232 9.449c0.121 0.184 0.148 0.414 0.074 0.621s-0.241 0.367-0.451 0.434c-0.231 0.072-5.783 1.764-15.004 1.764z" fill="#3E4651"/>
			
			
				<path d="m300.28 321.62c-1.509 0-2.294-0.362-2.379-0.404-0.24-0.117-0.393-0.361-0.393-0.629v-7.2c0-0.387 0.313-0.7 0.7-0.7s0.7 0.313 0.7 0.7v6.691c0.293 0.069 0.75 0.142 1.371 0.142s1.077-0.074 1.371-0.145v-6.688c0-0.387 0.313-0.7 0.7-0.7s0.7 0.313 0.7 0.7v7.194c0 0.266-0.15 0.508-0.389 0.627-0.082 0.042-0.87 0.412-2.381 0.412z" fill="#3E4651"/>
			
		
		
			
				<path d="m282.58 283.84c-0.185 0-0.37-0.074-0.508-0.219-1.857-1.958-2.881-4.512-2.881-7.191 0-0.58 0.049-1.154 0.144-1.707 0.355-2.158 1.369-4.124 2.93-5.678 1.98-1.98 4.604-3.072 7.389-3.072 2.78 0 5.402 1.092 7.384 3.073 1.98 1.974 3.072 4.597 3.072 7.384 0 0.354-0.021 0.703-0.054 1.044-0.039 0.385-0.389 0.659-0.767 0.628-0.385-0.039-0.665-0.382-0.627-0.767 0.029-0.296 0.047-0.598 0.047-0.905 0-2.412-0.944-4.683-2.661-6.393-1.718-1.719-3.988-2.664-6.395-2.664-2.41 0-4.683 0.945-6.399 2.663-1.353 1.346-2.229 3.047-2.538 4.921-0.083 0.479-0.124 0.973-0.124 1.473 0 2.319 0.887 4.531 2.496 6.228 0.267 0.28 0.255 0.724-0.025 0.989-0.136 0.128-0.309 0.193-0.483 0.193z" fill="#3E4651"/>
			
			
				<path d="m278.13 296.77c-0.115 0-0.231-0.027-0.339-0.088-3.948-2.188-6.4-6.331-6.4-10.811 0-3.284 1.289-6.381 3.629-8.721 1.345-1.345 2.996-2.374 4.774-2.977 0.366-0.125 0.764 0.072 0.888 0.438 0.124 0.367-0.072 0.764-0.438 0.889-1.576 0.533-3.04 1.447-4.233 2.641-2.076 2.075-3.219 4.82-3.219 7.73 0 3.971 2.176 7.644 5.679 9.586 0.338 0.188 0.46 0.614 0.272 0.952-0.129 0.231-0.367 0.361-0.613 0.361z" fill="#3E4651"/>
			
			
				<path d="m297.95 280.54c-0.121 0-0.247-0.032-0.353-0.092-1.544-0.877-3.239-1.354-5.039-1.42-0.386-0.014-0.688-0.338-0.674-0.725s0.335-0.682 0.725-0.674c1.99 0.072 3.945 0.621 5.657 1.588 0.226 0.117 0.38 0.352 0.38 0.621 0 0.388-0.309 0.702-0.696 0.702z" fill="#3E4651"/>
			
			
				<path d="m285.86 307.66c-2.369 0-4.6-0.927-6.281-2.607-1.682-1.682-2.607-3.912-2.607-6.281 0-1.02 0.171-2.01 0.507-2.939 0.434-1.24 1.16-2.396 2.101-3.336 0.14-0.133 0.259-0.244 0.385-0.357 0.287-0.257 0.731-0.233 0.988 0.055 0.258 0.288 0.233 0.73-0.055 0.988-0.116 0.104-0.226 0.207-0.342 0.318-0.779 0.778-1.392 1.752-1.758 2.801-0.283 0.784-0.426 1.613-0.426 2.471 0 1.994 0.78 3.873 2.197 5.291 1.417 1.416 3.296 2.197 5.291 2.197 0.997 0 1.968-0.198 2.887-0.588 0.356-0.15 0.767 0.016 0.918 0.371s-0.015 0.766-0.371 0.918c-1.092 0.462-2.248 0.698-3.434 0.698z" fill="#3E4651"/>
			
		
		
			<path d="m289.02 320.03c-1.039 0-1.918-0.366-1.954-0.382-0.26-0.109-0.428-0.363-0.428-0.645v-6.853c0-0.387 0.313-0.699 0.7-0.699s0.7 0.313 0.7 0.699v6.345c0.526 0.138 1.478 0.132 2.021-8e-3v-5.725c0-0.387 0.313-0.7 0.7-0.7s0.7 0.313 0.7 0.7v6.24c0 0.288-0.177 0.546-0.444 0.651-0.038 0.018-0.965 0.377-1.995 0.377z" fill="#3E4651"/>
		
		
			<path d="m287.34 309.29c-0.387 0-0.7-0.313-0.7-0.7v-1.627c0-0.387 0.313-0.699 0.7-0.699s0.7 0.313 0.7 0.699v1.627c0 0.387-0.313 0.7-0.7 0.7z" fill="#3E4651"/>
		
	</g>










</svg>
