<?xml version="1.0" encoding="UTF-8"?>
<svg width="100" height="100" enable-background="new 0 0 480 480" version="1.1" viewBox="0 0 100 100" xml:space="preserve" xmlns="http://www.w3.org/2000/svg" xmlns:cc="http://creativecommons.org/ns#" xmlns:dc="http://purl.org/dc/elements/1.1/" xmlns:rdf="http://www.w3.org/1999/02/22-rdf-syntax-ns#"><metadata><rdf:RDF><cc:Work rdf:about=""><dc:format>image/svg+xml</dc:format><dc:type rdf:resource="http://purl.org/dc/dcmitype/StillImage"/><dc:title/></cc:Work></rdf:RDF></metadata>












<g transform="matrix(1.2129 0 0 1.2129 -44.914 -176.11)">
	
		<path d="m78.251 227.64c-22.729 0-41.222-18.492-41.222-41.222s18.492-41.222 41.222-41.222 41.222 18.492 41.222 41.222c0 22.729-18.492 41.222-41.222 41.222zm0-81.044c-21.958 0-39.821 17.864-39.821 39.822s17.864 39.821 39.821 39.821 39.821-17.864 39.821-39.821c1e-3 -21.958-17.863-39.822-39.821-39.822z" fill="#3E4651"/>
	
	
		
			
				<path d="m96.992 205.3c-2.397 0-4.348-1.951-4.348-4.347 0-2.397 1.951-4.348 4.348-4.348s4.347 1.95 4.347 4.348c0 2.397-1.95 4.347-4.347 4.347zm0-7.294c-1.625 0-2.947 1.322-2.947 2.947s1.322 2.947 2.947 2.947 2.947-1.322 2.947-2.947-1.322-2.947-2.947-2.947z" fill="#3E4651"/>
			
			
				<path d="m87.255 205.3c-2.397 0-4.348-1.951-4.348-4.347 0-2.397 1.951-4.348 4.348-4.348s4.347 1.95 4.347 4.348c0 2.397-1.95 4.347-4.347 4.347zm0-7.294c-1.625 0-2.947 1.322-2.947 2.947s1.322 2.947 2.947 2.947 2.947-1.322 2.947-2.947-1.322-2.947-2.947-2.947z" fill="#3E4651"/>
			
			
				<path d="m87.255 201.86c-0.499 0-0.905-0.406-0.905-0.904 0-0.499 0.406-0.905 0.905-0.905s0.904 0.406 0.904 0.905-0.406 0.904-0.904 0.904z" fill="#3E4651"/>
			
			
				<path d="m96.992 201.86c-0.499 0-0.905-0.406-0.905-0.904 0-0.499 0.406-0.905 0.905-0.905s0.904 0.406 0.904 0.905-0.406 0.904-0.904 0.904z" fill="#3E4651"/>
			
			
				<path d="m59.825 205.3c-2.397 0-4.347-1.951-4.347-4.347 0-2.397 1.95-4.347 4.347-4.347s4.347 1.95 4.347 4.347-1.95 4.347-4.347 4.347zm0-7.294c-1.625 0-2.947 1.322-2.947 2.947s1.322 2.947 2.947 2.947 2.947-1.322 2.947-2.947-1.322-2.947-2.947-2.947z" fill="#3E4651"/>
			
			
				<path d="m59.825 201.86c-0.499 0-0.904-0.406-0.904-0.904 0-0.499 0.406-0.905 0.904-0.905 0.499 0 0.905 0.406 0.905 0.905-1e-3 0.499-0.406 0.904-0.905 0.904z" fill="#3E4651"/>
			
			
				<path d="m55.619 201.64c-0.052 0-0.104-6e-3 -0.158-0.018l-6.336-1.458c-0.786-0.18-1.335-0.87-1.335-1.677v-6.538c0-0.837 0.599-1.55 1.423-1.695l7.321-1.29 1.978-5.21c0.252-0.664 0.899-1.11 1.609-1.11h7.676c0.387 0 0.7 0.313 0.7 0.7v14.194c0 0.387-0.313 0.7-0.7 0.7s-0.7-0.313-0.7-0.7v-13.494h-6.976c-0.132 0-0.253 0.083-0.3 0.208l-2.119 5.582c-0.087 0.23-0.29 0.398-0.533 0.441l-7.713 1.358c-0.154 0.027-0.266 0.16-0.266 0.316v6.538c0 0.15 0.102 0.279 0.249 0.313l6.336 1.458c0.376 0.087 0.612 0.462 0.525 0.839-0.074 0.324-0.362 0.543-0.681 0.543z" fill="#3E4651"/>
			
			
				<path d="m83.607 201.65h-2.646c-0.387 0-0.7-0.313-0.7-0.7v-1.354h-4.92c-0.387 0-0.7-0.313-0.7-0.7s0.313-0.7 0.7-0.7h5.62c0.387 0 0.7 0.313 0.7 0.7v1.354h1.946c0.387 0 0.7 0.313 0.7 0.7s-0.313 0.7-0.7 0.7z" fill="#3E4651"/>
			
			
				<path d="m103.49 201.65h-2.646c-0.387 0-0.7-0.313-0.7-0.7s0.313-0.7 0.7-0.7h1.946v-4.938c0-0.387 0.313-0.7 0.7-0.7s0.7 0.313 0.7 0.7v5.638c1e-3 0.386-0.313 0.7-0.7 0.7z" fill="#3E4651"/>
			
			
				<path d="m102.94 196.01h-26.791c-0.387 0-0.7-0.313-0.7-0.7s0.313-0.7 0.7-0.7h26.791c0.387 0 0.7 0.313 0.7 0.7s-0.313 0.7-0.7 0.7z" fill="#3E4651"/>
			
			
				<path d="m75.341 201.65-11.87-4e-3c-0.386 0-0.7-0.314-0.7-0.701 0-0.386 0.314-0.7 0.7-0.7l11.169 4e-3v-2.411c0-0.387 0.313-0.7 0.7-0.7s0.7 0.313 0.7 0.7v3.111c0 0.186-0.074 0.364-0.205 0.495-0.13 0.132-0.308 0.206-0.494 0.206z" fill="#3E4651"/>
			
			
				<path d="m93.076 201.65h-1.905c-0.387 0-0.7-0.313-0.7-0.7s0.313-0.7 0.7-0.7h1.905c0.387 0 0.7 0.313 0.7 0.7s-0.313 0.7-0.7 0.7z" fill="#3E4651"/>
			
			
				<path d="m63.544 191.14h-3.719c-0.387 0-0.7-0.313-0.7-0.7s0.313-0.7 0.7-0.7h3.719c0.387 0 0.7 0.313 0.7 0.7s-0.313 0.7-0.7 0.7z" fill="#3E4651"/>
			
			
				
					<path d="m51.013 194.07h-2.246c-0.387 0-0.7-0.313-0.7-0.7s0.313-0.7 0.7-0.7h2.246c0.387 0 0.7 0.313 0.7 0.7s-0.313 0.7-0.7 0.7z" fill="#3E4651"/>
				
				
					<path d="m51.013 197.68h-2.246c-0.387 0-0.7-0.313-0.7-0.7s0.313-0.7 0.7-0.7h2.246c0.387 0 0.7 0.313 0.7 0.7s-0.313 0.7-0.7 0.7z" fill="#3E4651"/>
				
			
		
		
			
				<path d="m104.42 183.55h-30.157c-1.258 0-2.284-1.003-2.288-2.236 2e-3 -1.276 1.028-2.279 2.288-2.279h30.157c1.258 0 2.285 1.003 2.288 2.236-4e-3 1.276-1.03 2.279-2.288 2.279zm-30.157-3.115c-0.48 0-0.887 0.384-0.887 0.839 1e-3 0.492 0.408 0.876 0.887 0.876h30.157c0.479 0 0.886-0.384 0.887-0.84-1e-3 -0.49-0.407-0.875-0.887-0.875z" fill="#3E4651"/>
			
		
		
			
				<path d="m103.38 186.66h-28.056c-1.258 0-2.285-1.003-2.288-2.237 2e-3 -1.275 1.028-2.279 2.287-2.279h28.056c1.259 0 2.285 1.004 2.288 2.237-4e-3 1.275-1.03 2.279-2.287 2.279zm-28.057-3.116c-0.48 0-0.886 0.384-0.887 0.839 1e-3 0.5 0.399 0.875 0.887 0.875h28.056c0.488 0 0.886-0.376 0.887-0.839 0-0.491-0.407-0.875-0.887-0.875z" fill="#3E4651"/>
			
		
		
			
				<path d="m104.42 189.78h-30.157c-1.258 0-2.284-1.003-2.288-2.236 2e-3 -1.276 1.028-2.28 2.288-2.28h30.157c1.258 0 2.285 1.004 2.288 2.237-4e-3 1.276-1.03 2.279-2.288 2.279zm-30.157-3.115c-0.48 0-0.887 0.384-0.887 0.839 1e-3 0.492 0.408 0.876 0.887 0.876h30.157c0.479 0 0.886-0.384 0.887-0.84-1e-3 -0.491-0.407-0.875-0.887-0.875z" fill="#3E4651"/>
			
		
		
			
				<path d="m103.38 192.9h-28.056c-1.258 0-2.285-1.003-2.288-2.237 2e-3 -1.275 1.028-2.279 2.287-2.279h28.056c1.259 0 2.285 1.004 2.288 2.237-4e-3 1.275-1.03 2.279-2.287 2.279zm-28.057-3.116c-0.48 0-0.886 0.384-0.887 0.839 1e-3 0.5 0.399 0.876 0.887 0.876h28.056c0.479 0 0.886-0.384 0.887-0.84 0-0.499-0.398-0.875-0.887-0.875z" fill="#3E4651"/>
			
		
		
			
				<path d="m104.42 196.01h-30.157c-1.258 0-2.284-1.003-2.288-2.236 2e-3 -1.276 1.028-2.279 2.288-2.279h30.157c1.258 0 2.285 1.003 2.288 2.237-4e-3 1.274-1.03 2.278-2.288 2.278zm-30.157-3.115c-0.48 0-0.887 0.384-0.887 0.839 1e-3 0.5 0.399 0.876 0.887 0.876h30.157c0.488 0 0.886-0.376 0.887-0.84-1e-3 -0.491-0.407-0.875-0.887-0.875z" fill="#3E4651"/>
			
		
		
			
				<path d="m100.98 195.58c-0.387 0-0.7-0.313-0.7-0.7v-16.26c0-0.387 0.313-0.7 0.7-0.7s0.7 0.313 0.7 0.7v16.26c1e-3 0.387-0.313 0.7-0.7 0.7z" fill="#3E4651"/>
			
			
				<path d="m89.347 195.58c-0.387 0-0.7-0.313-0.7-0.7v-15.021c0-0.387 0.313-0.7 0.7-0.7s0.7 0.313 0.7 0.7v15.021c0 0.387-0.314 0.7-0.7 0.7z" fill="#3E4651"/>
			
			
				<path d="m77.714 195.58c-0.387 0-0.7-0.313-0.7-0.7v-16.26c0-0.387 0.313-0.7 0.7-0.7s0.7 0.313 0.7 0.7v16.26c0 0.387-0.313 0.7-0.7 0.7z" fill="#3E4651"/>
			
		
		
			<path d="m75.341 200.79c-0.387 0-0.7-0.313-0.7-0.7v-2.55c0-0.387 0.313-0.7 0.7-0.7s0.7 0.313 0.7 0.7v2.55c1e-3 0.387-0.313 0.7-0.7 0.7z" fill="#3E4651"/>
		
		
			<path d="m64.119 196.01c-0.387 0-0.7-0.313-0.7-0.7v-7.788c0-0.387 0.313-0.7 0.7-0.7s0.7 0.313 0.7 0.7v7.788c0 0.386-0.313 0.7-0.7 0.7z" fill="#3E4651"/>
		
		
			
				<path d="m87.001 174.22c-0.178 0-0.355-0.067-0.492-0.202l-0.882-0.872c-0.805-0.779-1.269-1.878-1.269-3.009 0-0.247 0.024-0.482 0.061-0.718 0.219-1.211 0.936-2.253 1.969-2.876l1.459-0.882c0.331-0.2 0.761-0.093 0.961 0.237 0.2 0.331 0.094 0.761-0.237 0.961l-1.46 0.883c-0.69 0.416-1.168 1.112-1.313 1.91-0.023 0.148-0.041 0.312-0.041 0.485 0 0.754 0.309 1.486 0.848 2.008l0.888 0.877c0.275 0.272 0.277 0.715 6e-3 0.99-0.137 0.138-0.317 0.208-0.498 0.208z" fill="#3E4651"/>
			
			
				<path d="m91.625 174.22c-0.182 0-0.364-0.07-0.5-0.211-0.271-0.276-0.265-0.719 0.011-0.989l0.893-0.872c0.542-0.524 0.851-1.256 0.851-2.01 0-0.172-0.018-0.336-0.044-0.5-0.141-0.778-0.62-1.475-1.312-1.897l-1.583-0.954c-0.331-0.2-0.438-0.63-0.238-0.961s0.63-0.436 0.961-0.238l1.586 0.956c1.036 0.632 1.752 1.673 1.967 2.86 0.04 0.25 0.064 0.486 0.064 0.734 0 1.131-0.465 2.229-1.275 3.014l-0.89 0.87c-0.138 0.132-0.315 0.198-0.491 0.198z" fill="#3E4651"/>
			
		
		
			<path d="m73.509 191.34h-3.261c-0.387 0-0.7-0.313-0.7-0.7v-18.102c0-0.29-0.235-0.525-0.525-0.525s-0.525 0.235-0.525 0.525v10.812c0 0.387-0.313 0.701-0.7 0.701s-0.7-0.313-0.7-0.701v-10.812c0-1.062 0.864-1.926 1.926-1.926s1.926 0.864 1.926 1.926v17.402h2.561c0.387 0 0.7 0.313 0.7 0.7s-0.315 0.7-0.702 0.7z" fill="#3E4651"/>
		
		
			<path d="m70.244 173.26c-0.179 0-0.358-0.068-0.495-0.205-0.273-0.273-0.274-0.716 0-0.99l11.305-11.315c0.208-0.208 0.208-0.535 0-0.744-0.147-0.142-0.29-0.163-0.395-0.153-0.033 0.011-0.103 0.017-0.138 0.022-0.034 7e-3 0.011-5e-3 0.067-0.039-0.154 0.074-0.226 0.123-0.3 0.191l-11.713 11.724c-0.106 0.107-0.163 0.233-0.163 0.367 0 0.058 8e-3 0.091 0.011 0.1 0.011 0.027 0.02 0.055 0.027 0.083 0.029 0.077 0.045 0.161 0.045 0.248 0 0.387-0.313 0.7-0.7 0.7-0.286 0-0.551-0.178-0.657-0.444-0.016-0.04-0.028-0.081-0.036-0.123-0.06-0.171-0.091-0.359-0.091-0.564 0-0.506 0.204-0.987 0.573-1.357l11.736-11.745c0.214-0.197 0.418-0.332 0.63-0.421 0.067-0.048 0.198-0.075 0.293-0.092 0.117-0.032 0.241-0.049 0.37-0.049 0.492-0.035 1.002 0.151 1.388 0.521 0.793 0.793 0.793 2.015 0.042 2.765l-11.305 11.314c-0.135 0.137-0.315 0.206-0.494 0.206z" fill="#3E4651"/>
		
		
			<path d="m80.887 159.88h-0.01c-0.387 0-0.7-0.313-0.7-0.7s0.313-0.7 0.7-0.7 0.705 0.313 0.705 0.7-0.309 0.7-0.695 0.7z" fill="#3E4651"/>
		
		
			<path d="m89.303 167.42c-0.325 0-0.655-0.082-0.956-0.252l-7.876-4.584c-0.334-0.194-0.447-0.623-0.253-0.957s0.623-0.448 0.957-0.253l7.872 4.582c0.229 0.128 0.529 0.069 0.672-0.145 0.024-0.035 0.051-0.069 0.082-0.1 6e-3 -0.03 0.03-0.117 0.03-0.213 0-0.186-0.102-0.361-0.267-0.459l-8.273-4.809c-0.053-0.03-0.101-0.067-0.144-0.109-0.273-0.273-0.278-0.722-5e-3 -0.995 0.247-0.249 0.63-0.275 0.902-0.076l8.228 4.783c0.593 0.352 0.958 0.989 0.958 1.666 0 0.344-0.088 0.671-0.263 0.971-0.038 0.06-0.072 0.113-0.119 0.168-0.36 0.506-0.945 0.782-1.545 0.782z" fill="#3E4651"/>
		
		
			
				<path d="m89.318 172.05c-1.443 0-2.617-1.174-2.617-2.617s1.174-2.617 2.617-2.617 2.617 1.174 2.617 2.617-1.174 2.617-2.617 2.617zm0-3.833c-0.671 0-1.216 0.545-1.216 1.216s0.545 1.216 1.216 1.216 1.216-0.545 1.216-1.216-0.545-1.216-1.216-1.216z" fill="#3E4651"/>
			
			
				<path d="m89.318 175.88c-1.443 0-2.617-1.174-2.617-2.617s1.174-2.617 2.617-2.617 2.617 1.174 2.617 2.617-1.174 2.617-2.617 2.617zm0-3.833c-0.671 0-1.216 0.545-1.216 1.216s0.545 1.216 1.216 1.216 1.216-0.545 1.216-1.216-0.545-1.216-1.216-1.216z" fill="#3E4651"/>
			
		
	
</g>




</svg>
